<svg width="48" height="48" viewBox="0 0 48 48" fill="none" xmlns="http://www.w3.org/2000/svg">
<path d="M10 44C10 42.8954 10.8954 42 12 42H36C37.1046 42 38 42.8954 38 44C38 45.1046 37.1046 46 36 46H12C10.8954 46 10 45.1046 10 44Z" fill="black"/>
<path d="M24 27C22.8954 27 22 26.1046 22 25L22 4C22 2.89543 22.8954 2 24 2C25.1046 2 26 2.89543 26 4V25C26 26.1046 25.1046 27 24 27Z" fill="black"/>
<path d="M24.8321 38.7519C24.4362 39.3457 23.5638 39.3457 23.1679 38.7519L11.0365 20.5547C10.5934 19.8902 11.0698 19 11.8685 19L36.1315 19C36.9302 19 37.4066 19.8902 36.9635 20.5547L24.8321 38.7519Z" fill="black"/>
</svg>
