<svg width="1000" height="400" viewBox="0 0 1000 400" fill="none" xmlns="http://www.w3.org/2000/svg">
<mask id="path-1-inside-1_642_1241" fill="white">
<path d="M17 103C17 94.1635 24.1634 87 33 87H974C982.837 87 990 94.1634 990 103V367C990 375.837 982.837 383 974 383H33C24.1634 383 17 375.837 17 367V103Z"/>
</mask>
<path d="M33 87V92H974V87V82H33V87ZM990 103H985V367H990H995V103H990ZM974 383V378H33V383V388H974V383ZM17 367H22V103H17H12V367H17ZM33 383V378C26.9249 378 22 373.075 22 367H17H12C12 378.598 21.402 388 33 388V383ZM990 367H985C985 373.075 980.075 378 974 378V383V388C985.598 388 995 378.598 995 367H990ZM974 87V92C980.075 92 985 96.9249 985 103H990H995C995 91.402 985.598 82 974 82V87ZM33 87V82C21.402 82 12 91.402 12 103H17H22C22 96.9249 26.9249 92 33 92V87Z" fill="black" mask="url(#path-1-inside-1_642_1241)"/>
<rect x="96.75" y="224.75" width="20.5" height="20.5" rx="1.75" fill="#EEBA05" stroke="black" stroke-width="0.5"/>
<path d="M125.61 242.49L126.77 238.16H122.7L123.07 236.75H127.15L128 233.54H123.93L124.31 232.13H128.39L129.46 228.1H130.93L129.84 232.13H133.19L134.26 228.1H135.73L134.64 232.13H138.71L138.33 233.54H134.27L133.4 236.75H137.47L137.09 238.16H133.03L131.87 242.49H130.41L131.56 238.16H128.23L127.07 242.49H125.61ZM128.61 236.75H131.95L132.8 233.54H129.47L128.61 236.75ZM141.318 242.5V228.1H150.318V229.51H142.788V234.49H149.118V235.9H142.788V241.09H150.318V242.5H141.318ZM152.724 242.5V228.1H161.724V229.51H154.194V234.49H160.524V235.9H154.194V241.09H161.724V242.5H152.724ZM164.13 242.5V228.1H169.69C170.497 228.1 171.2 228.267 171.8 228.6C172.4 228.933 172.867 229.383 173.2 229.95C173.534 230.51 173.7 231.13 173.7 231.81C173.7 232.583 173.494 233.273 173.08 233.88C172.667 234.48 172.114 234.897 171.42 235.13L171.4 234.64C172.334 234.907 173.067 235.373 173.6 236.04C174.134 236.707 174.4 237.513 174.4 238.46C174.4 239.293 174.224 240.013 173.87 240.62C173.517 241.22 173.02 241.683 172.38 242.01C171.74 242.337 170.997 242.5 170.15 242.5H164.13ZM165.61 241.09H169.79C170.377 241.09 170.904 240.987 171.37 240.78C171.837 240.567 172.204 240.267 172.47 239.88C172.744 239.493 172.88 239.027 172.88 238.48C172.88 237.947 172.757 237.467 172.51 237.04C172.264 236.613 171.927 236.273 171.5 236.02C171.08 235.76 170.6 235.63 170.06 235.63H165.61V241.09ZM165.61 234.24H169.68C170.14 234.24 170.56 234.137 170.94 233.93C171.32 233.717 171.62 233.427 171.84 233.06C172.067 232.693 172.18 232.27 172.18 231.79C172.18 231.11 171.944 230.557 171.47 230.13C171.004 229.703 170.407 229.49 169.68 229.49H165.61V234.24ZM175.396 242.5L180.356 228.1H182.306L187.266 242.5H185.736L181.026 228.92H181.606L176.926 242.5H175.396ZM177.606 239.01V237.63H185.046V239.01H177.606ZM193.772 242.8C192.885 242.8 192.085 242.593 191.372 242.18C190.665 241.767 190.105 241.207 189.692 240.5C189.279 239.787 189.072 238.987 189.072 238.1V232.5C189.072 231.613 189.279 230.817 189.692 230.11C190.105 229.397 190.665 228.833 191.372 228.42C192.085 228.007 192.885 227.8 193.772 227.8C194.659 227.8 195.455 228.007 196.162 228.42C196.875 228.833 197.439 229.397 197.852 230.11C198.265 230.817 198.472 231.613 198.472 232.5V238.1C198.472 238.987 198.265 239.787 197.852 240.5C197.439 241.207 196.875 241.767 196.162 242.18C195.455 242.593 194.659 242.8 193.772 242.8ZM193.772 241.38C194.365 241.38 194.905 241.237 195.392 240.95C195.879 240.657 196.265 240.267 196.552 239.78C196.839 239.293 196.982 238.757 196.982 238.17V232.43C196.982 231.837 196.839 231.297 196.552 230.81C196.265 230.323 195.879 229.937 195.392 229.65C194.905 229.357 194.365 229.21 193.772 229.21C193.179 229.21 192.639 229.357 192.152 229.65C191.665 229.937 191.279 230.323 190.992 230.81C190.705 231.297 190.562 231.837 190.562 232.43V238.17C190.562 238.757 190.705 239.293 190.992 239.78C191.279 240.267 191.665 240.657 192.152 240.95C192.639 241.237 193.179 241.38 193.772 241.38ZM205.529 242.8C204.782 242.8 204.092 242.647 203.459 242.34C202.826 242.033 202.286 241.61 201.839 241.07C201.392 240.53 201.072 239.91 200.879 239.21L202.289 238.83C202.416 239.35 202.646 239.8 202.979 240.18C203.312 240.553 203.702 240.843 204.149 241.05C204.602 241.257 205.076 241.36 205.569 241.36C206.209 241.36 206.782 241.207 207.289 240.9C207.802 240.587 208.209 240.173 208.509 239.66C208.809 239.147 208.959 238.583 208.959 237.97C208.959 237.337 208.802 236.767 208.489 236.26C208.176 235.747 207.762 235.34 207.249 235.04C206.736 234.74 206.176 234.59 205.569 234.59C204.889 234.59 204.302 234.74 203.809 235.04C203.316 235.333 202.922 235.703 202.629 236.15L201.289 235.59L201.729 228.1H209.419V229.51H202.379L203.109 228.82L202.719 235.21L202.349 234.72C202.762 234.247 203.262 233.877 203.849 233.61C204.436 233.343 205.052 233.21 205.699 233.21C206.586 233.21 207.386 233.423 208.099 233.85C208.812 234.27 209.379 234.84 209.799 235.56C210.219 236.28 210.429 237.083 210.429 237.97C210.429 238.85 210.206 239.657 209.759 240.39C209.312 241.117 208.719 241.7 207.979 242.14C207.239 242.58 206.422 242.8 205.529 242.8Z" fill="black"/>
<mask id="path-5-inside-2_642_1241" fill="white">
<path d="M277 135C277 121.745 287.745 111 301 111H942C955.255 111 966 121.745 966 135V335C966 348.255 955.255 359 942 359H301C287.745 359 277 348.255 277 335V135Z"/>
</mask>
<path d="M277 135C277 121.745 287.745 111 301 111H942C955.255 111 966 121.745 966 135V335C966 348.255 955.255 359 942 359H301C287.745 359 277 348.255 277 335V135Z" fill="black" fill-opacity="0.1"/>
<path d="M301 111V113H942V111V109H301V111ZM966 135H964V335H966H968V135H966ZM942 359V357H301V359V361H942V359ZM277 335H279V135H277H275V335H277ZM301 359V357C288.85 357 279 347.15 279 335H277H275C275 349.359 286.641 361 301 361V359ZM966 335H964C964 347.15 954.15 357 942 357V359V361C956.359 361 968 349.359 968 335H966ZM942 111V113C954.15 113 964 122.85 964 135H966H968C968 120.641 956.359 109 942 109V111ZM301 111V109C286.641 109 275 120.641 275 135H277H279C279 122.85 288.85 113 301 113V111Z" fill="black" mask="url(#path-5-inside-2_642_1241)"/>
<path d="M333.43 242.79C332.163 242.79 331.12 242.517 330.3 241.97C329.487 241.423 328.987 240.663 328.8 239.69L330.3 239.44C330.46 240.053 330.823 240.543 331.39 240.91C331.963 241.27 332.67 241.45 333.51 241.45C334.33 241.45 334.977 241.28 335.45 240.94C335.923 240.593 336.16 240.123 336.16 239.53C336.16 239.197 336.083 238.927 335.93 238.72C335.783 238.507 335.48 238.31 335.02 238.13C334.56 237.95 333.873 237.737 332.96 237.49C331.98 237.223 331.213 236.957 330.66 236.69C330.107 236.423 329.713 236.117 329.48 235.77C329.247 235.417 329.13 234.987 329.13 234.48C329.13 233.867 329.303 233.33 329.65 232.87C329.997 232.403 330.477 232.043 331.09 231.79C331.703 231.53 332.417 231.4 333.23 231.4C334.043 231.4 334.77 231.533 335.41 231.8C336.057 232.06 336.577 232.427 336.97 232.9C337.363 233.373 337.597 233.923 337.67 234.55L336.17 234.82C336.07 234.187 335.753 233.687 335.22 233.32C334.693 232.947 334.023 232.753 333.21 232.74C332.443 232.72 331.82 232.867 331.34 233.18C330.86 233.487 330.62 233.897 330.62 234.41C330.62 234.697 330.707 234.943 330.88 235.15C331.053 235.35 331.367 235.54 331.82 235.72C332.28 235.9 332.933 236.097 333.78 236.31C334.773 236.563 335.553 236.83 336.12 237.11C336.687 237.39 337.09 237.72 337.33 238.1C337.57 238.48 337.69 238.95 337.69 239.51C337.69 240.53 337.31 241.333 336.55 241.92C335.797 242.5 334.757 242.79 333.43 242.79ZM344.038 242.77C343.391 242.77 342.824 242.67 342.338 242.47C341.858 242.27 341.448 242 341.108 241.66C340.774 241.32 340.504 240.933 340.298 240.5C340.091 240.06 339.941 239.597 339.848 239.11C339.754 238.617 339.708 238.127 339.708 237.64V231.7H341.188V237.21C341.188 237.803 341.244 238.353 341.358 238.86C341.471 239.367 341.651 239.81 341.898 240.19C342.151 240.563 342.474 240.853 342.868 241.06C343.268 241.267 343.751 241.37 344.318 241.37C344.838 241.37 345.294 241.28 345.688 241.1C346.088 240.92 346.421 240.663 346.688 240.33C346.961 239.99 347.168 239.58 347.308 239.1C347.448 238.613 347.518 238.067 347.518 237.46L348.558 237.69C348.558 238.797 348.364 239.727 347.978 240.48C347.591 241.233 347.058 241.803 346.378 242.19C345.698 242.577 344.918 242.77 344.038 242.77ZM347.668 242.5V239.84H347.518V231.7H348.988V242.5H347.668ZM359.583 242.5V236.99C359.583 236.39 359.526 235.84 359.413 235.34C359.299 234.833 359.116 234.393 358.863 234.02C358.616 233.64 358.293 233.347 357.893 233.14C357.499 232.933 357.019 232.83 356.453 232.83C355.933 232.83 355.473 232.92 355.073 233.1C354.679 233.28 354.346 233.54 354.073 233.88C353.806 234.213 353.603 234.62 353.463 235.1C353.323 235.58 353.253 236.127 353.253 236.74L352.213 236.51C352.213 235.403 352.406 234.473 352.793 233.72C353.179 232.967 353.713 232.397 354.393 232.01C355.073 231.623 355.853 231.43 356.733 231.43C357.379 231.43 357.943 231.53 358.423 231.73C358.909 231.93 359.319 232.2 359.653 232.54C359.993 232.88 360.266 233.27 360.473 233.71C360.679 234.143 360.829 234.607 360.923 235.1C361.016 235.587 361.063 236.073 361.063 236.56V242.5H359.583ZM351.773 242.5V231.7H353.103V234.36H353.253V242.5H351.773ZM368.508 242.8C367.514 242.8 366.674 242.55 365.988 242.05C365.301 241.543 364.781 240.86 364.428 240C364.074 239.133 363.898 238.163 363.898 237.09C363.898 235.997 364.074 235.023 364.428 234.17C364.788 233.31 365.314 232.633 366.008 232.14C366.701 231.647 367.554 231.4 368.568 231.4C369.554 231.4 370.401 231.65 371.108 232.15C371.814 232.65 372.354 233.33 372.728 234.19C373.108 235.05 373.298 236.017 373.298 237.09C373.298 238.17 373.108 239.14 372.728 240C372.348 240.86 371.801 241.543 371.088 242.05C370.374 242.55 369.514 242.8 368.508 242.8ZM363.648 242.5V228.1H365.128V234.37H364.968V242.5H363.648ZM368.358 241.43C369.111 241.43 369.738 241.24 370.238 240.86C370.738 240.48 371.111 239.963 371.358 239.31C371.611 238.65 371.738 237.91 371.738 237.09C371.738 236.277 371.614 235.543 371.368 234.89C371.121 234.237 370.744 233.72 370.238 233.34C369.738 232.96 369.101 232.77 368.328 232.77C367.574 232.77 366.948 232.953 366.448 233.32C365.954 233.687 365.584 234.197 365.338 234.85C365.091 235.497 364.968 236.243 364.968 237.09C364.968 237.923 365.091 238.67 365.338 239.33C365.584 239.983 365.958 240.497 366.458 240.87C366.958 241.243 367.591 241.43 368.358 241.43ZM380.064 242.8C379.01 242.8 378.097 242.567 377.324 242.1C376.557 241.633 375.96 240.977 375.534 240.13C375.107 239.283 374.894 238.29 374.894 237.15C374.894 235.97 375.104 234.95 375.524 234.09C375.944 233.23 376.534 232.567 377.294 232.1C378.06 231.633 378.964 231.4 380.004 231.4C381.07 231.4 381.98 231.647 382.734 232.14C383.487 232.627 384.057 233.327 384.444 234.24C384.83 235.153 385.007 236.243 384.974 237.51H383.474V236.99C383.447 235.59 383.144 234.533 382.564 233.82C381.99 233.107 381.15 232.75 380.044 232.75C378.884 232.75 377.994 233.127 377.374 233.88C376.76 234.633 376.454 235.707 376.454 237.1C376.454 238.46 376.76 239.517 377.374 240.27C377.994 241.017 378.87 241.39 380.004 241.39C380.777 241.39 381.45 241.213 382.024 240.86C382.604 240.5 383.06 239.983 383.394 239.31L384.764 239.84C384.337 240.78 383.707 241.51 382.874 242.03C382.047 242.543 381.11 242.8 380.064 242.8ZM375.934 237.51V236.28H384.184V237.51H375.934ZM390.088 242.8C389.274 242.8 388.591 242.653 388.038 242.36C387.491 242.067 387.081 241.677 386.808 241.19C386.534 240.703 386.398 240.173 386.398 239.6C386.398 239.013 386.514 238.513 386.748 238.1C386.988 237.68 387.311 237.337 387.718 237.07C388.131 236.803 388.608 236.6 389.148 236.46C389.694 236.327 390.298 236.21 390.958 236.11C391.624 236.003 392.274 235.913 392.908 235.84C393.548 235.76 394.108 235.683 394.588 235.61L394.068 235.93C394.088 234.863 393.881 234.073 393.448 233.56C393.014 233.047 392.261 232.79 391.188 232.79C390.448 232.79 389.821 232.957 389.308 233.29C388.801 233.623 388.444 234.15 388.238 234.87L386.808 234.45C387.054 233.483 387.551 232.733 388.298 232.2C389.044 231.667 390.014 231.4 391.208 231.4C392.194 231.4 393.031 231.587 393.718 231.96C394.411 232.327 394.901 232.86 395.188 233.56C395.321 233.873 395.408 234.223 395.448 234.61C395.488 234.997 395.508 235.39 395.508 235.79V242.5H394.198V239.79L394.578 239.95C394.211 240.877 393.641 241.583 392.868 242.07C392.094 242.557 391.168 242.8 390.088 242.8ZM390.258 241.53C390.944 241.53 391.544 241.407 392.058 241.16C392.571 240.913 392.984 240.577 393.298 240.15C393.611 239.717 393.814 239.23 393.908 238.69C393.988 238.343 394.031 237.963 394.038 237.55C394.044 237.13 394.048 236.817 394.048 236.61L394.608 236.9C394.108 236.967 393.564 237.033 392.978 237.1C392.398 237.167 391.824 237.243 391.258 237.33C390.698 237.417 390.191 237.52 389.738 237.64C389.431 237.727 389.134 237.85 388.848 238.01C388.561 238.163 388.324 238.37 388.138 238.63C387.958 238.89 387.868 239.213 387.868 239.6C387.868 239.913 387.944 240.217 388.098 240.51C388.258 240.803 388.511 241.047 388.858 241.24C389.211 241.433 389.678 241.53 390.258 241.53ZM410.991 242.5L411.001 235.41C411.001 234.577 410.768 233.923 410.301 233.45C409.841 232.97 409.254 232.73 408.541 232.73C408.134 232.73 407.738 232.823 407.351 233.01C406.964 233.197 406.644 233.497 406.391 233.91C406.144 234.323 406.021 234.863 406.021 235.53L405.151 235.28C405.131 234.507 405.281 233.83 405.601 233.25C405.928 232.67 406.374 232.22 406.941 231.9C407.514 231.573 408.161 231.41 408.881 231.41C409.968 231.41 410.838 231.747 411.491 232.42C412.144 233.087 412.471 233.99 412.471 235.13L412.461 242.5H410.991ZM398.101 242.5V231.7H399.421V234.36H399.581V242.5H398.101ZM404.561 242.5L404.571 235.51C404.571 234.65 404.341 233.973 403.881 233.48C403.428 232.98 402.828 232.73 402.081 232.73C401.334 232.73 400.731 232.987 400.271 233.5C399.811 234.007 399.581 234.683 399.581 235.53L398.701 235.05C398.701 234.357 398.864 233.737 399.191 233.19C399.518 232.637 399.964 232.203 400.531 231.89C401.098 231.57 401.741 231.41 402.461 231.41C403.148 231.41 403.758 231.557 404.291 231.85C404.831 232.143 405.254 232.57 405.561 233.13C405.868 233.69 406.021 234.37 406.021 235.17L406.011 242.5H404.561Z" fill="black"/>
<mask id="path-8-inside-3_642_1241" fill="white">
<path d="M451 159C451 145.745 461.745 135 475 135H918C931.255 135 942 145.745 942 159V311C942 324.255 931.255 335 918 335H475C461.745 335 451 324.255 451 311V159Z"/>
</mask>
<path d="M451 159C451 145.745 461.745 135 475 135H918C931.255 135 942 145.745 942 159V311C942 324.255 931.255 335 918 335H475C461.745 335 451 324.255 451 311V159Z" fill="black" fill-opacity="0.1"/>
<path d="M475 135V136H918V135V134H475V135ZM942 159H941V311H942H943V159H942ZM918 335V334H475V335V336H918V335ZM451 311H452V159H451H450V311H451ZM475 335V334C462.297 334 452 323.703 452 311H451H450C450 324.807 461.193 336 475 336V335ZM942 311H941C941 323.703 930.703 334 918 334V335V336C931.807 336 943 324.807 943 311H942ZM918 135V136C930.703 136 941 146.297 941 159H942H943C943 145.193 931.807 134 918 134V135ZM475 135V134C461.193 134 450 145.193 450 159H451H452C452 146.297 462.297 136 475 136V135Z" fill="black" mask="url(#path-8-inside-3_642_1241)"/>
<path d="M490.38 242.8C489.293 242.8 488.373 242.557 487.62 242.07C486.867 241.583 486.293 240.913 485.9 240.06C485.513 239.2 485.313 238.213 485.3 237.1C485.313 235.967 485.52 234.973 485.92 234.12C486.32 233.26 486.897 232.593 487.65 232.12C488.403 231.64 489.317 231.4 490.39 231.4C491.483 231.4 492.433 231.667 493.24 232.2C494.053 232.733 494.61 233.463 494.91 234.39L493.47 234.85C493.217 234.203 492.813 233.703 492.26 233.35C491.713 232.99 491.087 232.81 490.38 232.81C489.587 232.81 488.93 232.993 488.41 233.36C487.89 233.72 487.503 234.223 487.25 234.87C486.997 235.517 486.867 236.26 486.86 237.1C486.873 238.393 487.173 239.433 487.76 240.22C488.347 241 489.22 241.39 490.38 241.39C491.113 241.39 491.737 241.223 492.25 240.89C492.77 240.55 493.163 240.057 493.43 239.41L494.91 239.85C494.51 240.81 493.923 241.543 493.15 242.05C492.377 242.55 491.453 242.8 490.38 242.8ZM501.191 242.8C500.118 242.8 499.201 242.557 498.441 242.07C497.681 241.583 497.098 240.91 496.691 240.05C496.285 239.19 496.081 238.203 496.081 237.09C496.081 235.957 496.288 234.963 496.701 234.11C497.115 233.257 497.701 232.593 498.461 232.12C499.228 231.64 500.138 231.4 501.191 231.4C502.271 231.4 503.191 231.643 503.951 232.13C504.718 232.61 505.301 233.28 505.701 234.14C506.108 234.993 506.311 235.977 506.311 237.09C506.311 238.223 506.108 239.22 505.701 240.08C505.295 240.933 504.708 241.6 503.941 242.08C503.175 242.56 502.258 242.8 501.191 242.8ZM501.191 241.39C502.391 241.39 503.285 240.993 503.871 240.2C504.458 239.4 504.751 238.363 504.751 237.09C504.751 235.783 504.455 234.743 503.861 233.97C503.275 233.197 502.385 232.81 501.191 232.81C500.385 232.81 499.718 232.993 499.191 233.36C498.671 233.72 498.281 234.223 498.021 234.87C497.768 235.51 497.641 236.25 497.641 237.09C497.641 238.39 497.941 239.433 498.541 240.22C499.141 241 500.025 241.39 501.191 241.39ZM508.717 242.5V227.8H510.187V242.5H508.717ZM517.695 242.8C516.622 242.8 515.705 242.557 514.945 242.07C514.185 241.583 513.602 240.91 513.195 240.05C512.788 239.19 512.585 238.203 512.585 237.09C512.585 235.957 512.792 234.963 513.205 234.11C513.618 233.257 514.205 232.593 514.965 232.12C515.732 231.64 516.642 231.4 517.695 231.4C518.775 231.4 519.695 231.643 520.455 232.13C521.222 232.61 521.805 233.28 522.205 234.14C522.612 234.993 522.815 235.977 522.815 237.09C522.815 238.223 522.612 239.22 522.205 240.08C521.798 240.933 521.212 241.6 520.445 242.08C519.678 242.56 518.762 242.8 517.695 242.8ZM517.695 241.39C518.895 241.39 519.788 240.993 520.375 240.2C520.962 239.4 521.255 238.363 521.255 237.09C521.255 235.783 520.958 234.743 520.365 233.97C519.778 233.197 518.888 232.81 517.695 232.81C516.888 232.81 516.222 232.993 515.695 233.36C515.175 233.72 514.785 234.223 514.525 234.87C514.272 235.51 514.145 236.25 514.145 237.09C514.145 238.39 514.445 239.433 515.045 240.22C515.645 241 516.528 241.39 517.695 241.39ZM525.021 242.5V231.7H526.341V234.3L526.081 233.96C526.201 233.64 526.358 233.347 526.551 233.08C526.744 232.807 526.954 232.583 527.181 232.41C527.461 232.163 527.788 231.977 528.161 231.85C528.534 231.717 528.911 231.64 529.291 231.62C529.671 231.593 530.018 231.62 530.331 231.7V233.08C529.938 232.98 529.508 232.957 529.041 233.01C528.574 233.063 528.144 233.25 527.751 233.57C527.391 233.85 527.121 234.187 526.941 234.58C526.761 234.967 526.641 235.38 526.581 235.82C526.521 236.253 526.491 236.683 526.491 237.11V242.5H525.021ZM535.868 242.79C534.601 242.79 533.558 242.517 532.738 241.97C531.924 241.423 531.424 240.663 531.238 239.69L532.738 239.44C532.898 240.053 533.261 240.543 533.828 240.91C534.401 241.27 535.108 241.45 535.947 241.45C536.768 241.45 537.414 241.28 537.888 240.94C538.361 240.593 538.598 240.123 538.598 239.53C538.598 239.197 538.521 238.927 538.368 238.72C538.221 238.507 537.918 238.31 537.458 238.13C536.998 237.95 536.311 237.737 535.398 237.49C534.418 237.223 533.651 236.957 533.098 236.69C532.544 236.423 532.151 236.117 531.918 235.77C531.684 235.417 531.568 234.987 531.568 234.48C531.568 233.867 531.741 233.33 532.088 232.87C532.434 232.403 532.914 232.043 533.528 231.79C534.141 231.53 534.854 231.4 535.668 231.4C536.481 231.4 537.208 231.533 537.848 231.8C538.494 232.06 539.014 232.427 539.408 232.9C539.801 233.373 540.034 233.923 540.108 234.55L538.608 234.82C538.508 234.187 538.191 233.687 537.658 233.32C537.131 232.947 536.461 232.753 535.648 232.74C534.881 232.72 534.258 232.867 533.778 233.18C533.298 233.487 533.058 233.897 533.058 234.41C533.058 234.697 533.144 234.943 533.318 235.15C533.491 235.35 533.804 235.54 534.258 235.72C534.718 235.9 535.371 236.097 536.218 236.31C537.211 236.563 537.991 236.83 538.558 237.11C539.124 237.39 539.528 237.72 539.768 238.1C540.008 238.48 540.128 238.95 540.128 239.51C540.128 240.53 539.748 241.333 538.988 241.92C538.234 242.5 537.194 242.79 535.868 242.79ZM545.985 228.1H547.495L543.655 242.5H542.145L545.985 228.1ZM554.949 242.8C553.956 242.8 553.116 242.55 552.429 242.05C551.743 241.543 551.223 240.86 550.869 240C550.516 239.133 550.339 238.163 550.339 237.09C550.339 235.997 550.516 235.023 550.869 234.17C551.229 233.31 551.756 232.633 552.449 232.14C553.143 231.647 553.996 231.4 555.009 231.4C555.996 231.4 556.843 231.65 557.549 232.15C558.256 232.65 558.796 233.33 559.169 234.19C559.549 235.05 559.739 236.017 559.739 237.09C559.739 238.17 559.549 239.14 559.169 240C558.789 240.86 558.243 241.543 557.529 242.05C556.816 242.55 555.956 242.8 554.949 242.8ZM550.089 242.5V228.1H551.569V234.37H551.409V242.5H550.089ZM554.799 241.43C555.553 241.43 556.179 241.24 556.679 240.86C557.179 240.48 557.553 239.963 557.799 239.31C558.053 238.65 558.179 237.91 558.179 237.09C558.179 236.277 558.056 235.543 557.809 234.89C557.563 234.237 557.186 233.72 556.679 233.34C556.179 232.96 555.543 232.77 554.769 232.77C554.016 232.77 553.389 232.953 552.889 233.32C552.396 233.687 552.026 234.197 551.779 234.85C551.533 235.497 551.409 236.243 551.409 237.09C551.409 237.923 551.533 238.67 551.779 239.33C552.026 239.983 552.399 240.497 552.899 240.87C553.399 241.243 554.033 241.43 554.799 241.43ZM566.065 242.77C565.418 242.77 564.852 242.67 564.365 242.47C563.885 242.27 563.475 242 563.135 241.66C562.802 241.32 562.532 240.933 562.325 240.5C562.118 240.06 561.968 239.597 561.875 239.11C561.782 238.617 561.735 238.127 561.735 237.64V231.7H563.215V237.21C563.215 237.803 563.272 238.353 563.385 238.86C563.498 239.367 563.678 239.81 563.925 240.19C564.178 240.563 564.502 240.853 564.895 241.06C565.295 241.267 565.778 241.37 566.345 241.37C566.865 241.37 567.322 241.28 567.715 241.1C568.115 240.92 568.448 240.663 568.715 240.33C568.988 239.99 569.195 239.58 569.335 239.1C569.475 238.613 569.545 238.067 569.545 237.46L570.585 237.69C570.585 238.797 570.392 239.727 570.005 240.48C569.618 241.233 569.085 241.803 568.405 242.19C567.725 242.577 566.945 242.77 566.065 242.77ZM569.695 242.5V239.84H569.545V231.7H571.015V242.5H569.695ZM579.69 242.5C579.083 242.627 578.483 242.677 577.89 242.65C577.303 242.623 576.777 242.497 576.31 242.27C575.85 242.043 575.5 241.69 575.26 241.21C575.067 240.81 574.96 240.407 574.94 240C574.927 239.587 574.92 239.117 574.92 238.59V228.7H576.38V238.53C576.38 238.983 576.383 239.363 576.39 239.67C576.403 239.97 576.473 240.237 576.6 240.47C576.84 240.917 577.22 241.183 577.74 241.27C578.267 241.357 578.917 241.337 579.69 241.21V242.5ZM572.61 232.96V231.7H579.69V232.96H572.61ZM586.5 242.5C585.893 242.627 585.293 242.677 584.7 242.65C584.113 242.623 583.587 242.497 583.12 242.27C582.66 242.043 582.31 241.69 582.07 241.21C581.877 240.81 581.77 240.407 581.75 240C581.737 239.587 581.73 239.117 581.73 238.59V228.7H583.19V238.53C583.19 238.983 583.193 239.363 583.2 239.67C583.213 239.97 583.283 240.237 583.41 240.47C583.65 240.917 584.03 241.183 584.55 241.27C585.077 241.357 585.727 241.337 586.5 241.21V242.5ZM579.42 232.96V231.7H586.5V232.96H579.42ZM593.144 242.8C592.071 242.8 591.154 242.557 590.394 242.07C589.634 241.583 589.051 240.91 588.644 240.05C588.238 239.19 588.034 238.203 588.034 237.09C588.034 235.957 588.241 234.963 588.654 234.11C589.068 233.257 589.654 232.593 590.414 232.12C591.181 231.64 592.091 231.4 593.144 231.4C594.224 231.4 595.144 231.643 595.904 232.13C596.671 232.61 597.254 233.28 597.654 234.14C598.061 234.993 598.264 235.977 598.264 237.09C598.264 238.223 598.061 239.22 597.654 240.08C597.248 240.933 596.661 241.6 595.894 242.08C595.128 242.56 594.211 242.8 593.144 242.8ZM593.144 241.39C594.344 241.39 595.238 240.993 595.824 240.2C596.411 239.4 596.704 238.363 596.704 237.09C596.704 235.783 596.408 234.743 595.814 233.97C595.228 233.197 594.338 232.81 593.144 232.81C592.338 232.81 591.671 232.993 591.144 233.36C590.624 233.72 590.234 234.223 589.974 234.87C589.721 235.51 589.594 236.25 589.594 237.09C589.594 238.39 589.894 239.433 590.494 240.22C591.094 241 591.978 241.39 593.144 241.39ZM608.27 242.5V236.99C608.27 236.39 608.214 235.84 608.1 235.34C607.987 234.833 607.804 234.393 607.55 234.02C607.304 233.64 606.98 233.347 606.58 233.14C606.187 232.933 605.707 232.83 605.14 232.83C604.62 232.83 604.16 232.92 603.76 233.1C603.367 233.28 603.034 233.54 602.76 233.88C602.494 234.213 602.29 234.62 602.15 235.1C602.01 235.58 601.94 236.127 601.94 236.74L600.9 236.51C600.9 235.403 601.094 234.473 601.48 233.72C601.867 232.967 602.4 232.397 603.08 232.01C603.76 231.623 604.54 231.43 605.42 231.43C606.067 231.43 606.63 231.53 607.11 231.73C607.597 231.93 608.007 232.2 608.34 232.54C608.68 232.88 608.954 233.27 609.16 233.71C609.367 234.143 609.517 234.607 609.61 235.1C609.704 235.587 609.75 236.073 609.75 236.56V242.5H608.27ZM600.46 242.5V231.7H601.79V234.36H601.94V242.5H600.46ZM615.985 228.1H617.495L613.655 242.5H612.145L615.985 228.1ZM624.344 242.8C623.35 242.8 622.51 242.55 621.824 242.05C621.137 241.543 620.617 240.86 620.264 240C619.91 239.133 619.734 238.163 619.734 237.09C619.734 235.997 619.91 235.023 620.264 234.17C620.624 233.31 621.15 232.633 621.844 232.14C622.537 231.647 623.39 231.4 624.404 231.4C625.39 231.4 626.237 231.65 626.944 232.15C627.65 232.65 628.19 233.33 628.564 234.19C628.944 235.05 629.134 236.017 629.134 237.09C629.134 238.17 628.944 239.14 628.564 240C628.184 240.86 627.637 241.543 626.924 242.05C626.21 242.55 625.35 242.8 624.344 242.8ZM619.484 247.3V231.7H620.804V239.83H620.964V247.3H619.484ZM624.194 241.43C624.947 241.43 625.574 241.24 626.074 240.86C626.574 240.48 626.947 239.963 627.194 239.31C627.447 238.65 627.574 237.91 627.574 237.09C627.574 236.277 627.45 235.543 627.204 234.89C626.957 234.237 626.58 233.72 626.074 233.34C625.574 232.96 624.937 232.77 624.164 232.77C623.41 232.77 622.784 232.953 622.284 233.32C621.79 233.687 621.42 234.197 621.174 234.85C620.927 235.497 620.804 236.243 620.804 237.09C620.804 237.923 620.927 238.67 621.174 239.33C621.42 239.983 621.794 240.497 622.294 240.87C622.794 241.243 623.427 241.43 624.194 241.43ZM631.33 242.5V231.7H632.65V234.3L632.39 233.96C632.51 233.64 632.666 233.347 632.86 233.08C633.053 232.807 633.263 232.583 633.49 232.41C633.77 232.163 634.096 231.977 634.47 231.85C634.843 231.717 635.22 231.64 635.6 231.62C635.98 231.593 636.326 231.62 636.64 231.7V233.08C636.246 232.98 635.816 232.957 635.35 233.01C634.883 233.063 634.453 233.25 634.06 233.57C633.7 233.85 633.43 234.187 633.25 234.58C633.07 234.967 632.95 235.38 632.89 235.82C632.83 236.253 632.8 236.683 632.8 237.11V242.5H631.33ZM638.737 229.65V228H640.207V229.65H638.737ZM638.737 242.5V231.7H640.207V242.5H638.737ZM656.085 242.5L656.095 235.41C656.095 234.577 655.861 233.923 655.395 233.45C654.935 232.97 654.348 232.73 653.635 232.73C653.228 232.73 652.831 232.823 652.445 233.01C652.058 233.197 651.738 233.497 651.485 233.91C651.238 234.323 651.115 234.863 651.115 235.53L650.245 235.28C650.225 234.507 650.375 233.83 650.695 233.25C651.021 232.67 651.468 232.22 652.035 231.9C652.608 231.573 653.255 231.41 653.975 231.41C655.061 231.41 655.931 231.747 656.585 232.42C657.238 233.087 657.565 233.99 657.565 235.13L657.555 242.5H656.085ZM643.195 242.5V231.7H644.515V234.36H644.675V242.5H643.195ZM649.655 242.5L649.665 235.51C649.665 234.65 649.435 233.973 648.975 233.48C648.521 232.98 647.921 232.73 647.175 232.73C646.428 232.73 645.825 232.987 645.365 233.5C644.905 234.007 644.675 234.683 644.675 235.53L643.795 235.05C643.795 234.357 643.958 233.737 644.285 233.19C644.611 232.637 645.058 232.203 645.625 231.89C646.191 231.57 646.835 231.41 647.555 231.41C648.241 231.41 648.851 231.557 649.385 231.85C649.925 232.143 650.348 232.57 650.655 233.13C650.961 233.69 651.115 234.37 651.115 235.17L651.105 242.5H649.655ZM663.248 242.8C662.434 242.8 661.751 242.653 661.198 242.36C660.651 242.067 660.241 241.677 659.968 241.19C659.694 240.703 659.558 240.173 659.558 239.6C659.558 239.013 659.674 238.513 659.908 238.1C660.148 237.68 660.471 237.337 660.878 237.07C661.291 236.803 661.768 236.6 662.308 236.46C662.854 236.327 663.458 236.21 664.118 236.11C664.784 236.003 665.434 235.913 666.068 235.84C666.708 235.76 667.268 235.683 667.748 235.61L667.228 235.93C667.248 234.863 667.041 234.073 666.608 233.56C666.174 233.047 665.421 232.79 664.348 232.79C663.608 232.79 662.981 232.957 662.468 233.29C661.961 233.623 661.604 234.15 661.398 234.87L659.968 234.45C660.214 233.483 660.711 232.733 661.458 232.2C662.204 231.667 663.174 231.4 664.368 231.4C665.354 231.4 666.191 231.587 666.878 231.96C667.571 232.327 668.061 232.86 668.348 233.56C668.481 233.873 668.568 234.223 668.608 234.61C668.648 234.997 668.668 235.39 668.668 235.79V242.5H667.358V239.79L667.738 239.95C667.371 240.877 666.801 241.583 666.028 242.07C665.254 242.557 664.328 242.8 663.248 242.8ZM663.418 241.53C664.104 241.53 664.704 241.407 665.218 241.16C665.731 240.913 666.144 240.577 666.458 240.15C666.771 239.717 666.974 239.23 667.068 238.69C667.148 238.343 667.191 237.963 667.198 237.55C667.204 237.13 667.208 236.817 667.208 236.61L667.768 236.9C667.268 236.967 666.724 237.033 666.138 237.1C665.558 237.167 664.984 237.243 664.418 237.33C663.858 237.417 663.351 237.52 662.898 237.64C662.591 237.727 662.294 237.85 662.008 238.01C661.721 238.163 661.484 238.37 661.298 238.63C661.118 238.89 661.028 239.213 661.028 239.6C661.028 239.913 661.104 240.217 661.258 240.51C661.418 240.803 661.671 241.047 662.018 241.24C662.371 241.433 662.838 241.53 663.418 241.53ZM671.271 242.5V231.7H672.591V234.3L672.331 233.96C672.451 233.64 672.608 233.347 672.801 233.08C672.994 232.807 673.204 232.583 673.431 232.41C673.711 232.163 674.038 231.977 674.411 231.85C674.784 231.717 675.161 231.64 675.541 231.62C675.921 231.593 676.268 231.62 676.581 231.7V233.08C676.188 232.98 675.758 232.957 675.291 233.01C674.824 233.063 674.394 233.25 674.001 233.57C673.641 233.85 673.371 234.187 673.191 234.58C673.011 234.967 672.891 235.38 672.831 235.82C672.771 236.253 672.741 236.683 672.741 237.11V242.5H671.271ZM679.881 247.3L681.971 241.63L682.001 243.31L677.271 231.7H678.831L682.711 241.41H682.071L685.651 231.7H687.151L681.351 247.3H679.881Z" fill="black"/>
<rect x="707.5" y="159.5" width="210" height="151" rx="23.5" fill="#EEBA05"/>
<rect x="707.5" y="159.5" width="210" height="151" rx="23.5" stroke="black" stroke-dasharray="2 2"/>
<path d="M726.88 242.8C725.793 242.8 724.873 242.557 724.12 242.07C723.367 241.583 722.793 240.913 722.4 240.06C722.013 239.2 721.813 238.213 721.8 237.1C721.813 235.967 722.02 234.973 722.42 234.12C722.82 233.26 723.397 232.593 724.15 232.12C724.903 231.64 725.817 231.4 726.89 231.4C727.983 231.4 728.933 231.667 729.74 232.2C730.553 232.733 731.11 233.463 731.41 234.39L729.97 234.85C729.717 234.203 729.313 233.703 728.76 233.35C728.213 232.99 727.587 232.81 726.88 232.81C726.087 232.81 725.43 232.993 724.91 233.36C724.39 233.72 724.003 234.223 723.75 234.87C723.497 235.517 723.367 236.26 723.36 237.1C723.373 238.393 723.673 239.433 724.26 240.22C724.847 241 725.72 241.39 726.88 241.39C727.613 241.39 728.237 241.223 728.75 240.89C729.27 240.55 729.663 240.057 729.93 239.41L731.41 239.85C731.01 240.81 730.423 241.543 729.65 242.05C728.877 242.55 727.953 242.8 726.88 242.8ZM736.506 242.8C735.692 242.8 735.009 242.653 734.456 242.36C733.909 242.067 733.499 241.677 733.226 241.19C732.952 240.703 732.816 240.173 732.816 239.6C732.816 239.013 732.932 238.513 733.166 238.1C733.406 237.68 733.729 237.337 734.136 237.07C734.549 236.803 735.026 236.6 735.566 236.46C736.112 236.327 736.716 236.21 737.376 236.11C738.042 236.003 738.692 235.913 739.326 235.84C739.966 235.76 740.526 235.683 741.006 235.61L740.486 235.93C740.506 234.863 740.299 234.073 739.866 233.56C739.432 233.047 738.679 232.79 737.606 232.79C736.866 232.79 736.239 232.957 735.726 233.29C735.219 233.623 734.862 234.15 734.656 234.87L733.226 234.45C733.472 233.483 733.969 232.733 734.716 232.2C735.462 231.667 736.432 231.4 737.626 231.4C738.612 231.4 739.449 231.587 740.136 231.96C740.829 232.327 741.319 232.86 741.606 233.56C741.739 233.873 741.826 234.223 741.866 234.61C741.906 234.997 741.926 235.39 741.926 235.79V242.5H740.616V239.79L740.996 239.95C740.629 240.877 740.059 241.583 739.286 242.07C738.512 242.557 737.586 242.8 736.506 242.8ZM736.676 241.53C737.362 241.53 737.962 241.407 738.476 241.16C738.989 240.913 739.402 240.577 739.716 240.15C740.029 239.717 740.232 239.23 740.326 238.69C740.406 238.343 740.449 237.963 740.456 237.55C740.462 237.13 740.466 236.817 740.466 236.61L741.026 236.9C740.526 236.967 739.982 237.033 739.396 237.1C738.816 237.167 738.242 237.243 737.676 237.33C737.116 237.417 736.609 237.52 736.156 237.64C735.849 237.727 735.552 237.85 735.266 238.01C734.979 238.163 734.742 238.37 734.556 238.63C734.376 238.89 734.286 239.213 734.286 239.6C734.286 239.913 734.362 240.217 734.516 240.51C734.676 240.803 734.929 241.047 735.276 241.24C735.629 241.433 736.096 241.53 736.676 241.53ZM744.729 242.5V227.8H746.199V242.5H744.729ZM749.397 242.5V227.8H750.867V242.5H749.397ZM753.465 242.49L753.475 241.15L759.985 235.27C760.545 234.763 760.915 234.283 761.095 233.83C761.282 233.37 761.375 232.89 761.375 232.39C761.375 231.797 761.235 231.26 760.955 230.78C760.675 230.3 760.298 229.92 759.825 229.64C759.352 229.353 758.822 229.21 758.235 229.21C757.622 229.21 757.075 229.357 756.595 229.65C756.115 229.943 755.735 230.33 755.455 230.81C755.182 231.29 755.048 231.813 755.055 232.38H753.555C753.555 231.507 753.762 230.723 754.175 230.03C754.588 229.337 755.148 228.793 755.855 228.4C756.562 228 757.362 227.8 758.255 227.8C759.128 227.8 759.912 228.007 760.605 228.42C761.305 228.827 761.855 229.38 762.255 230.08C762.662 230.773 762.865 231.547 762.865 232.4C762.865 233 762.792 233.53 762.645 233.99C762.505 234.443 762.282 234.867 761.975 235.26C761.675 235.647 761.292 236.047 760.825 236.46L755.045 241.68L754.815 241.08H762.865V242.49H753.465ZM768.361 242.8C767.548 242.8 766.864 242.653 766.311 242.36C765.764 242.067 765.354 241.677 765.081 241.19C764.808 240.703 764.671 240.173 764.671 239.6C764.671 239.013 764.788 238.513 765.021 238.1C765.261 237.68 765.584 237.337 765.991 237.07C766.404 236.803 766.881 236.6 767.421 236.46C767.968 236.327 768.571 236.21 769.231 236.11C769.898 236.003 770.548 235.913 771.181 235.84C771.821 235.76 772.381 235.683 772.861 235.61L772.341 235.93C772.361 234.863 772.154 234.073 771.721 233.56C771.288 233.047 770.534 232.79 769.461 232.79C768.721 232.79 768.094 232.957 767.581 233.29C767.074 233.623 766.718 234.15 766.511 234.87L765.081 234.45C765.328 233.483 765.824 232.733 766.571 232.2C767.318 231.667 768.288 231.4 769.481 231.4C770.468 231.4 771.304 231.587 771.991 231.96C772.684 232.327 773.174 232.86 773.461 233.56C773.594 233.873 773.681 234.223 773.721 234.61C773.761 234.997 773.781 235.39 773.781 235.79V242.5H772.471V239.79L772.851 239.95C772.484 240.877 771.914 241.583 771.141 242.07C770.368 242.557 769.441 242.8 768.361 242.8ZM768.531 241.53C769.218 241.53 769.818 241.407 770.331 241.16C770.844 240.913 771.258 240.577 771.571 240.15C771.884 239.717 772.088 239.23 772.181 238.69C772.261 238.343 772.304 237.963 772.311 237.55C772.318 237.13 772.321 236.817 772.321 236.61L772.881 236.9C772.381 236.967 771.838 237.033 771.251 237.1C770.671 237.167 770.098 237.243 769.531 237.33C768.971 237.417 768.464 237.52 768.011 237.64C767.704 237.727 767.408 237.85 767.121 238.01C766.834 238.163 766.598 238.37 766.411 238.63C766.231 238.89 766.141 239.213 766.141 239.6C766.141 239.913 766.218 240.217 766.371 240.51C766.531 240.803 766.784 241.047 767.131 241.24C767.484 241.433 767.951 241.53 768.531 241.53ZM780.864 242.8C779.778 242.8 778.858 242.557 778.104 242.07C777.351 241.583 776.778 240.913 776.384 240.06C775.998 239.2 775.798 238.213 775.784 237.1C775.798 235.967 776.004 234.973 776.404 234.12C776.804 233.26 777.381 232.593 778.134 232.12C778.888 231.64 779.801 231.4 780.874 231.4C781.968 231.4 782.918 231.667 783.724 232.2C784.538 232.733 785.094 233.463 785.394 234.39L783.954 234.85C783.701 234.203 783.298 233.703 782.744 233.35C782.198 232.99 781.571 232.81 780.864 232.81C780.071 232.81 779.414 232.993 778.894 233.36C778.374 233.72 777.988 234.223 777.734 234.87C777.481 235.517 777.351 236.26 777.344 237.1C777.358 238.393 777.658 239.433 778.244 240.22C778.831 241 779.704 241.39 780.864 241.39C781.598 241.39 782.221 241.223 782.734 240.89C783.254 240.55 783.648 240.057 783.914 239.41L785.394 239.85C784.994 240.81 784.408 241.543 783.634 242.05C782.861 242.55 781.938 242.8 780.864 242.8ZM793.339 242.5C792.732 242.627 792.132 242.677 791.539 242.65C790.952 242.623 790.425 242.497 789.959 242.27C789.499 242.043 789.149 241.69 788.909 241.21C788.715 240.81 788.609 240.407 788.589 240C788.575 239.587 788.569 239.117 788.569 238.59V228.7H790.029V238.53C790.029 238.983 790.032 239.363 790.039 239.67C790.052 239.97 790.122 240.237 790.249 240.47C790.489 240.917 790.869 241.183 791.389 241.27C791.915 241.357 792.565 241.337 793.339 241.21V242.5ZM786.259 232.96V231.7H793.339V232.96H786.259ZM795.666 229.65V228H797.136V229.65H795.666ZM795.666 242.5V231.7H797.136V242.5H795.666ZM804.644 242.8C803.571 242.8 802.654 242.557 801.894 242.07C801.134 241.583 800.551 240.91 800.144 240.05C799.738 239.19 799.534 238.203 799.534 237.09C799.534 235.957 799.741 234.963 800.154 234.11C800.568 233.257 801.154 232.593 801.914 232.12C802.681 231.64 803.591 231.4 804.644 231.4C805.724 231.4 806.644 231.643 807.404 232.13C808.171 232.61 808.754 233.28 809.154 234.14C809.561 234.993 809.764 235.977 809.764 237.09C809.764 238.223 809.561 239.22 809.154 240.08C808.748 240.933 808.161 241.6 807.394 242.08C806.628 242.56 805.711 242.8 804.644 242.8ZM804.644 241.39C805.844 241.39 806.738 240.993 807.324 240.2C807.911 239.4 808.204 238.363 808.204 237.09C808.204 235.783 807.908 234.743 807.314 233.97C806.728 233.197 805.838 232.81 804.644 232.81C803.838 232.81 803.171 232.993 802.644 233.36C802.124 233.72 801.734 234.223 801.474 234.87C801.221 235.51 801.094 236.25 801.094 237.09C801.094 238.39 801.394 239.433 801.994 240.22C802.594 241 803.478 241.39 804.644 241.39ZM819.77 242.5V236.99C819.77 236.39 819.714 235.84 819.6 235.34C819.487 234.833 819.304 234.393 819.05 234.02C818.804 233.64 818.48 233.347 818.08 233.14C817.687 232.933 817.207 232.83 816.64 232.83C816.12 232.83 815.66 232.92 815.26 233.1C814.867 233.28 814.534 233.54 814.26 233.88C813.994 234.213 813.79 234.62 813.65 235.1C813.51 235.58 813.44 236.127 813.44 236.74L812.4 236.51C812.4 235.403 812.594 234.473 812.98 233.72C813.367 232.967 813.9 232.397 814.58 232.01C815.26 231.623 816.04 231.43 816.92 231.43C817.567 231.43 818.13 231.53 818.61 231.73C819.097 231.93 819.507 232.2 819.84 232.54C820.18 232.88 820.454 233.27 820.66 233.71C820.867 234.143 821.017 234.607 821.11 235.1C821.204 235.587 821.25 236.073 821.25 236.56V242.5H819.77ZM811.96 242.5V231.7H813.29V234.36H813.44V242.5H811.96ZM827.485 228.1H828.995L825.155 242.5H823.645L827.485 228.1ZM835.173 242.8C834.12 242.8 833.206 242.567 832.433 242.1C831.666 241.633 831.07 240.977 830.643 240.13C830.216 239.283 830.003 238.29 830.003 237.15C830.003 235.97 830.213 234.95 830.633 234.09C831.053 233.23 831.643 232.567 832.403 232.1C833.17 231.633 834.073 231.4 835.113 231.4C836.18 231.4 837.09 231.647 837.843 232.14C838.596 232.627 839.166 233.327 839.553 234.24C839.94 235.153 840.116 236.243 840.083 237.51H838.583V236.99C838.556 235.59 838.253 234.533 837.673 233.82C837.1 233.107 836.26 232.75 835.153 232.75C833.993 232.75 833.103 233.127 832.483 233.88C831.87 234.633 831.563 235.707 831.563 237.1C831.563 238.46 831.87 239.517 832.483 240.27C833.103 241.017 833.98 241.39 835.113 241.39C835.886 241.39 836.56 241.213 837.133 240.86C837.713 240.5 838.17 239.983 838.503 239.31L839.873 239.84C839.446 240.78 838.816 241.51 837.983 242.03C837.156 242.543 836.22 242.8 835.173 242.8ZM831.043 237.51V236.28H839.293V237.51H831.043ZM849.809 242.5V236.99C849.809 236.39 849.753 235.84 849.639 235.34C849.526 234.833 849.343 234.393 849.089 234.02C848.843 233.64 848.519 233.347 848.119 233.14C847.726 232.933 847.246 232.83 846.679 232.83C846.159 232.83 845.699 232.92 845.299 233.1C844.906 233.28 844.573 233.54 844.299 233.88C844.033 234.213 843.829 234.62 843.689 235.1C843.549 235.58 843.479 236.127 843.479 236.74L842.439 236.51C842.439 235.403 842.633 234.473 843.019 233.72C843.406 232.967 843.939 232.397 844.619 232.01C845.299 231.623 846.079 231.43 846.959 231.43C847.606 231.43 848.169 231.53 848.649 231.73C849.136 231.93 849.546 232.2 849.879 232.54C850.219 232.88 850.493 233.27 850.699 233.71C850.906 234.143 851.056 234.607 851.149 235.1C851.243 235.587 851.289 236.073 851.289 236.56V242.5H849.809ZM841.999 242.5V231.7H843.329V234.36H843.479V242.5H841.999ZM856.974 242.8C856.161 242.8 855.478 242.653 854.924 242.36C854.378 242.067 853.968 241.677 853.694 241.19C853.421 240.703 853.284 240.173 853.284 239.6C853.284 239.013 853.401 238.513 853.634 238.1C853.874 237.68 854.198 237.337 854.604 237.07C855.018 236.803 855.494 236.6 856.034 236.46C856.581 236.327 857.184 236.21 857.844 236.11C858.511 236.003 859.161 235.913 859.794 235.84C860.434 235.76 860.994 235.683 861.474 235.61L860.954 235.93C860.974 234.863 860.768 234.073 860.334 233.56C859.901 233.047 859.148 232.79 858.074 232.79C857.334 232.79 856.708 232.957 856.194 233.29C855.688 233.623 855.331 234.15 855.124 234.87L853.694 234.45C853.941 233.483 854.438 232.733 855.184 232.2C855.931 231.667 856.901 231.4 858.094 231.4C859.081 231.4 859.918 231.587 860.604 231.96C861.298 232.327 861.788 232.86 862.074 233.56C862.208 233.873 862.294 234.223 862.334 234.61C862.374 234.997 862.394 235.39 862.394 235.79V242.5H861.084V239.79L861.464 239.95C861.098 240.877 860.528 241.583 859.754 242.07C858.981 242.557 858.054 242.8 856.974 242.8ZM857.144 241.53C857.831 241.53 858.431 241.407 858.944 241.16C859.458 240.913 859.871 240.577 860.184 240.15C860.498 239.717 860.701 239.23 860.794 238.69C860.874 238.343 860.918 237.963 860.924 237.55C860.931 237.13 860.934 236.817 860.934 236.61L861.494 236.9C860.994 236.967 860.451 237.033 859.864 237.1C859.284 237.167 858.711 237.243 858.144 237.33C857.584 237.417 857.078 237.52 856.624 237.64C856.318 237.727 856.021 237.85 855.734 238.01C855.448 238.163 855.211 238.37 855.024 238.63C854.844 238.89 854.754 239.213 854.754 239.6C854.754 239.913 854.831 240.217 854.984 240.51C855.144 240.803 855.398 241.047 855.744 241.24C856.098 241.433 856.564 241.53 857.144 241.53ZM869.848 242.8C868.854 242.8 868.014 242.55 867.328 242.05C866.641 241.543 866.121 240.86 865.768 240C865.414 239.133 865.238 238.163 865.238 237.09C865.238 235.997 865.414 235.023 865.768 234.17C866.128 233.31 866.654 232.633 867.348 232.14C868.041 231.647 868.894 231.4 869.908 231.4C870.894 231.4 871.741 231.65 872.448 232.15C873.154 232.65 873.694 233.33 874.068 234.19C874.448 235.05 874.638 236.017 874.638 237.09C874.638 238.17 874.448 239.14 874.068 240C873.688 240.86 873.141 241.543 872.428 242.05C871.714 242.55 870.854 242.8 869.848 242.8ZM864.988 242.5V228.1H866.468V234.37H866.308V242.5H864.988ZM869.698 241.43C870.451 241.43 871.078 241.24 871.578 240.86C872.078 240.48 872.451 239.963 872.698 239.31C872.951 238.65 873.078 237.91 873.078 237.09C873.078 236.277 872.954 235.543 872.708 234.89C872.461 234.237 872.084 233.72 871.578 233.34C871.078 232.96 870.441 232.77 869.668 232.77C868.914 232.77 868.288 232.953 867.788 233.32C867.294 233.687 866.924 234.197 866.678 234.85C866.431 235.497 866.308 236.243 866.308 237.09C866.308 237.923 866.431 238.67 866.678 239.33C866.924 239.983 867.298 240.497 867.798 240.87C868.298 241.243 868.931 241.43 869.698 241.43ZM877.034 242.5V227.8H878.504V242.5H877.034ZM886.072 242.8C885.018 242.8 884.105 242.567 883.332 242.1C882.565 241.633 881.968 240.977 881.542 240.13C881.115 239.283 880.902 238.29 880.902 237.15C880.902 235.97 881.112 234.95 881.532 234.09C881.952 233.23 882.542 232.567 883.302 232.1C884.068 231.633 884.972 231.4 886.012 231.4C887.078 231.4 887.988 231.647 888.742 232.14C889.495 232.627 890.065 233.327 890.452 234.24C890.838 235.153 891.015 236.243 890.982 237.51H889.482V236.99C889.455 235.59 889.152 234.533 888.572 233.82C887.998 233.107 887.158 232.75 886.052 232.75C884.892 232.75 884.002 233.127 883.382 233.88C882.768 234.633 882.462 235.707 882.462 237.1C882.462 238.46 882.768 239.517 883.382 240.27C884.002 241.017 884.878 241.39 886.012 241.39C886.785 241.39 887.458 241.213 888.032 240.86C888.612 240.5 889.068 239.983 889.402 239.31L890.772 239.84C890.345 240.78 889.715 241.51 888.882 242.03C888.055 242.543 887.118 242.8 886.072 242.8ZM881.942 237.51V236.28H890.192V237.51H881.942ZM897.391 242.8C896.384 242.8 895.524 242.55 894.811 242.05C894.097 241.543 893.551 240.86 893.171 240C892.791 239.14 892.601 238.17 892.601 237.09C892.601 236.017 892.787 235.05 893.161 234.19C893.541 233.33 894.084 232.65 894.791 232.15C895.497 231.65 896.344 231.4 897.331 231.4C898.344 231.4 899.197 231.647 899.891 232.14C900.584 232.633 901.107 233.31 901.461 234.17C901.821 235.023 902.001 235.997 902.001 237.09C902.001 238.163 901.824 239.133 901.471 240C901.117 240.86 900.597 241.543 899.911 242.05C899.224 242.55 898.384 242.8 897.391 242.8ZM897.541 241.43C898.307 241.43 898.941 241.243 899.441 240.87C899.941 240.497 900.314 239.983 900.561 239.33C900.807 238.67 900.931 237.923 900.931 237.09C900.931 236.243 900.807 235.497 900.561 234.85C900.314 234.197 899.941 233.687 899.441 233.32C898.947 232.953 898.324 232.77 897.571 232.77C896.797 232.77 896.157 232.96 895.651 233.34C895.144 233.72 894.767 234.237 894.521 234.89C894.281 235.543 894.161 236.277 894.161 237.09C894.161 237.91 894.284 238.65 894.531 239.31C894.784 239.963 895.161 240.48 895.661 240.86C896.161 241.24 896.787 241.43 897.541 241.43ZM900.931 242.5V234.37H900.771V228.1H902.251V242.5H900.931Z" fill="black"/>
<path d="M141.264 38.208C141.84 38.208 142.288 38.336 142.608 38.592C142.928 38.832 143.152 39.144 143.28 39.528C143.408 39.896 143.472 40.264 143.472 40.632C143.472 41.352 143.264 41.928 142.848 42.36C142.448 42.776 141.92 42.984 141.264 42.984C140.56 42.984 140.024 42.824 139.656 42.504C139.304 42.184 139.128 41.768 139.128 41.256C139.128 40.712 139.24 40.264 139.464 39.912C139.704 39.56 140 39.264 140.352 39.024C140.064 39.024 139.808 39.08 139.584 39.192C139.392 39.272 139.208 39.384 139.032 39.528C138.856 39.672 138.704 39.84 138.576 40.032C138.448 40.208 138.344 40.408 138.264 40.632C138.2 40.856 138.168 41.088 138.168 41.328V48.528C138.168 49.296 138.328 49.816 138.648 50.088C138.968 50.36 139.496 50.496 140.232 50.496V51C139.864 50.984 139.312 50.968 138.576 50.952C137.856 50.92 137.112 50.904 136.344 50.904C135.624 50.904 134.896 50.92 134.16 50.952C133.424 50.968 132.872 50.984 132.504 51V50.496C133 50.496 133.344 50.376 133.536 50.136C133.744 49.896 133.848 49.44 133.848 48.768V41.16C133.848 40.44 133.752 39.912 133.56 39.576C133.368 39.224 133.016 39.048 132.504 39.048V38.544C133.016 38.592 133.512 38.616 133.992 38.616C134.792 38.616 135.536 38.592 136.224 38.544C136.928 38.48 137.576 38.392 138.168 38.28V40.008C138.376 39.592 138.632 39.256 138.936 39C139.24 38.728 139.584 38.528 139.968 38.4C140.368 38.272 140.8 38.208 141.264 38.208ZM147.299 51.168C146.547 51.168 145.931 51.024 145.451 50.736C144.971 50.448 144.619 50.072 144.395 49.608C144.187 49.144 144.083 48.656 144.083 48.144C144.083 47.472 144.235 46.928 144.539 46.512C144.843 46.08 145.235 45.736 145.715 45.48C146.211 45.208 146.731 44.984 147.275 44.808C147.819 44.632 148.331 44.464 148.811 44.304C149.307 44.128 149.707 43.928 150.011 43.704C150.315 43.464 150.467 43.16 150.467 42.792V40.656C150.467 40.4 150.419 40.12 150.323 39.816C150.243 39.512 150.083 39.248 149.843 39.024C149.603 38.8 149.243 38.688 148.763 38.688C148.507 38.688 148.259 38.728 148.019 38.808C147.795 38.872 147.595 38.968 147.419 39.096C147.979 39.304 148.387 39.6 148.643 39.984C148.899 40.352 149.027 40.76 149.027 41.208C149.027 41.848 148.803 42.352 148.355 42.72C147.907 43.088 147.379 43.272 146.771 43.272C146.131 43.272 145.635 43.072 145.283 42.672C144.931 42.272 144.755 41.776 144.755 41.184C144.755 40.688 144.875 40.272 145.115 39.936C145.371 39.584 145.747 39.264 146.243 38.976C146.723 38.704 147.299 38.512 147.971 38.4C148.643 38.272 149.347 38.208 150.083 38.208C150.867 38.208 151.595 38.288 152.267 38.448C152.939 38.592 153.515 38.912 153.995 39.408C154.331 39.76 154.547 40.2 154.643 40.728C154.739 41.256 154.787 41.936 154.787 42.768V49.2C154.787 49.6 154.811 49.872 154.859 50.016C154.923 50.16 155.027 50.232 155.171 50.232C155.299 50.232 155.419 50.192 155.531 50.112C155.659 50.032 155.779 49.952 155.891 49.872L156.131 50.28C155.779 50.584 155.339 50.808 154.811 50.952C154.299 51.096 153.755 51.168 153.179 51.168C152.491 51.168 151.955 51.088 151.571 50.928C151.203 50.752 150.939 50.528 150.779 50.256C150.635 49.968 150.555 49.664 150.539 49.344C150.203 49.872 149.779 50.312 149.267 50.664C148.771 51 148.115 51.168 147.299 51.168ZM149.579 49.248C149.755 49.248 149.907 49.224 150.035 49.176C150.179 49.112 150.323 49 150.467 48.84V43.776C150.355 43.984 150.203 44.192 150.011 44.4C149.835 44.592 149.651 44.792 149.459 45C149.267 45.208 149.083 45.432 148.907 45.672C148.747 45.912 148.611 46.192 148.499 46.512C148.403 46.816 148.355 47.176 148.355 47.592C148.355 48.2 148.467 48.632 148.691 48.888C148.931 49.128 149.227 49.248 149.579 49.248ZM163.128 38.544V39.048C162.792 39.048 162.504 39.072 162.264 39.12C162.04 39.152 161.888 39.232 161.808 39.36C161.728 39.488 161.72 39.688 161.784 39.96L163.92 47.088L163.512 47.64L165.84 38.568L166.344 38.832L163.152 51C162.768 50.968 162.376 50.952 161.976 50.952C161.592 50.952 161.208 50.968 160.824 51L157.128 40.392C156.904 39.752 156.656 39.368 156.384 39.24C156.128 39.112 155.912 39.048 155.736 39.048V38.544C156.376 38.592 157.04 38.632 157.728 38.664C158.416 38.68 159.176 38.688 160.008 38.688C160.504 38.688 161.024 38.672 161.568 38.64C162.128 38.608 162.648 38.576 163.128 38.544ZM175.224 38.544V39.048C174.92 39.16 174.624 39.376 174.336 39.696C174.048 40.016 173.776 40.576 173.52 41.376L170.52 51C170.136 50.968 169.744 50.952 169.344 50.952C168.96 50.952 168.576 50.968 168.192 51L165.144 42.144L165.864 38.568C166.28 38.6 166.704 38.616 167.136 38.616C167.568 38.6 167.992 38.584 168.408 38.568L171.384 48.12L171.072 47.592L172.176 43.92C172.512 42.816 172.64 41.92 172.56 41.232C172.48 40.528 172.264 40 171.912 39.648C171.56 39.296 171.128 39.096 170.616 39.048V38.544C170.84 38.56 171.128 38.576 171.48 38.592C171.848 38.608 172.208 38.624 172.56 38.64C172.912 38.64 173.184 38.64 173.376 38.64C173.664 38.64 174 38.632 174.384 38.616C174.768 38.6 175.048 38.576 175.224 38.544Z" fill="black"/>
<path d="M324.096 38.304V52.872C324.096 53.656 324.28 54.176 324.648 54.432C325.016 54.704 325.52 54.84 326.16 54.84V55.344C325.712 55.328 325.088 55.304 324.288 55.272C323.488 55.256 322.64 55.248 321.744 55.248C321.104 55.248 320.472 55.256 319.848 55.272C319.224 55.304 318.752 55.328 318.432 55.344V54.84C318.928 54.84 319.272 54.72 319.464 54.48C319.672 54.24 319.776 53.784 319.776 53.112V41.184C319.776 40.464 319.68 39.936 319.488 39.6C319.296 39.248 318.944 39.072 318.432 39.072V38.568C318.944 38.616 319.44 38.64 319.92 38.64C320.72 38.64 321.464 38.616 322.152 38.568C322.856 38.504 323.504 38.416 324.096 38.304ZM327.744 38.208C328.544 38.208 329.256 38.432 329.88 38.88C330.504 39.312 331 39.976 331.368 40.872C331.736 41.752 331.92 42.872 331.92 44.232C331.92 45.592 331.768 46.728 331.464 47.64C331.176 48.552 330.768 49.28 330.24 49.824C329.728 50.368 329.136 50.76 328.464 51C327.792 51.224 327.08 51.336 326.328 51.336C325.784 51.336 325.264 51.272 324.768 51.144C324.288 51.032 323.888 50.808 323.568 50.472L323.808 50.16C323.936 50.336 324.104 50.456 324.312 50.52C324.52 50.584 324.728 50.616 324.936 50.616C325.528 50.616 326.008 50.4 326.376 49.968C326.744 49.536 327.008 48.888 327.168 48.024C327.344 47.16 327.432 46.08 327.432 44.784C327.432 43.36 327.36 42.264 327.216 41.496C327.072 40.728 326.88 40.2 326.64 39.912C326.4 39.608 326.128 39.456 325.824 39.456C325.376 39.456 324.976 39.616 324.624 39.936C324.272 40.256 324.096 40.672 324.096 41.184V40.008C324.464 39.4 324.96 38.952 325.584 38.664C326.208 38.36 326.928 38.208 327.744 38.208ZM341.959 38.208C342.535 38.208 342.983 38.336 343.303 38.592C343.623 38.832 343.847 39.144 343.975 39.528C344.103 39.896 344.167 40.264 344.167 40.632C344.167 41.352 343.959 41.928 343.543 42.36C343.143 42.776 342.615 42.984 341.959 42.984C341.255 42.984 340.719 42.824 340.351 42.504C339.999 42.184 339.823 41.768 339.823 41.256C339.823 40.712 339.935 40.264 340.159 39.912C340.399 39.56 340.695 39.264 341.047 39.024C340.759 39.024 340.503 39.08 340.279 39.192C340.087 39.272 339.903 39.384 339.727 39.528C339.551 39.672 339.399 39.84 339.271 40.032C339.143 40.208 339.039 40.408 338.959 40.632C338.895 40.856 338.863 41.088 338.863 41.328V48.528C338.863 49.296 339.023 49.816 339.343 50.088C339.663 50.36 340.191 50.496 340.927 50.496V51C340.559 50.984 340.007 50.968 339.271 50.952C338.551 50.92 337.807 50.904 337.039 50.904C336.319 50.904 335.591 50.92 334.855 50.952C334.119 50.968 333.567 50.984 333.199 51V50.496C333.695 50.496 334.039 50.376 334.231 50.136C334.439 49.896 334.543 49.44 334.543 48.768V41.16C334.543 40.44 334.447 39.912 334.255 39.576C334.063 39.224 333.711 39.048 333.199 39.048V38.544C333.711 38.592 334.207 38.616 334.687 38.616C335.487 38.616 336.231 38.592 336.919 38.544C337.623 38.48 338.271 38.392 338.863 38.28V40.008C339.071 39.592 339.327 39.256 339.631 39C339.935 38.728 340.279 38.528 340.663 38.4C341.063 38.272 341.495 38.208 341.959 38.208ZM348.114 32.232C348.946 32.232 349.586 32.408 350.034 32.76C350.498 33.096 350.73 33.608 350.73 34.296C350.73 34.984 350.498 35.504 350.034 35.856C349.586 36.192 348.946 36.36 348.114 36.36C347.282 36.36 346.634 36.192 346.17 35.856C345.722 35.504 345.498 34.984 345.498 34.296C345.498 33.608 345.722 33.096 346.17 32.76C346.634 32.408 347.282 32.232 348.114 32.232ZM350.418 38.28V48.768C350.418 49.44 350.514 49.896 350.706 50.136C350.914 50.376 351.266 50.496 351.762 50.496V51C351.442 50.984 350.962 50.968 350.322 50.952C349.682 50.92 349.026 50.904 348.354 50.904C347.682 50.904 347.002 50.92 346.314 50.952C345.626 50.968 345.106 50.984 344.754 51V50.496C345.25 50.496 345.594 50.376 345.786 50.136C345.994 49.896 346.098 49.44 346.098 48.768V41.16C346.098 40.44 346.002 39.912 345.81 39.576C345.618 39.224 345.266 39.048 344.754 39.048V38.544C345.266 38.592 345.762 38.616 346.242 38.616C347.042 38.616 347.786 38.592 348.474 38.544C349.178 38.48 349.826 38.392 350.418 38.28ZM361.916 38.208C362.652 38.208 363.228 38.304 363.644 38.496C364.076 38.672 364.404 38.896 364.628 39.168C364.868 39.456 365.044 39.84 365.156 40.32C365.268 40.8 365.324 41.448 365.324 42.264V48.768C365.324 49.44 365.404 49.896 365.564 50.136C365.724 50.376 366.012 50.496 366.428 50.496V51C366.124 50.984 365.668 50.968 365.06 50.952C364.468 50.92 363.884 50.904 363.308 50.904C362.684 50.904 362.076 50.92 361.484 50.952C360.892 50.968 360.444 50.984 360.14 51V50.496C360.46 50.496 360.684 50.376 360.812 50.136C360.94 49.896 361.004 49.44 361.004 48.768V40.968C361.004 40.632 360.972 40.352 360.908 40.128C360.844 39.904 360.74 39.736 360.596 39.624C360.468 39.512 360.292 39.456 360.068 39.456C359.78 39.456 359.5 39.528 359.228 39.672C358.972 39.816 358.756 40.024 358.58 40.296C358.42 40.552 358.34 40.848 358.34 41.184V48.768C358.34 49.44 358.404 49.896 358.532 50.136C358.66 50.376 358.884 50.496 359.204 50.496V51C358.932 50.984 358.516 50.968 357.956 50.952C357.412 50.92 356.852 50.904 356.276 50.904C355.604 50.904 354.924 50.92 354.236 50.952C353.548 50.968 353.028 50.984 352.676 51V50.496C353.172 50.496 353.516 50.376 353.708 50.136C353.916 49.896 354.02 49.44 354.02 48.768V41.16C354.02 40.44 353.924 39.912 353.732 39.576C353.54 39.224 353.188 39.048 352.676 39.048V38.544C353.188 38.592 353.684 38.616 354.164 38.616C354.964 38.616 355.708 38.592 356.396 38.544C357.1 38.48 357.748 38.392 358.34 38.28V40.008C358.708 39.368 359.196 38.912 359.804 38.64C360.412 38.352 361.116 38.208 361.916 38.208ZM369.14 38.208C369.876 38.208 370.452 38.304 370.868 38.496C371.3 38.672 371.628 38.896 371.852 39.168C372.092 39.456 372.268 39.84 372.38 40.32C372.492 40.8 372.548 41.448 372.548 42.264V48.768C372.548 49.44 372.644 49.896 372.836 50.136C373.044 50.376 373.396 50.496 373.892 50.496V51C373.572 50.984 373.084 50.968 372.428 50.952C371.788 50.92 371.156 50.904 370.532 50.904C369.908 50.904 369.3 50.92 368.708 50.952C368.116 50.968 367.668 50.984 367.364 51V50.496C367.684 50.496 367.908 50.376 368.036 50.136C368.164 49.896 368.228 49.44 368.228 48.768V40.968C368.228 40.632 368.188 40.352 368.108 40.128C368.028 39.904 367.9 39.736 367.724 39.624C367.564 39.512 367.34 39.456 367.052 39.456C366.764 39.456 366.484 39.544 366.212 39.72C365.956 39.896 365.74 40.128 365.564 40.416C365.404 40.688 365.308 40.992 365.276 41.328L365.108 40.368C365.54 39.52 366.1 38.952 366.788 38.664C367.492 38.36 368.276 38.208 369.14 38.208ZM378.02 32.232C378.852 32.232 379.492 32.408 379.94 32.76C380.404 33.096 380.636 33.608 380.636 34.296C380.636 34.984 380.404 35.504 379.94 35.856C379.492 36.192 378.852 36.36 378.02 36.36C377.188 36.36 376.54 36.192 376.076 35.856C375.628 35.504 375.404 34.984 375.404 34.296C375.404 33.608 375.628 33.096 376.076 32.76C376.54 32.408 377.188 32.232 378.02 32.232ZM380.324 38.28V48.768C380.324 49.44 380.42 49.896 380.612 50.136C380.82 50.376 381.172 50.496 381.668 50.496V51C381.348 50.984 380.868 50.968 380.228 50.952C379.588 50.92 378.932 50.904 378.26 50.904C377.588 50.904 376.908 50.92 376.22 50.952C375.532 50.968 375.012 50.984 374.66 51V50.496C375.156 50.496 375.5 50.376 375.692 50.136C375.9 49.896 376.004 49.44 376.004 48.768V41.16C376.004 40.44 375.908 39.912 375.716 39.576C375.524 39.224 375.172 39.048 374.66 39.048V38.544C375.172 38.592 375.668 38.616 376.148 38.616C376.948 38.616 377.692 38.592 378.38 38.544C379.084 38.48 379.732 38.392 380.324 38.28ZM388.126 34.656V38.544H390.478V39.024H388.126V48.984C388.126 49.288 388.182 49.512 388.294 49.656C388.406 49.784 388.59 49.848 388.846 49.848C389.022 49.848 389.23 49.8 389.47 49.704C389.71 49.592 389.934 49.408 390.142 49.152L390.502 49.44C390.166 50.016 389.718 50.48 389.158 50.832C388.614 51.168 387.926 51.336 387.094 51.336C386.566 51.336 386.086 51.264 385.654 51.12C385.238 50.992 384.894 50.792 384.622 50.52C384.27 50.168 384.046 49.736 383.95 49.224C383.854 48.696 383.806 48.016 383.806 47.184V39.024H381.982V38.544H383.806V35.712C384.654 35.712 385.422 35.632 386.11 35.472C386.814 35.296 387.486 35.024 388.126 34.656ZM394.333 32.232C395.165 32.232 395.805 32.408 396.253 32.76C396.717 33.096 396.949 33.608 396.949 34.296C396.949 34.984 396.717 35.504 396.253 35.856C395.805 36.192 395.165 36.36 394.333 36.36C393.501 36.36 392.853 36.192 392.389 35.856C391.941 35.504 391.717 34.984 391.717 34.296C391.717 33.608 391.941 33.096 392.389 32.76C392.853 32.408 393.501 32.232 394.333 32.232ZM396.637 38.28V48.768C396.637 49.44 396.733 49.896 396.925 50.136C397.133 50.376 397.485 50.496 397.981 50.496V51C397.661 50.984 397.181 50.968 396.541 50.952C395.901 50.92 395.245 50.904 394.573 50.904C393.901 50.904 393.221 50.92 392.533 50.952C391.845 50.968 391.325 50.984 390.973 51V50.496C391.469 50.496 391.813 50.376 392.005 50.136C392.213 49.896 392.317 49.44 392.317 48.768V41.16C392.317 40.44 392.221 39.912 392.029 39.576C391.837 39.224 391.485 39.048 390.973 39.048V38.544C391.485 38.592 391.981 38.616 392.461 38.616C393.261 38.616 394.005 38.592 394.693 38.544C395.397 38.48 396.045 38.392 396.637 38.28ZM410.754 38.544V39.048C410.45 39.16 410.154 39.384 409.866 39.72C409.594 40.04 409.322 40.592 409.05 41.376L405.81 51C405.426 50.968 405.034 50.952 404.634 50.952C404.25 50.952 403.866 50.968 403.482 51L399.306 40.392C399.066 39.784 398.818 39.408 398.562 39.264C398.306 39.12 398.09 39.048 397.914 39.048V38.544C398.554 38.592 399.218 38.632 399.906 38.664C400.594 38.68 401.354 38.688 402.186 38.688C402.682 38.688 403.202 38.672 403.746 38.64C404.306 38.608 404.826 38.576 405.306 38.544V39.048C405.018 39.048 404.754 39.064 404.514 39.096C404.29 39.112 404.122 39.184 404.01 39.312C403.914 39.424 403.898 39.64 403.962 39.96L406.65 47.448L406.338 47.928L407.682 43.92C408.05 42.832 408.202 41.936 408.138 41.232C408.09 40.528 407.906 40 407.586 39.648C407.266 39.28 406.866 39.08 406.386 39.048V38.544C406.61 38.56 406.882 38.576 407.202 38.592C407.522 38.608 407.834 38.624 408.138 38.64C408.458 38.64 408.714 38.64 408.906 38.64C409.194 38.64 409.53 38.632 409.914 38.616C410.298 38.6 410.578 38.576 410.754 38.544ZM417.185 38.208C418.593 38.208 419.697 38.624 420.497 39.456C421.313 40.272 421.721 41.648 421.721 43.584H414.209L414.161 43.128H418.217C418.233 42.344 418.201 41.624 418.121 40.968C418.041 40.296 417.913 39.76 417.737 39.36C417.561 38.96 417.321 38.76 417.017 38.76C416.585 38.76 416.233 39.104 415.961 39.792C415.689 40.464 415.513 41.624 415.433 43.272L415.529 43.464C415.513 43.624 415.505 43.784 415.505 43.944C415.505 44.104 415.505 44.272 415.505 44.448C415.505 45.568 415.641 46.44 415.913 47.064C416.201 47.688 416.553 48.12 416.969 48.36C417.401 48.6 417.833 48.72 418.265 48.72C418.489 48.72 418.753 48.688 419.057 48.624C419.377 48.56 419.721 48.416 420.089 48.192C420.457 47.952 420.817 47.592 421.169 47.112L421.577 47.256C421.385 47.896 421.073 48.536 420.641 49.176C420.225 49.8 419.681 50.32 419.009 50.736C418.337 51.136 417.521 51.336 416.561 51.336C415.537 51.336 414.601 51.128 413.753 50.712C412.921 50.296 412.257 49.608 411.761 48.648C411.265 47.688 411.017 46.4 411.017 44.784C411.017 43.248 411.289 42 411.833 41.04C412.377 40.064 413.113 39.352 414.041 38.904C414.985 38.44 416.033 38.208 417.185 38.208Z" fill="black"/>
<path d="M540.544 38.208C541.248 38.208 541.864 38.288 542.392 38.448C542.936 38.592 543.328 38.728 543.568 38.856C544.128 39.192 544.472 38.984 544.6 38.232H545.08C545.048 38.696 545.024 39.264 545.008 39.936C544.992 40.592 544.984 41.464 544.984 42.552H544.504C544.44 41.96 544.296 41.376 544.072 40.8C543.864 40.224 543.552 39.744 543.136 39.36C542.736 38.976 542.208 38.784 541.552 38.784C541.152 38.784 540.816 38.904 540.544 39.144C540.272 39.384 540.136 39.712 540.136 40.128C540.136 40.608 540.28 41.04 540.568 41.424C540.856 41.792 541.224 42.152 541.672 42.504C542.12 42.84 542.568 43.2 543.016 43.584C543.512 43.984 543.952 44.376 544.336 44.76C544.72 45.144 545.024 45.568 545.248 46.032C545.488 46.48 545.608 47.016 545.608 47.64C545.608 48.36 545.384 49 544.936 49.56C544.504 50.12 543.92 50.56 543.184 50.88C542.464 51.184 541.656 51.336 540.76 51.336C540.2 51.336 539.712 51.272 539.296 51.144C538.88 51.032 538.544 50.896 538.288 50.736C538.032 50.608 537.808 50.512 537.616 50.448C537.44 50.368 537.264 50.328 537.088 50.328C536.928 50.328 536.792 50.416 536.68 50.592C536.568 50.752 536.48 50.944 536.416 51.168H535.936C535.968 50.656 535.992 50.032 536.008 49.296C536.024 48.56 536.032 47.584 536.032 46.368H536.512C536.608 47.216 536.792 47.968 537.064 48.624C537.352 49.28 537.712 49.8 538.144 50.184C538.592 50.552 539.104 50.736 539.68 50.736C539.936 50.736 540.168 50.688 540.376 50.592C540.584 50.496 540.752 50.352 540.88 50.16C541.008 49.968 541.072 49.72 541.072 49.416C541.072 48.712 540.856 48.12 540.424 47.64C540.008 47.16 539.48 46.632 538.84 46.056C538.36 45.608 537.904 45.176 537.472 44.76C537.056 44.328 536.712 43.864 536.44 43.368C536.168 42.856 536.032 42.288 536.032 41.664C536.032 40.944 536.24 40.328 536.656 39.816C537.088 39.304 537.648 38.912 538.336 38.64C539.024 38.352 539.76 38.208 540.544 38.208ZM553.232 38.208C554.64 38.208 555.744 38.624 556.544 39.456C557.36 40.272 557.768 41.648 557.768 43.584H550.256L550.208 43.128H554.264C554.28 42.344 554.248 41.624 554.168 40.968C554.088 40.296 553.96 39.76 553.784 39.36C553.608 38.96 553.368 38.76 553.064 38.76C552.632 38.76 552.28 39.104 552.008 39.792C551.736 40.464 551.56 41.624 551.48 43.272L551.576 43.464C551.56 43.624 551.552 43.784 551.552 43.944C551.552 44.104 551.552 44.272 551.552 44.448C551.552 45.568 551.688 46.44 551.96 47.064C552.248 47.688 552.6 48.12 553.016 48.36C553.448 48.6 553.88 48.72 554.312 48.72C554.536 48.72 554.8 48.688 555.104 48.624C555.424 48.56 555.768 48.416 556.136 48.192C556.504 47.952 556.864 47.592 557.216 47.112L557.624 47.256C557.432 47.896 557.12 48.536 556.688 49.176C556.272 49.8 555.728 50.32 555.056 50.736C554.384 51.136 553.568 51.336 552.608 51.336C551.584 51.336 550.648 51.128 549.8 50.712C548.968 50.296 548.304 49.608 547.808 48.648C547.312 47.688 547.064 46.4 547.064 44.784C547.064 43.248 547.336 42 547.88 41.04C548.424 40.064 549.16 39.352 550.088 38.904C551.032 38.44 552.08 38.208 553.232 38.208ZM567.9 38.208C568.636 38.208 569.212 38.304 569.628 38.496C570.06 38.672 570.388 38.896 570.612 39.168C570.852 39.456 571.028 39.84 571.14 40.32C571.252 40.8 571.308 41.448 571.308 42.264V48.768C571.308 49.44 571.388 49.896 571.548 50.136C571.708 50.376 571.996 50.496 572.412 50.496V51C572.108 50.984 571.652 50.968 571.044 50.952C570.452 50.92 569.868 50.904 569.292 50.904C568.668 50.904 568.06 50.92 567.468 50.952C566.876 50.968 566.428 50.984 566.124 51V50.496C566.444 50.496 566.668 50.376 566.796 50.136C566.924 49.896 566.988 49.44 566.988 48.768V40.968C566.988 40.632 566.956 40.352 566.892 40.128C566.828 39.904 566.724 39.736 566.58 39.624C566.452 39.512 566.276 39.456 566.052 39.456C565.764 39.456 565.484 39.528 565.212 39.672C564.956 39.816 564.74 40.024 564.564 40.296C564.404 40.552 564.324 40.848 564.324 41.184V48.768C564.324 49.44 564.388 49.896 564.516 50.136C564.644 50.376 564.868 50.496 565.188 50.496V51C564.916 50.984 564.5 50.968 563.94 50.952C563.396 50.92 562.836 50.904 562.26 50.904C561.588 50.904 560.908 50.92 560.22 50.952C559.532 50.968 559.012 50.984 558.66 51V50.496C559.156 50.496 559.5 50.376 559.692 50.136C559.9 49.896 560.004 49.44 560.004 48.768V41.16C560.004 40.44 559.908 39.912 559.716 39.576C559.524 39.224 559.172 39.048 558.66 39.048V38.544C559.172 38.592 559.668 38.616 560.148 38.616C560.948 38.616 561.692 38.592 562.38 38.544C563.084 38.48 563.732 38.392 564.324 38.28V40.008C564.692 39.368 565.18 38.912 565.788 38.64C566.396 38.352 567.1 38.208 567.9 38.208ZM575.124 38.208C575.86 38.208 576.436 38.304 576.852 38.496C577.284 38.672 577.612 38.896 577.836 39.168C578.076 39.456 578.252 39.84 578.364 40.32C578.476 40.8 578.532 41.448 578.532 42.264V48.768C578.532 49.44 578.628 49.896 578.82 50.136C579.028 50.376 579.38 50.496 579.876 50.496V51C579.556 50.984 579.068 50.968 578.412 50.952C577.772 50.92 577.14 50.904 576.516 50.904C575.892 50.904 575.284 50.92 574.692 50.952C574.1 50.968 573.652 50.984 573.348 51V50.496C573.668 50.496 573.892 50.376 574.02 50.136C574.148 49.896 574.212 49.44 574.212 48.768V40.968C574.212 40.632 574.172 40.352 574.092 40.128C574.012 39.904 573.884 39.736 573.708 39.624C573.548 39.512 573.324 39.456 573.036 39.456C572.748 39.456 572.468 39.544 572.196 39.72C571.94 39.896 571.724 40.128 571.548 40.416C571.388 40.688 571.292 40.992 571.26 41.328L571.092 40.368C571.524 39.52 572.084 38.952 572.772 38.664C573.476 38.36 574.26 38.208 575.124 38.208ZM583.885 51.168C583.133 51.168 582.517 51.024 582.037 50.736C581.557 50.448 581.205 50.072 580.981 49.608C580.773 49.144 580.669 48.656 580.669 48.144C580.669 47.472 580.821 46.928 581.125 46.512C581.429 46.08 581.821 45.736 582.301 45.48C582.797 45.208 583.317 44.984 583.861 44.808C584.405 44.632 584.917 44.464 585.397 44.304C585.893 44.128 586.293 43.928 586.597 43.704C586.901 43.464 587.053 43.16 587.053 42.792V40.656C587.053 40.4 587.005 40.12 586.909 39.816C586.829 39.512 586.669 39.248 586.429 39.024C586.189 38.8 585.829 38.688 585.349 38.688C585.093 38.688 584.845 38.728 584.605 38.808C584.381 38.872 584.181 38.968 584.005 39.096C584.565 39.304 584.973 39.6 585.229 39.984C585.485 40.352 585.613 40.76 585.613 41.208C585.613 41.848 585.389 42.352 584.941 42.72C584.493 43.088 583.965 43.272 583.357 43.272C582.717 43.272 582.221 43.072 581.869 42.672C581.517 42.272 581.341 41.776 581.341 41.184C581.341 40.688 581.461 40.272 581.701 39.936C581.957 39.584 582.333 39.264 582.829 38.976C583.309 38.704 583.885 38.512 584.557 38.4C585.229 38.272 585.933 38.208 586.669 38.208C587.453 38.208 588.181 38.288 588.853 38.448C589.525 38.592 590.101 38.912 590.581 39.408C590.917 39.76 591.133 40.2 591.229 40.728C591.325 41.256 591.373 41.936 591.373 42.768V49.2C591.373 49.6 591.397 49.872 591.445 50.016C591.509 50.16 591.613 50.232 591.757 50.232C591.885 50.232 592.005 50.192 592.117 50.112C592.245 50.032 592.365 49.952 592.477 49.872L592.717 50.28C592.365 50.584 591.925 50.808 591.397 50.952C590.885 51.096 590.341 51.168 589.765 51.168C589.077 51.168 588.541 51.088 588.157 50.928C587.789 50.752 587.525 50.528 587.365 50.256C587.221 49.968 587.141 49.664 587.125 49.344C586.789 49.872 586.365 50.312 585.853 50.664C585.357 51 584.701 51.168 583.885 51.168ZM586.165 49.248C586.341 49.248 586.493 49.224 586.621 49.176C586.765 49.112 586.909 49 587.053 48.84V43.776C586.941 43.984 586.789 44.192 586.597 44.4C586.421 44.592 586.237 44.792 586.045 45C585.853 45.208 585.669 45.432 585.493 45.672C585.333 45.912 585.197 46.192 585.085 46.512C584.989 46.816 584.941 47.176 584.941 47.592C584.941 48.2 585.053 48.632 585.277 48.888C585.517 49.128 585.813 49.248 586.165 49.248ZM602.875 38.208C603.611 38.208 604.187 38.304 604.603 38.496C605.035 38.672 605.363 38.896 605.587 39.168C605.827 39.456 606.003 39.84 606.115 40.32C606.227 40.8 606.283 41.448 606.283 42.264V48.768C606.283 49.44 606.379 49.896 606.571 50.136C606.779 50.376 607.131 50.496 607.627 50.496V51C607.307 50.984 606.819 50.968 606.163 50.952C605.523 50.92 604.891 50.904 604.267 50.904C603.595 50.904 602.939 50.92 602.299 50.952C601.659 50.968 601.179 50.984 600.859 51V50.496C601.275 50.496 601.563 50.376 601.723 50.136C601.883 49.896 601.963 49.44 601.963 48.768V40.968C601.963 40.632 601.923 40.352 601.843 40.128C601.763 39.904 601.635 39.736 601.459 39.624C601.299 39.512 601.075 39.456 600.787 39.456C600.499 39.456 600.219 39.528 599.947 39.672C599.691 39.816 599.475 40.024 599.299 40.296C599.139 40.552 599.059 40.848 599.059 41.184V48.768C599.059 49.44 599.139 49.896 599.299 50.136C599.475 50.376 599.763 50.496 600.163 50.496V51C599.859 50.984 599.411 50.968 598.819 50.952C598.227 50.92 597.619 50.904 596.995 50.904C596.323 50.904 595.643 50.92 594.955 50.952C594.267 50.968 593.747 50.984 593.395 51V50.496C593.891 50.496 594.235 50.376 594.427 50.136C594.635 49.896 594.739 49.44 594.739 48.768V41.16C594.739 40.44 594.643 39.912 594.451 39.576C594.259 39.224 593.907 39.048 593.395 39.048V38.544C593.907 38.592 594.403 38.616 594.883 38.616C595.683 38.616 596.427 38.592 597.115 38.544C597.819 38.48 598.467 38.392 599.059 38.28V40.008C599.443 39.368 599.955 38.912 600.595 38.64C601.251 38.352 602.011 38.208 602.875 38.208ZM613.939 34.656V38.544H616.291V39.024H613.939V48.984C613.939 49.288 613.995 49.512 614.107 49.656C614.219 49.784 614.403 49.848 614.659 49.848C614.835 49.848 615.043 49.8 615.283 49.704C615.523 49.592 615.747 49.408 615.955 49.152L616.315 49.44C615.979 50.016 615.531 50.48 614.971 50.832C614.427 51.168 613.739 51.336 612.907 51.336C612.379 51.336 611.899 51.264 611.467 51.12C611.051 50.992 610.707 50.792 610.435 50.52C610.083 50.168 609.859 49.736 609.763 49.224C609.667 48.696 609.619 48.016 609.619 47.184V39.024H607.795V38.544H609.619V35.712C610.467 35.712 611.235 35.632 611.923 35.472C612.627 35.296 613.299 35.024 613.939 34.656ZM620.145 32.232C620.977 32.232 621.617 32.408 622.065 32.76C622.529 33.096 622.761 33.608 622.761 34.296C622.761 34.984 622.529 35.504 622.065 35.856C621.617 36.192 620.977 36.36 620.145 36.36C619.313 36.36 618.665 36.192 618.201 35.856C617.753 35.504 617.529 34.984 617.529 34.296C617.529 33.608 617.753 33.096 618.201 32.76C618.665 32.408 619.313 32.232 620.145 32.232ZM622.449 38.28V48.768C622.449 49.44 622.545 49.896 622.737 50.136C622.945 50.376 623.297 50.496 623.793 50.496V51C623.473 50.984 622.993 50.968 622.353 50.952C621.713 50.92 621.057 50.904 620.385 50.904C619.713 50.904 619.033 50.92 618.345 50.952C617.657 50.968 617.137 50.984 616.785 51V50.496C617.281 50.496 617.625 50.376 617.817 50.136C618.025 49.896 618.129 49.44 618.129 48.768V41.16C618.129 40.44 618.033 39.912 617.841 39.576C617.649 39.224 617.297 39.048 616.785 39.048V38.544C617.297 38.592 617.793 38.616 618.273 38.616C619.073 38.616 619.817 38.592 620.505 38.544C621.209 38.48 621.857 38.392 622.449 38.28ZM631.091 38.208C631.795 38.208 632.419 38.28 632.963 38.424C633.507 38.568 633.939 38.736 634.259 38.928C634.691 39.184 635.035 39.528 635.291 39.96C635.563 40.376 635.699 40.864 635.699 41.424C635.699 42.08 635.483 42.632 635.051 43.08C634.619 43.528 634.067 43.752 633.395 43.752C632.691 43.752 632.147 43.552 631.763 43.152C631.379 42.752 631.187 42.232 631.187 41.592C631.187 40.984 631.379 40.472 631.763 40.056C632.163 39.624 632.627 39.336 633.155 39.192C633.043 39.112 632.907 39.048 632.747 39C632.603 38.936 632.419 38.904 632.195 38.904C631.619 38.904 631.147 39.08 630.779 39.432C630.427 39.768 630.147 40.216 629.939 40.776C629.747 41.336 629.611 41.936 629.531 42.576C629.451 43.216 629.411 43.84 629.411 44.448C629.411 45.568 629.563 46.44 629.867 47.064C630.171 47.688 630.555 48.12 631.019 48.36C631.483 48.6 631.947 48.72 632.411 48.72C632.635 48.72 632.899 48.688 633.203 48.624C633.523 48.56 633.867 48.416 634.235 48.192C634.603 47.952 634.963 47.592 635.315 47.112L635.723 47.256C635.531 47.896 635.219 48.536 634.787 49.176C634.371 49.8 633.827 50.32 633.155 50.736C632.483 51.136 631.667 51.336 630.707 51.336C629.635 51.336 628.659 51.128 627.779 50.712C626.915 50.296 626.219 49.608 625.691 48.648C625.179 47.688 624.923 46.4 624.923 44.784C624.923 43.248 625.195 42 625.739 41.04C626.283 40.064 627.019 39.352 627.947 38.904C628.891 38.44 629.939 38.208 631.091 38.208Z" fill="black"/>
<path d="M755.888 38.208C756.592 38.208 757.216 38.28 757.76 38.424C758.304 38.568 758.736 38.736 759.056 38.928C759.488 39.184 759.832 39.528 760.088 39.96C760.36 40.376 760.496 40.864 760.496 41.424C760.496 42.08 760.28 42.632 759.848 43.08C759.416 43.528 758.864 43.752 758.192 43.752C757.488 43.752 756.944 43.552 756.56 43.152C756.176 42.752 755.984 42.232 755.984 41.592C755.984 40.984 756.176 40.472 756.56 40.056C756.96 39.624 757.424 39.336 757.952 39.192C757.84 39.112 757.704 39.048 757.544 39C757.4 38.936 757.216 38.904 756.992 38.904C756.416 38.904 755.944 39.08 755.576 39.432C755.224 39.768 754.944 40.216 754.736 40.776C754.544 41.336 754.408 41.936 754.328 42.576C754.248 43.216 754.208 43.84 754.208 44.448C754.208 45.568 754.36 46.44 754.664 47.064C754.968 47.688 755.352 48.12 755.816 48.36C756.28 48.6 756.744 48.72 757.208 48.72C757.432 48.72 757.696 48.688 758 48.624C758.32 48.56 758.664 48.416 759.032 48.192C759.4 47.952 759.76 47.592 760.112 47.112L760.52 47.256C760.328 47.896 760.016 48.536 759.584 49.176C759.168 49.8 758.624 50.32 757.952 50.736C757.28 51.136 756.464 51.336 755.504 51.336C754.432 51.336 753.456 51.128 752.576 50.712C751.712 50.296 751.016 49.608 750.488 48.648C749.976 47.688 749.72 46.4 749.72 44.784C749.72 43.248 749.992 42 750.536 41.04C751.08 40.064 751.816 39.352 752.744 38.904C753.688 38.44 754.736 38.208 755.888 38.208ZM767.982 38.208C769.23 38.208 770.31 38.424 771.222 38.856C772.15 39.272 772.87 39.96 773.382 40.92C773.894 41.88 774.15 43.168 774.15 44.784C774.15 46.4 773.894 47.688 773.382 48.648C772.87 49.608 772.15 50.296 771.222 50.712C770.31 51.128 769.23 51.336 767.982 51.336C766.75 51.336 765.67 51.128 764.742 50.712C763.814 50.296 763.094 49.608 762.582 48.648C762.07 47.688 761.814 46.4 761.814 44.784C761.814 43.168 762.07 41.88 762.582 40.92C763.094 39.96 763.814 39.272 764.742 38.856C765.67 38.424 766.75 38.208 767.982 38.208ZM767.982 38.688C767.502 38.688 767.102 39.168 766.782 40.128C766.462 41.088 766.302 42.64 766.302 44.784C766.302 46.928 766.462 48.48 766.782 49.44C767.102 50.384 767.502 50.856 767.982 50.856C768.462 50.856 768.862 50.384 769.182 49.44C769.502 48.48 769.662 46.928 769.662 44.784C769.662 42.64 769.502 41.088 769.182 40.128C768.862 39.168 768.462 38.688 767.982 38.688ZM784.642 38.208C785.378 38.208 785.954 38.304 786.37 38.496C786.802 38.672 787.13 38.896 787.354 39.168C787.594 39.456 787.77 39.84 787.882 40.32C787.994 40.8 788.05 41.448 788.05 42.264V48.768C788.05 49.44 788.13 49.896 788.29 50.136C788.45 50.376 788.738 50.496 789.154 50.496V51C788.85 50.984 788.394 50.968 787.786 50.952C787.194 50.92 786.61 50.904 786.034 50.904C785.41 50.904 784.802 50.92 784.21 50.952C783.618 50.968 783.17 50.984 782.866 51V50.496C783.186 50.496 783.41 50.376 783.538 50.136C783.666 49.896 783.73 49.44 783.73 48.768V40.968C783.73 40.632 783.698 40.352 783.634 40.128C783.57 39.904 783.466 39.736 783.322 39.624C783.194 39.512 783.018 39.456 782.794 39.456C782.506 39.456 782.226 39.528 781.954 39.672C781.698 39.816 781.482 40.024 781.306 40.296C781.146 40.552 781.066 40.848 781.066 41.184V48.768C781.066 49.44 781.13 49.896 781.258 50.136C781.386 50.376 781.61 50.496 781.93 50.496V51C781.658 50.984 781.242 50.968 780.682 50.952C780.138 50.92 779.578 50.904 779.002 50.904C778.33 50.904 777.65 50.92 776.962 50.952C776.274 50.968 775.754 50.984 775.402 51V50.496C775.898 50.496 776.242 50.376 776.434 50.136C776.642 49.896 776.746 49.44 776.746 48.768V41.16C776.746 40.44 776.65 39.912 776.458 39.576C776.266 39.224 775.914 39.048 775.402 39.048V38.544C775.914 38.592 776.41 38.616 776.89 38.616C777.69 38.616 778.434 38.592 779.122 38.544C779.826 38.48 780.474 38.392 781.066 38.28V40.008C781.434 39.368 781.922 38.912 782.53 38.64C783.138 38.352 783.842 38.208 784.642 38.208ZM791.866 38.208C792.602 38.208 793.178 38.304 793.594 38.496C794.026 38.672 794.354 38.896 794.578 39.168C794.818 39.456 794.994 39.84 795.106 40.32C795.218 40.8 795.274 41.448 795.274 42.264V48.768C795.274 49.44 795.37 49.896 795.562 50.136C795.77 50.376 796.122 50.496 796.618 50.496V51C796.298 50.984 795.81 50.968 795.154 50.952C794.514 50.92 793.882 50.904 793.258 50.904C792.634 50.904 792.026 50.92 791.434 50.952C790.842 50.968 790.394 50.984 790.09 51V50.496C790.41 50.496 790.634 50.376 790.762 50.136C790.89 49.896 790.954 49.44 790.954 48.768V40.968C790.954 40.632 790.914 40.352 790.834 40.128C790.754 39.904 790.626 39.736 790.45 39.624C790.29 39.512 790.066 39.456 789.778 39.456C789.49 39.456 789.21 39.544 788.938 39.72C788.682 39.896 788.466 40.128 788.29 40.416C788.13 40.688 788.034 40.992 788.002 41.328L787.834 40.368C788.266 39.52 788.826 38.952 789.514 38.664C790.218 38.36 791.002 38.208 791.866 38.208ZM802.979 38.304V52.872C802.979 53.656 803.163 54.176 803.531 54.432C803.899 54.704 804.403 54.84 805.043 54.84V55.344C804.595 55.328 803.971 55.304 803.171 55.272C802.371 55.256 801.523 55.248 800.627 55.248C799.987 55.248 799.355 55.256 798.731 55.272C798.107 55.304 797.635 55.328 797.315 55.344V54.84C797.811 54.84 798.155 54.72 798.347 54.48C798.555 54.24 798.659 53.784 798.659 53.112V41.184C798.659 40.464 798.563 39.936 798.371 39.6C798.179 39.248 797.827 39.072 797.315 39.072V38.568C797.827 38.616 798.323 38.64 798.803 38.64C799.603 38.64 800.347 38.616 801.035 38.568C801.739 38.504 802.387 38.416 802.979 38.304ZM806.627 38.208C807.427 38.208 808.139 38.432 808.763 38.88C809.387 39.312 809.883 39.976 810.251 40.872C810.619 41.752 810.803 42.872 810.803 44.232C810.803 45.592 810.651 46.728 810.347 47.64C810.059 48.552 809.651 49.28 809.123 49.824C808.611 50.368 808.019 50.76 807.347 51C806.675 51.224 805.963 51.336 805.211 51.336C804.667 51.336 804.147 51.272 803.651 51.144C803.171 51.032 802.771 50.808 802.451 50.472L802.691 50.16C802.819 50.336 802.987 50.456 803.195 50.52C803.403 50.584 803.611 50.616 803.819 50.616C804.411 50.616 804.891 50.4 805.259 49.968C805.627 49.536 805.891 48.888 806.051 48.024C806.227 47.16 806.315 46.08 806.315 44.784C806.315 43.36 806.243 42.264 806.099 41.496C805.955 40.728 805.763 40.2 805.523 39.912C805.283 39.608 805.011 39.456 804.707 39.456C804.259 39.456 803.859 39.616 803.507 39.936C803.155 40.256 802.979 40.672 802.979 41.184V40.008C803.347 39.4 803.843 38.952 804.467 38.664C805.091 38.36 805.811 38.208 806.627 38.208ZM818.49 38.208C819.738 38.208 820.818 38.424 821.73 38.856C822.658 39.272 823.378 39.96 823.89 40.92C824.402 41.88 824.658 43.168 824.658 44.784C824.658 46.4 824.402 47.688 823.89 48.648C823.378 49.608 822.658 50.296 821.73 50.712C820.818 51.128 819.738 51.336 818.49 51.336C817.258 51.336 816.178 51.128 815.25 50.712C814.322 50.296 813.602 49.608 813.09 48.648C812.578 47.688 812.322 46.4 812.322 44.784C812.322 43.168 812.578 41.88 813.09 40.92C813.602 39.96 814.322 39.272 815.25 38.856C816.178 38.424 817.258 38.208 818.49 38.208ZM818.49 38.688C818.01 38.688 817.61 39.168 817.29 40.128C816.97 41.088 816.81 42.64 816.81 44.784C816.81 46.928 816.97 48.48 817.29 49.44C817.61 50.384 818.01 50.856 818.49 50.856C818.97 50.856 819.37 50.384 819.69 49.44C820.01 48.48 820.17 46.928 820.17 44.784C820.17 42.64 820.01 41.088 819.69 40.128C819.37 39.168 818.97 38.688 818.49 38.688ZM835.39 38.208C836.126 38.208 836.702 38.304 837.118 38.496C837.55 38.672 837.878 38.896 838.102 39.168C838.342 39.456 838.518 39.84 838.63 40.32C838.742 40.8 838.798 41.448 838.798 42.264V48.768C838.798 49.44 838.894 49.896 839.086 50.136C839.294 50.376 839.646 50.496 840.142 50.496V51C839.822 50.984 839.334 50.968 838.678 50.952C838.038 50.92 837.406 50.904 836.782 50.904C836.11 50.904 835.454 50.92 834.814 50.952C834.174 50.968 833.694 50.984 833.374 51V50.496C833.79 50.496 834.078 50.376 834.238 50.136C834.398 49.896 834.478 49.44 834.478 48.768V40.968C834.478 40.632 834.438 40.352 834.358 40.128C834.278 39.904 834.15 39.736 833.974 39.624C833.814 39.512 833.59 39.456 833.302 39.456C833.014 39.456 832.734 39.528 832.462 39.672C832.206 39.816 831.99 40.024 831.814 40.296C831.654 40.552 831.574 40.848 831.574 41.184V48.768C831.574 49.44 831.654 49.896 831.814 50.136C831.99 50.376 832.278 50.496 832.678 50.496V51C832.374 50.984 831.926 50.968 831.334 50.952C830.742 50.92 830.134 50.904 829.51 50.904C828.838 50.904 828.158 50.92 827.47 50.952C826.782 50.968 826.262 50.984 825.91 51V50.496C826.406 50.496 826.75 50.376 826.942 50.136C827.15 49.896 827.254 49.44 827.254 48.768V41.16C827.254 40.44 827.158 39.912 826.966 39.576C826.774 39.224 826.422 39.048 825.91 39.048V38.544C826.422 38.592 826.918 38.616 827.398 38.616C828.198 38.616 828.942 38.592 829.63 38.544C830.334 38.48 830.982 38.392 831.574 38.28V40.008C831.958 39.368 832.47 38.912 833.11 38.64C833.766 38.352 834.526 38.208 835.39 38.208ZM847.318 38.208C848.726 38.208 849.83 38.624 850.63 39.456C851.446 40.272 851.854 41.648 851.854 43.584H844.342L844.294 43.128H848.35C848.366 42.344 848.334 41.624 848.254 40.968C848.174 40.296 848.046 39.76 847.87 39.36C847.694 38.96 847.454 38.76 847.15 38.76C846.718 38.76 846.366 39.104 846.094 39.792C845.822 40.464 845.646 41.624 845.566 43.272L845.662 43.464C845.646 43.624 845.638 43.784 845.638 43.944C845.638 44.104 845.638 44.272 845.638 44.448C845.638 45.568 845.774 46.44 846.046 47.064C846.334 47.688 846.686 48.12 847.102 48.36C847.534 48.6 847.966 48.72 848.398 48.72C848.622 48.72 848.886 48.688 849.19 48.624C849.51 48.56 849.854 48.416 850.222 48.192C850.59 47.952 850.95 47.592 851.302 47.112L851.71 47.256C851.518 47.896 851.206 48.536 850.774 49.176C850.358 49.8 849.814 50.32 849.142 50.736C848.47 51.136 847.654 51.336 846.694 51.336C845.67 51.336 844.734 51.128 843.886 50.712C843.054 50.296 842.39 49.608 841.894 48.648C841.398 47.688 841.15 46.4 841.15 44.784C841.15 43.248 841.422 42 841.966 41.04C842.51 40.064 843.246 39.352 844.174 38.904C845.118 38.44 846.166 38.208 847.318 38.208ZM862.226 38.208C862.962 38.208 863.538 38.304 863.954 38.496C864.386 38.672 864.714 38.896 864.938 39.168C865.178 39.456 865.354 39.84 865.466 40.32C865.578 40.8 865.634 41.448 865.634 42.264V48.768C865.634 49.44 865.73 49.896 865.922 50.136C866.13 50.376 866.482 50.496 866.978 50.496V51C866.658 50.984 866.17 50.968 865.514 50.952C864.874 50.92 864.242 50.904 863.618 50.904C862.946 50.904 862.29 50.92 861.65 50.952C861.01 50.968 860.53 50.984 860.21 51V50.496C860.626 50.496 860.914 50.376 861.074 50.136C861.234 49.896 861.314 49.44 861.314 48.768V40.968C861.314 40.632 861.274 40.352 861.194 40.128C861.114 39.904 860.986 39.736 860.81 39.624C860.65 39.512 860.426 39.456 860.138 39.456C859.85 39.456 859.57 39.528 859.298 39.672C859.042 39.816 858.826 40.024 858.65 40.296C858.49 40.552 858.41 40.848 858.41 41.184V48.768C858.41 49.44 858.49 49.896 858.65 50.136C858.826 50.376 859.114 50.496 859.514 50.496V51C859.21 50.984 858.762 50.968 858.17 50.952C857.578 50.92 856.97 50.904 856.346 50.904C855.674 50.904 854.994 50.92 854.306 50.952C853.618 50.968 853.098 50.984 852.746 51V50.496C853.242 50.496 853.586 50.376 853.778 50.136C853.986 49.896 854.09 49.44 854.09 48.768V41.16C854.09 40.44 853.994 39.912 853.802 39.576C853.61 39.224 853.258 39.048 852.746 39.048V38.544C853.258 38.592 853.754 38.616 854.234 38.616C855.034 38.616 855.778 38.592 856.466 38.544C857.17 38.48 857.818 38.392 858.41 38.28V40.008C858.794 39.368 859.306 38.912 859.946 38.64C860.602 38.352 861.362 38.208 862.226 38.208ZM873.29 34.656V38.544H875.642V39.024H873.29V48.984C873.29 49.288 873.346 49.512 873.458 49.656C873.57 49.784 873.754 49.848 874.01 49.848C874.186 49.848 874.394 49.8 874.634 49.704C874.874 49.592 875.098 49.408 875.306 49.152L875.666 49.44C875.33 50.016 874.882 50.48 874.322 50.832C873.778 51.168 873.09 51.336 872.258 51.336C871.73 51.336 871.25 51.264 870.818 51.12C870.402 50.992 870.058 50.792 869.786 50.52C869.434 50.168 869.21 49.736 869.114 49.224C869.018 48.696 868.97 48.016 868.97 47.184V39.024H867.146V38.544H868.97V35.712C869.818 35.712 870.586 35.632 871.274 35.472C871.978 35.296 872.65 35.024 873.29 34.656Z" fill="black"/>
</svg>
