<svg width="546" height="101" viewBox="0 0 546 101" fill="none" xmlns="http://www.w3.org/2000/svg">
<path d="M522.964 99.84H545.344V97.5H526.624V97.38C527.704 96.06 528.664 94.74 529.684 93.42L545.224 72.96L545.284 71.04H524.224V73.38H541.804V73.5C540.664 74.94 539.584 76.26 538.504 77.64L522.964 98.1V99.84Z" fill="black"/>
<path d="M498.765 99.84H521.145V97.5H502.425V97.38C503.505 96.06 504.465 94.74 505.485 93.42L521.025 72.96L521.085 71.04H500.025V73.38H517.605V73.5C516.465 74.94 515.385 76.26 514.305 77.64L498.765 98.1V99.84Z" fill="black"/>
<path d="M495.204 85.1399C495.324 84.5999 495.324 84.1799 495.324 83.3999C495.324 79.2599 493.524 70.3799 484.104 70.3799C476.664 70.3799 471.144 76.3799 471.144 85.9799C471.144 94.4399 476.304 100.44 484.584 100.44C489.624 100.44 492.564 99.1799 493.644 98.5799L492.924 96.3599C491.304 97.1399 489.144 97.9799 484.944 97.9799C478.944 97.9799 473.964 94.3199 473.964 85.1399H495.204ZM474.084 82.8599C474.624 78.4199 477.384 72.7799 483.744 72.7799C490.704 72.7799 492.384 78.8399 492.324 82.8599H474.084Z" fill="black"/>
<path d="M460.829 99.8397H463.709V57.2397H460.829V99.8397Z" fill="black"/>
<path d="M453.368 85.1399C453.488 84.5999 453.488 84.1799 453.488 83.3999C453.488 79.2599 451.688 70.3799 442.268 70.3799C434.828 70.3799 429.308 76.3799 429.308 85.9799C429.308 94.4399 434.468 100.44 442.748 100.44C447.788 100.44 450.728 99.1799 451.808 98.5799L451.088 96.3599C449.468 97.1399 447.308 97.9799 443.108 97.9799C437.108 97.9799 432.128 94.3199 432.128 85.1399H453.368ZM432.248 82.8599C432.788 78.4199 435.548 72.7799 441.908 72.7799C448.868 72.7799 450.548 78.8399 450.488 82.8599H432.248Z" fill="black"/>
<path d="M410.995 70.3799C403.855 70.3799 397.375 75.8399 397.375 85.6799C397.375 94.6799 403.135 100.5 410.575 100.5C416.995 100.5 424.375 95.8799 424.375 85.1399C424.375 76.3799 418.975 70.3799 410.995 70.3799ZM410.935 72.7799C418.555 72.7799 421.495 80.0399 421.495 85.3199C421.495 92.6999 416.755 98.0999 410.755 98.0999C404.875 98.0999 400.255 92.6999 400.255 85.4999C400.255 79.3199 403.555 72.7799 410.935 72.7799Z" fill="black"/>
<path d="M366.609 93.1197C366.609 95.2797 366.549 97.7997 366.369 99.8397H368.949L369.189 94.6197H369.309C371.589 98.5797 374.949 100.5 379.629 100.5C385.929 100.5 392.469 95.3997 392.469 85.1397C392.469 76.4997 387.429 70.3797 380.109 70.3797C375.069 70.3797 371.529 72.7197 369.609 76.4397H369.489V57.2397H366.609V93.1197ZM369.489 82.9797C369.489 81.9597 369.669 81.1797 369.849 80.4597C371.229 75.6597 375.249 72.7797 379.449 72.7797C385.989 72.7797 389.589 78.5998 389.589 85.1997C389.589 92.6997 385.809 98.0997 379.209 98.0997C374.709 98.0997 370.989 95.2197 369.729 90.8397C369.549 90.1197 369.489 89.3997 369.489 88.7397V82.9797Z" fill="black"/>
<mask id="mask0_18_26" style="mask-type:alpha" maskUnits="userSpaceOnUse" x="0" y="0" width="361" height="101">
<path d="M361 100.5H50C77.6142 100.5 100 78.1142 100 50.5C100 22.8858 77.6142 0.5 50 0.5C22.3858 0.5 0 22.8858 0 50.5C0 78.1142 22.3858 100.5 50 100.5H0V0.5H361V100.5Z" fill="#FF0000"/>
</mask>
<g mask="url(#mask0_18_26)">
<path d="M297.369 0.5L360.369 100.5H234.369L297.369 0.5Z" fill="black"/>
</g>
<path d="M224.949 81.7199C224.949 76.6199 223.329 70.3799 214.989 70.3799C212.409 70.3799 209.169 71.0999 206.529 72.8399L207.429 74.9399C209.529 73.4399 212.169 72.7799 214.689 72.7799C221.529 72.7199 222.069 78.4199 222.069 81.2399V82.0199C210.309 81.8999 204.489 85.9199 204.489 92.5799C204.489 96.4199 207.129 100.5 212.949 100.5C217.569 100.5 220.749 97.9199 222.189 95.6999H222.309L222.729 99.8399H225.369C225.009 97.6199 224.949 95.2799 224.949 92.9999V81.7199ZM222.069 90.5999C222.069 91.0799 222.009 91.7399 221.769 92.3399C220.809 95.1599 218.049 98.0999 213.249 98.0999C210.249 98.0999 207.489 96.2399 207.489 92.0999C207.489 85.1999 215.769 84.2399 222.069 84.4199V90.5999Z" fill="black"/>
<path d="M157.849 99.8399H160.729V82.0799C160.729 81.1199 160.909 80.0999 161.149 79.3199C162.229 75.9599 165.289 72.8399 169.129 72.8399C173.809 72.8399 176.269 76.6199 176.269 81.8399V99.8399H179.149V81.3599C179.149 80.3399 179.389 79.3799 179.629 78.5399C180.769 75.4799 183.589 72.8399 187.189 72.8399C192.169 72.8399 194.689 76.6799 194.689 83.1599V99.8399H197.569V82.8599C197.569 71.9399 190.969 70.3799 188.149 70.3799C185.089 70.3799 183.169 71.2199 181.309 72.7799C180.229 73.6799 179.149 74.9399 178.369 76.6799H178.249C176.989 73.0199 173.929 70.3799 169.969 70.3799C165.229 70.3799 162.469 72.8399 160.609 76.1399H160.489L160.309 71.0399H157.609C157.789 73.3199 157.849 75.2999 157.849 77.9399V99.8399Z" fill="black"/>
<path d="M148.543 81.7199C148.543 76.6199 146.923 70.3799 138.583 70.3799C136.003 70.3799 132.763 71.0999 130.123 72.8399L131.023 74.9399C133.123 73.4399 135.763 72.7799 138.283 72.7799C145.123 72.7199 145.663 78.4199 145.663 81.2399V82.0199C133.903 81.8999 128.083 85.9199 128.083 92.5799C128.083 96.4199 130.723 100.5 136.543 100.5C141.163 100.5 144.343 97.9199 145.783 95.6999H145.903L146.323 99.8399H148.963C148.603 97.6199 148.543 95.2799 148.543 92.9999V81.7199ZM145.663 90.5999C145.663 91.0799 145.603 91.7399 145.363 92.3399C144.403 95.1599 141.643 98.0999 136.843 98.0999C133.843 98.0999 131.083 96.2399 131.083 92.0999C131.083 85.1999 139.363 84.2399 145.663 84.4199V90.5999Z" fill="black"/>
<path d="M106 98.4599C107.92 99.6599 110.56 100.44 113.32 100.44C119.2 100.44 123.04 97.1399 123.04 92.2199C123.04 87.8399 120.28 85.4999 115.6 83.6999C111.7 82.0799 109.66 80.7599 109.66 77.7599C109.66 75.1199 111.58 72.7799 115.24 72.7799C118.12 72.7799 119.98 73.7999 121 74.5199L122.08 72.1799C120.64 71.1599 118.36 70.3799 115.72 70.3799C110.14 70.3799 106.84 74.0399 106.84 78.1799C106.84 81.6599 109.42 84.2399 114.16 86.0399C118.3 87.7199 120.22 89.3999 120.22 92.5799C120.22 95.5799 118.06 98.0399 113.5 98.0399C110.92 98.0399 108.58 97.0199 107.02 96.0599L106 98.4599Z" fill="black"/>
<mask id="mask1_18_26" style="mask-type:alpha" maskUnits="userSpaceOnUse" x="0" y="0" width="361" height="101">
<path d="M361 100.5H360.369L297.369 0.5L234.369 100.5H0V0.5H361V100.5Z" fill="#FF0000"/>
</mask>
<g mask="url(#mask1_18_26)">
<circle cx="50" cy="50.5" r="50" fill="black"/>
</g>
</svg>
