<svg width="1881" height="934" viewBox="0 0 1881 934" fill="none" xmlns="http://www.w3.org/2000/svg">
<path d="M21.7773 187.249L71.8512 137.177" stroke="#EEBA05" stroke-width="12" stroke-miterlimit="10" stroke-linecap="round"/>
<path d="M130.435 148.971L30.2432 249.163" stroke="#EEBA05" stroke-width="12" stroke-miterlimit="10" stroke-linecap="round"/>
<path d="M272.739 77.0609L257.474 92.3195" stroke="#EEBA05" stroke-width="12" stroke-miterlimit="10" stroke-linecap="round"/>
<path d="M290.072 59.7297L278.902 70.8927" stroke="#EEBA05" stroke-width="12" stroke-miterlimit="10" stroke-linecap="round"/>
<path d="M108.539 241.253L203.423 146.374" stroke="#EEBA05" stroke-width="12" stroke-miterlimit="10" stroke-linecap="round"/>
<path d="M244.718 105.081L216.959 132.838" stroke="#EEBA05" stroke-width="12" stroke-miterlimit="10" stroke-linecap="round"/>
<path d="M352.621 67.5649L350.154 70.031" stroke="#EEBA05" stroke-width="12" stroke-miterlimit="10" stroke-linecap="round"/>
<path d="M399.166 21.0214L375.01 45.1766" stroke="#EEBA05" stroke-width="12" stroke-miterlimit="10" stroke-linecap="round"/>
<path d="M363.397 56.7889L365.214 54.9658" stroke="#EEBA05" stroke-width="12" stroke-miterlimit="10" stroke-linecap="round"/>
<path d="M333.783 86.4008L337.404 82.7734" stroke="#EEBA05" stroke-width="12" stroke-miterlimit="10" stroke-linecap="round"/>
<path d="M265.859 154.322L299.138 121.045" stroke="#EEBA05" stroke-width="12" stroke-miterlimit="10" stroke-linecap="round"/>
<path d="M326.685 93.4995L322.064 98.1195" stroke="#EEBA05" stroke-width="12" stroke-miterlimit="10" stroke-linecap="round"/>
<path d="M162.097 258.079L252.785 167.395" stroke="#EEBA05" stroke-width="12" stroke-miterlimit="10" stroke-linecap="round"/>
<path d="M199.108 291.443L314.959 175.605" stroke="#EEBA05" stroke-width="12" stroke-miterlimit="10" stroke-linecap="round"/>
<path d="M356.092 134.474L379.037 111.53" stroke="#EEBA05" stroke-width="12" stroke-miterlimit="10" stroke-linecap="round"/>
<path d="M484.574 6L388.771 101.797" stroke="#EEBA05" stroke-width="12" stroke-miterlimit="10" stroke-linecap="round"/>
<path d="M342.443 148.122L339.134 151.431" stroke="#EEBA05" stroke-width="12" stroke-miterlimit="10" stroke-linecap="round"/>
<path d="M448.079 112.872L411.635 149.314" stroke="#EEBA05" stroke-width="12" stroke-miterlimit="10" stroke-linecap="round"/>
<path d="M494.407 66.5472L497.554 63.4006" stroke="#EEBA05" stroke-width="12" stroke-miterlimit="10" stroke-linecap="round"/>
<path d="M228.372 332.567L401.014 159.934" stroke="#EEBA05" stroke-width="12" stroke-miterlimit="10" stroke-linecap="round"/>
<path d="M546.048 14.9092L533.386 27.5706" stroke="#EEBA05" stroke-width="12" stroke-miterlimit="10" stroke-linecap="round"/>
<path d="M232.193 399.127L382.265 249.063" stroke="#EEBA05" stroke-width="12" stroke-miterlimit="10" stroke-linecap="round"/>
<path d="M499.564 131.771L474.446 156.887" stroke="#EEBA05" stroke-width="12" stroke-miterlimit="10" stroke-linecap="round"/>
<path d="M617.194 14.1473L543.444 87.893" stroke="#EEBA05" stroke-width="12" stroke-miterlimit="10" stroke-linecap="round"/>
<path d="M536.576 165.141L496.43 205.285" stroke="#EEBA05" stroke-width="12" stroke-miterlimit="10" stroke-linecap="round"/>
<path d="M468.402 233.311L481.682 220.032" stroke="#EEBA05" stroke-width="12" stroke-miterlimit="10" stroke-linecap="round"/>
<path d="M690.719 11.0071L585.732 115.994" stroke="#EEBA05" stroke-width="12" stroke-miterlimit="10" stroke-linecap="round"/>
<path d="M265.041 436.661L428.718 272.994" stroke="#EEBA05" stroke-width="12" stroke-miterlimit="10" stroke-linecap="round"/>
<path d="M297.889 474.196L525.163 246.934" stroke="#EEBA05" stroke-width="12" stroke-miterlimit="10" stroke-linecap="round"/>
<path d="M761.103 11.0071L603.526 168.575" stroke="#EEBA05" stroke-width="12" stroke-miterlimit="10" stroke-linecap="round"/>
<path d="M336.188 506.28L366.588 475.888" stroke="#EEBA05" stroke-width="12" stroke-miterlimit="10" stroke-linecap="round"/>
<path d="M573.707 268.773L405.772 436.705" stroke="#EEBA05" stroke-width="12" stroke-miterlimit="10" stroke-linecap="round"/>
<path d="M817.746 24.7484L807.85 34.644" stroke="#EEBA05" stroke-width="12" stroke-miterlimit="10" stroke-linecap="round"/>
<path d="M621.857 220.625L772.016 70.4744" stroke="#EEBA05" stroke-width="12" stroke-miterlimit="10" stroke-linecap="round"/>
<path d="M599.556 313.307L585.07 327.791" stroke="#EEBA05" stroke-width="12" stroke-miterlimit="10" stroke-linecap="round"/>
<path d="M389.808 523.043L411.173 501.685" stroke="#EEBA05" stroke-width="12" stroke-miterlimit="10" stroke-linecap="round"/>
<path d="M436.778 546.456L423.067 560.172" stroke="#EEBA05" stroke-width="12" stroke-miterlimit="10" stroke-linecap="round"/>
<path d="M454.186 599.436L519.207 534.412" stroke="#EEBA05" stroke-width="12" stroke-miterlimit="10" stroke-linecap="round"/>
<path d="M465.405 658.591L570.055 553.948" stroke="#EEBA05" stroke-width="12" stroke-miterlimit="10" stroke-linecap="round"/>
<path d="M863.442 330.956L900.748 293.659" stroke="#EEBA05" stroke-width="12" stroke-miterlimit="10" stroke-linecap="round"/>
<path d="M498.809 695.57L603.246 591.145" stroke="#EEBA05" stroke-width="12" stroke-miterlimit="10" stroke-linecap="round"/>
<path d="M1040.51 153.897L941.194 253.209" stroke="#EEBA05" stroke-width="12" stroke-miterlimit="10" stroke-linecap="round"/>
<path d="M1088.24 176.548L911.405 353.382" stroke="#EEBA05" stroke-width="12" stroke-miterlimit="10" stroke-linecap="round"/>
<path d="M890.939 373.848L870.441 394.338" stroke="#EEBA05" stroke-width="12" stroke-miterlimit="10" stroke-linecap="round"/>
<path d="M854.47 410.308L790.854 473.921" stroke="#EEBA05" stroke-width="12" stroke-miterlimit="10" stroke-linecap="round"/>
<path d="M494.001 770.764L650.241 614.526" stroke="#EEBA05" stroke-width="12" stroke-miterlimit="10" stroke-linecap="round"/>
<path d="M481.396 853.75L699.26 635.897" stroke="#EEBA05" stroke-width="12" stroke-miterlimit="10" stroke-linecap="round"/>
<path d="M1170.88 164.298L974.354 360.818" stroke="#EEBA05" stroke-width="12" stroke-miterlimit="10" stroke-linecap="round"/>
<path d="M959.194 375.977L968.035 367.13" stroke="#EEBA05" stroke-width="12" stroke-miterlimit="10" stroke-linecap="round"/>
<path d="M933.539 401.624L795.374 539.782" stroke="#EEBA05" stroke-width="12" stroke-miterlimit="10" stroke-linecap="round"/>
<path d="M1029.42 376.133L1035.29 370.264" stroke="#EEBA05" stroke-width="12" stroke-miterlimit="10" stroke-linecap="round"/>
<path d="M974.447 431.099L833.366 572.178" stroke="#EEBA05" stroke-width="12" stroke-miterlimit="10" stroke-linecap="round"/>
<path d="M1272.57 132.994L1060.98 344.573" stroke="#EEBA05" stroke-width="12" stroke-miterlimit="10" stroke-linecap="round"/>
<path d="M489.812 915.708L516.884 888.643" stroke="#EEBA05" stroke-width="12" stroke-miterlimit="10" stroke-linecap="round"/>
<path d="M905.519 570.405L1041.64 434.295" stroke="#EEBA05" stroke-width="12" stroke-miterlimit="10" stroke-linecap="round"/>
<path d="M1378.49 97.4641L1068.42 407.518" stroke="#EEBA05" stroke-width="12" stroke-miterlimit="10" stroke-linecap="round"/>
<path d="M1149.96 396.361L1079.23 467.085" stroke="#EEBA05" stroke-width="12" stroke-miterlimit="10" stroke-linecap="round"/>
<path d="M1458.92 87.4248L1167.52 378.805" stroke="#EEBA05" stroke-width="12" stroke-miterlimit="10" stroke-linecap="round"/>
<path d="M932.921 613.39L1068.56 477.754" stroke="#EEBA05" stroke-width="12" stroke-miterlimit="10" stroke-linecap="round"/>
<path d="M948.361 668.325L1094.41 522.282" stroke="#EEBA05" stroke-width="12" stroke-miterlimit="10" stroke-linecap="round"/>
<path d="M1150.66 466.048L1105.16 511.537" stroke="#EEBA05" stroke-width="12" stroke-miterlimit="10" stroke-linecap="round"/>
<path d="M1502.45 114.271L1164.5 452.195" stroke="#EEBA05" stroke-width="12" stroke-miterlimit="10" stroke-linecap="round"/>
<path d="M955.566 731.507L1152.21 534.875" stroke="#EEBA05" stroke-width="12" stroke-miterlimit="10" stroke-linecap="round"/>
<path d="M1194.74 492.345L1190.78 496.303" stroke="#EEBA05" stroke-width="12" stroke-miterlimit="10" stroke-linecap="round"/>
<path d="M1559.76 127.351L1224.54 462.546" stroke="#EEBA05" stroke-width="12" stroke-miterlimit="10" stroke-linecap="round"/>
<path d="M977.794 779.661L1093.92 663.536" stroke="#EEBA05" stroke-width="12" stroke-miterlimit="10" stroke-linecap="round"/>
<path d="M1633.93 123.561L1262.87 494.599" stroke="#EEBA05" stroke-width="12" stroke-miterlimit="10" stroke-linecap="round"/>
<path d="M1328.07 499.781L1689.42 138.457" stroke="#EEBA05" stroke-width="12" stroke-miterlimit="10" stroke-linecap="round"/>
<path d="M1282.54 545.313L1308.47 519.385" stroke="#EEBA05" stroke-width="12" stroke-miterlimit="10" stroke-linecap="round"/>
<path d="M1386.98 511.25L1618.58 279.668" stroke="#EEBA05" stroke-width="12" stroke-miterlimit="10" stroke-linecap="round"/>
<path d="M1747.49 150.763L1651.4 246.853" stroke="#EEBA05" stroke-width="12" stroke-miterlimit="10" stroke-linecap="round"/>
<path d="M1386.36 582.248L1394.09 574.525" stroke="#EEBA05" stroke-width="12" stroke-miterlimit="10" stroke-linecap="round"/>
<path d="M1813.45 155.189L1744.6 224.034" stroke="#EEBA05" stroke-width="12" stroke-miterlimit="10" stroke-linecap="round"/>
<path d="M1424.92 543.696L1452.38 516.232" stroke="#EEBA05" stroke-width="12" stroke-miterlimit="10" stroke-linecap="round"/>
<path d="M1568.65 399.982L1561.92 406.7" stroke="#EEBA05" stroke-width="12" stroke-miterlimit="10" stroke-linecap="round"/>
<path d="M1532.32 436.312L1489.68 478.941" stroke="#EEBA05" stroke-width="12" stroke-miterlimit="10" stroke-linecap="round"/>
<path d="M1418.36 620.638L1431.99 607.009" stroke="#EEBA05" stroke-width="12" stroke-miterlimit="10" stroke-linecap="round"/>
<path d="M1852.33 186.699L1874.34 164.685" stroke="#EEBA05" stroke-width="12" stroke-miterlimit="10" stroke-linecap="round"/>
<path d="M1534.34 504.663L1517.32 521.689" stroke="#EEBA05" stroke-width="12" stroke-miterlimit="10" stroke-linecap="round"/>
<path d="M1463.54 645.848L1472.63 636.758" stroke="#EEBA05" stroke-width="12" stroke-miterlimit="10" stroke-linecap="round"/>
<path d="M1506.55 602.839L1487.47 621.918" stroke="#EEBA05" stroke-width="12" stroke-miterlimit="10" stroke-linecap="round"/>
<path d="M1551.46 557.931L1539.78 569.606" stroke="#EEBA05" stroke-width="12" stroke-miterlimit="10" stroke-linecap="round"/>
<path d="M1577.16 602.608L1571.59 608.177" stroke="#EEBA05" stroke-width="12" stroke-miterlimit="10" stroke-linecap="round"/>
<path d="M1635.57 614.576L1615.85 634.299" stroke="#EEBA05" stroke-width="12" stroke-miterlimit="10" stroke-linecap="round"/>
<path d="M1490.62 759.526L1584.19 665.958" stroke="#EEBA05" stroke-width="12" stroke-miterlimit="10" stroke-linecap="round"/>
<path d="M1671.18 649.357L1666.37 654.171" stroke="#EEBA05" stroke-width="12" stroke-miterlimit="10" stroke-linecap="round"/>
<path d="M1644.66 675.873L1534.02 786.503" stroke="#EEBA05" stroke-width="12" stroke-miterlimit="10" stroke-linecap="round"/>
<path d="M1599.75 791.161L1673.05 717.871" stroke="#EEBA05" stroke-width="12" stroke-miterlimit="10" stroke-linecap="round"/>
<path d="M1641.44 819.861L1693.51 767.792" stroke="#EEBA05" stroke-width="12" stroke-miterlimit="10" stroke-linecap="round"/>
<path d="M1825.01 812.245L1809.58 827.678" stroke="#EEBA05" stroke-width="12" stroke-miterlimit="10" stroke-linecap="round"/>
<path d="M1770.46 866.792L1803.98 833.278" stroke="#EEBA05" stroke-width="12" stroke-miterlimit="10" stroke-linecap="round"/>
<path d="M860.839 263.179L846.909 277.108" stroke="#EEBA05" stroke-width="12" stroke-linecap="round"/>
<path d="M823.158 300.858L838.617 285.399" stroke="#EEBA05" stroke-width="12" stroke-linecap="round"/>
</svg>
