<svg width="1880" height="935" viewBox="0 0 1880 935" fill="none" xmlns="http://www.w3.org/2000/svg">
<path d="M6 167.832L40.9518 132.882" stroke="#EEBA05" stroke-width="12" stroke-miterlimit="10" stroke-linecap="round"/>
<path d="M6.78027 237.432L102.751 141.467" stroke="#EEBA05" stroke-width="12" stroke-miterlimit="10" stroke-linecap="round"/>
<path d="M156.733 157.874L60.2256 254.37" stroke="#EEBA05" stroke-width="12" stroke-miterlimit="10" stroke-linecap="round"/>
<path d="M300.718 84.2781L280.895 104.1" stroke="#EEBA05" stroke-width="12" stroke-miterlimit="10" stroke-linecap="round"/>
<path d="M330.98 54.0107L325.686 59.305" stroke="#EEBA05" stroke-width="12" stroke-miterlimit="10" stroke-linecap="round"/>
<path d="M272.484 112.504L248.39 136.597" stroke="#EEBA05" stroke-width="12" stroke-miterlimit="10" stroke-linecap="round"/>
<path d="M135.317 249.663L228.104 156.881" stroke="#EEBA05" stroke-width="12" stroke-miterlimit="10" stroke-linecap="round"/>
<path d="M384.151 71.2234L355.381 99.9924" stroke="#EEBA05" stroke-width="12" stroke-miterlimit="10" stroke-linecap="round"/>
<path d="M181.515 273.849L278.678 176.691" stroke="#EEBA05" stroke-width="12" stroke-miterlimit="10" stroke-linecap="round"/>
<path d="M327.821 127.55L293.45 161.926" stroke="#EEBA05" stroke-width="12" stroke-miterlimit="10" stroke-linecap="round"/>
<path d="M443.965 11.4128L397.557 57.8254" stroke="#EEBA05" stroke-width="12" stroke-miterlimit="10" stroke-linecap="round"/>
<path d="M411.154 114.602L413.421 112.335" stroke="#EEBA05" stroke-width="12" stroke-miterlimit="10" stroke-linecap="round"/>
<path d="M422.168 103.595L515.31 10.4513" stroke="#EEBA05" stroke-width="12" stroke-miterlimit="10" stroke-linecap="round"/>
<path d="M216.71 309.042L351.241 174.512" stroke="#EEBA05" stroke-width="12" stroke-miterlimit="10" stroke-linecap="round"/>
<path d="M389.008 136.753L374.529 151.225" stroke="#EEBA05" stroke-width="12" stroke-miterlimit="10" stroke-linecap="round"/>
<path d="M567.663 28.4883L508.486 87.6621" stroke="#EEBA05" stroke-width="12" stroke-miterlimit="10" stroke-linecap="round"/>
<path d="M478.124 118.023L447.749 148.397" stroke="#EEBA05" stroke-width="12" stroke-miterlimit="10" stroke-linecap="round"/>
<path d="M215.773 380.359L438.945 157.199" stroke="#EEBA05" stroke-width="12" stroke-miterlimit="10" stroke-linecap="round"/>
<path d="M468.04 198.486L479.834 186.687" stroke="#EEBA05" stroke-width="12" stroke-miterlimit="10" stroke-linecap="round"/>
<path d="M520.412 146.118L494.245 172.283" stroke="#EEBA05" stroke-width="12" stroke-miterlimit="10" stroke-linecap="round"/>
<path d="M655.53 11.0071L569.293 97.233" stroke="#EEBA05" stroke-width="12" stroke-miterlimit="10" stroke-linecap="round"/>
<path d="M248.621 417.894L405.492 261.025" stroke="#EEBA05" stroke-width="12" stroke-miterlimit="10" stroke-linecap="round"/>
<path d="M725.915 11.0071L602.166 134.749" stroke="#EEBA05" stroke-width="12" stroke-miterlimit="10" stroke-linecap="round"/>
<path d="M533.343 203.568L519.713 217.191" stroke="#EEBA05" stroke-width="12" stroke-miterlimit="10" stroke-linecap="round"/>
<path d="M456.783 280.124L281.462 455.429" stroke="#EEBA05" stroke-width="12" stroke-miterlimit="10" stroke-linecap="round"/>
<path d="M477.506 259.396L504.909 232" stroke="#EEBA05" stroke-width="12" stroke-miterlimit="10" stroke-linecap="round"/>
<path d="M314.31 492.963L555.27 252.016" stroke="#EEBA05" stroke-width="12" stroke-miterlimit="10" stroke-linecap="round"/>
<path d="M789.512 17.7936L604.363 202.932" stroke="#EEBA05" stroke-width="12" stroke-miterlimit="10" stroke-linecap="round"/>
<path d="M589.204 288.464L555.438 322.228" stroke="#EEBA05" stroke-width="12" stroke-miterlimit="10" stroke-linecap="round"/>
<path d="M783.611 94.0737L696.557 181.124" stroke="#EEBA05" stroke-width="12" stroke-miterlimit="10" stroke-linecap="round"/>
<path d="M435.748 441.918L478.623 399.039" stroke="#EEBA05" stroke-width="12" stroke-miterlimit="10" stroke-linecap="round"/>
<path d="M659.526 218.146L643.692 233.986" stroke="#EEBA05" stroke-width="12" stroke-miterlimit="10" stroke-linecap="round"/>
<path d="M363.916 513.747L385.307 492.351" stroke="#EEBA05" stroke-width="12" stroke-miterlimit="10" stroke-linecap="round"/>
<path d="M542.015 335.651L515.754 361.917" stroke="#EEBA05" stroke-width="12" stroke-miterlimit="10" stroke-linecap="round"/>
<path d="M413.271 534.775L435.049 512.992" stroke="#EEBA05" stroke-width="12" stroke-miterlimit="10" stroke-linecap="round"/>
<path d="M450.09 568.338L470.294 548.135" stroke="#EEBA05" stroke-width="12" stroke-miterlimit="10" stroke-linecap="round"/>
<path d="M553.46 535.355L448.704 640.098" stroke="#EEBA05" stroke-width="12" stroke-miterlimit="10" stroke-linecap="round"/>
<path d="M482.107 677.084L586.651 572.546" stroke="#EEBA05" stroke-width="12" stroke-miterlimit="10" stroke-linecap="round"/>
<path d="M1009.17 150.051L908.49 250.718" stroke="#EEBA05" stroke-width="12" stroke-miterlimit="10" stroke-linecap="round"/>
<path d="M500.301 729.271L622.382 607.196" stroke="#EEBA05" stroke-width="12" stroke-miterlimit="10" stroke-linecap="round"/>
<path d="M1064.38 165.222L836.239 393.352" stroke="#EEBA05" stroke-width="12" stroke-miterlimit="10" stroke-linecap="round"/>
<path d="M1122.1 177.884L957.028 342.95" stroke="#EEBA05" stroke-width="12" stroke-miterlimit="10" stroke-linecap="round"/>
<path d="M952.589 347.389L942.3 357.678" stroke="#EEBA05" stroke-width="12" stroke-miterlimit="10" stroke-linecap="round"/>
<path d="M952.589 347.389L957.028 342.95" stroke="#EEBA05" stroke-width="12" stroke-miterlimit="10" stroke-linecap="round"/>
<path d="M487.695 812.257L678.101 621.856" stroke="#EEBA05" stroke-width="12" stroke-miterlimit="10" stroke-linecap="round"/>
<path d="M900.155 399.813L789.081 510.888" stroke="#EEBA05" stroke-width="12" stroke-miterlimit="10" stroke-linecap="round"/>
<path d="M481.37 888.962L613.903 756.436" stroke="#EEBA05" stroke-width="12" stroke-miterlimit="10" stroke-linecap="round"/>
<path d="M1246.71 123.667L989.582 380.778" stroke="#EEBA05" stroke-width="12" stroke-miterlimit="10" stroke-linecap="round"/>
<path d="M950.335 420.023L814.374 555.977" stroke="#EEBA05" stroke-width="12" stroke-miterlimit="10" stroke-linecap="round"/>
<path d="M632.179 738.162L672.993 697.35" stroke="#EEBA05" stroke-width="12" stroke-miterlimit="10" stroke-linecap="round"/>
<path d="M1332.87 107.89L1089.5 351.247" stroke="#EEBA05" stroke-width="12" stroke-miterlimit="10" stroke-linecap="round"/>
<path d="M512.438 928.276L522.747 917.968" stroke="#EEBA05" stroke-width="12" stroke-miterlimit="10" stroke-linecap="round"/>
<path d="M1067.07 373.679L1039.25 401.493" stroke="#EEBA05" stroke-width="12" stroke-miterlimit="10" stroke-linecap="round"/>
<path d="M1013.89 426.853L865.578 575.156" stroke="#EEBA05" stroke-width="12" stroke-miterlimit="10" stroke-linecap="round"/>
<path d="M931.91 579.208L1140.79 370.339" stroke="#EEBA05" stroke-width="12" stroke-miterlimit="10" stroke-linecap="round"/>
<path d="M1424.11 87.0376L1162.58 348.55" stroke="#EEBA05" stroke-width="12" stroke-miterlimit="10" stroke-linecap="round"/>
<path d="M1137.69 443.822L1092.2 489.311" stroke="#EEBA05" stroke-width="12" stroke-miterlimit="10" stroke-linecap="round"/>
<path d="M1473.18 108.346L1144.39 437.117" stroke="#EEBA05" stroke-width="12" stroke-miterlimit="10" stroke-linecap="round"/>
<path d="M943.123 638.375L1081.49 500.018" stroke="#EEBA05" stroke-width="12" stroke-miterlimit="10" stroke-linecap="round"/>
<path d="M944.454 707.426L1107.34 544.545" stroke="#EEBA05" stroke-width="12" stroke-miterlimit="10" stroke-linecap="round"/>
<path d="M1533.05 118.866L1194.52 457.37" stroke="#EEBA05" stroke-width="12" stroke-miterlimit="10" stroke-linecap="round"/>
<path d="M1178.75 473.147L1130.45 521.439" stroke="#EEBA05" stroke-width="12" stroke-miterlimit="10" stroke-linecap="round"/>
<path d="M966.681 755.58L1088.57 633.705" stroke="#EEBA05" stroke-width="12" stroke-miterlimit="10" stroke-linecap="round"/>
<path d="M1585.05 137.246L1245.84 476.437" stroke="#EEBA05" stroke-width="12" stroke-miterlimit="10" stroke-linecap="round"/>
<path d="M1662.72 129.967L1272.71 519.959" stroke="#EEBA05" stroke-width="12" stroke-miterlimit="10" stroke-linecap="round"/>
<path d="M1001.43 791.217L1071.33 721.317" stroke="#EEBA05" stroke-width="12" stroke-miterlimit="10" stroke-linecap="round"/>
<path d="M1372.19 490.853L1716.12 146.954" stroke="#EEBA05" stroke-width="12" stroke-miterlimit="10" stroke-linecap="round"/>
<path d="M1542.19 391.248L1626.33 307.113" stroke="#EEBA05" stroke-width="12" stroke-miterlimit="10" stroke-linecap="round"/>
<path d="M1401.78 531.646L1520.58 412.849" stroke="#EEBA05" stroke-width="12" stroke-miterlimit="10" stroke-linecap="round"/>
<path d="M1782.68 150.763L1691.62 241.827" stroke="#EEBA05" stroke-width="12" stroke-miterlimit="10" stroke-linecap="round"/>
<path d="M1647.64 356.185L1649.93 353.9" stroke="#EEBA05" stroke-width="12" stroke-miterlimit="10" stroke-linecap="round"/>
<path d="M1402.36 601.447L1413.04 590.771" stroke="#EEBA05" stroke-width="12" stroke-miterlimit="10" stroke-linecap="round"/>
<path d="M1419.95 583.859L1427.25 576.561" stroke="#EEBA05" stroke-width="12" stroke-miterlimit="10" stroke-linecap="round"/>
<path d="M1630.53 373.281L1577.09 426.729" stroke="#EEBA05" stroke-width="12" stroke-miterlimit="10" stroke-linecap="round"/>
<path d="M1741.66 262.162L1710.8 293.028" stroke="#EEBA05" stroke-width="12" stroke-miterlimit="10" stroke-linecap="round"/>
<path d="M1741.66 262.162L1772.31 231.513" stroke="#EEBA05" stroke-width="12" stroke-miterlimit="10" stroke-linecap="round"/>
<path d="M1772.31 231.514L1843.9 159.934" stroke="#EEBA05" stroke-width="12" stroke-miterlimit="10" stroke-linecap="round"/>
<path d="M1508.05 566.141L1464.08 610.106" stroke="#EEBA05" stroke-width="12" stroke-miterlimit="10" stroke-linecap="round"/>
<path d="M1521.84 622.736L1513.99 630.59" stroke="#EEBA05" stroke-width="12" stroke-miterlimit="10" stroke-linecap="round"/>
<path d="M1538.12 606.454L1536.77 607.808" stroke="#EEBA05" stroke-width="12" stroke-miterlimit="10" stroke-linecap="round"/>
<path d="M1530 614.576L1524.26 620.314" stroke="#EEBA05" stroke-width="12" stroke-miterlimit="10" stroke-linecap="round"/>
<path d="M1494.72 649.857L1497.91 646.667" stroke="#EEBA05" stroke-width="12" stroke-miterlimit="10" stroke-linecap="round"/>
<path d="M1597.1 617.86L1589.14 625.826" stroke="#EEBA05" stroke-width="12" stroke-miterlimit="10" stroke-linecap="round"/>
<path d="M1483.38 731.581L1497.57 717.384" stroke="#EEBA05" stroke-width="12" stroke-miterlimit="10" stroke-linecap="round"/>
<path d="M1657.57 627.774L1636.02 649.332" stroke="#EEBA05" stroke-width="12" stroke-miterlimit="10" stroke-linecap="round"/>
<path d="M1497.87 787.471L1602.2 683.146" stroke="#EEBA05" stroke-width="12" stroke-miterlimit="10" stroke-linecap="round"/>
<path d="M1579.11 776.608L1658.58 697.144" stroke="#EEBA05" stroke-width="12" stroke-miterlimit="10" stroke-linecap="round"/>
<path d="M1688.04 738.062L1619.69 806.413" stroke="#EEBA05" stroke-width="12" stroke-miterlimit="10" stroke-linecap="round"/>
<path d="M1652.48 844.004L1663.21 833.278" stroke="#EEBA05" stroke-width="12" stroke-miterlimit="10" stroke-linecap="round"/>
<path d="M1804.97 797.092L1806.69 795.381" stroke="#EEBA05" stroke-width="12" stroke-miterlimit="10" stroke-linecap="round"/>
<path d="M849.438 309.773L874.775 284.438" stroke="#EEBA05" stroke-width="12" stroke-linecap="round"/>
</svg>
