<svg width="1850" height="931" viewBox="0 0 1850 931" fill="none" xmlns="http://www.w3.org/2000/svg">
<path d="M6 163.832L40.9518 128.882" stroke="#EEBA05" stroke-width="12" stroke-miterlimit="10" stroke-linecap="round"/>
<path d="M6.78027 233.432L102.751 137.467" stroke="#EEBA05" stroke-width="12" stroke-miterlimit="10" stroke-linecap="round"/>
<path d="M156.733 153.874L60.2256 250.37" stroke="#EEBA05" stroke-width="12" stroke-miterlimit="10" stroke-linecap="round"/>
<path d="M300.718 80.2781L280.894 100.1" stroke="#EEBA05" stroke-width="12" stroke-miterlimit="10" stroke-linecap="round"/>
<path d="M330.981 50.0107L325.686 55.305" stroke="#EEBA05" stroke-width="12" stroke-miterlimit="10" stroke-linecap="round"/>
<path d="M272.484 108.504L248.39 132.597" stroke="#EEBA05" stroke-width="12" stroke-miterlimit="10" stroke-linecap="round"/>
<path d="M135.318 245.663L228.104 152.881" stroke="#EEBA05" stroke-width="12" stroke-miterlimit="10" stroke-linecap="round"/>
<path d="M384.151 67.2234L355.38 95.9924" stroke="#EEBA05" stroke-width="12" stroke-miterlimit="10" stroke-linecap="round"/>
<path d="M181.514 269.849L278.677 172.691" stroke="#EEBA05" stroke-width="12" stroke-miterlimit="10" stroke-linecap="round"/>
<path d="M327.821 123.55L293.45 157.926" stroke="#EEBA05" stroke-width="12" stroke-miterlimit="10" stroke-linecap="round"/>
<path d="M443.965 7.41284L397.556 53.8254" stroke="#EEBA05" stroke-width="12" stroke-miterlimit="10" stroke-linecap="round"/>
<path d="M411.155 110.602L413.421 108.335" stroke="#EEBA05" stroke-width="12" stroke-miterlimit="10" stroke-linecap="round"/>
<path d="M422.168 99.5948L515.311 6.45129" stroke="#EEBA05" stroke-width="12" stroke-miterlimit="10" stroke-linecap="round"/>
<path d="M216.71 305.042L351.241 170.512" stroke="#EEBA05" stroke-width="12" stroke-miterlimit="10" stroke-linecap="round"/>
<path d="M389.009 132.753L374.53 147.225" stroke="#EEBA05" stroke-width="12" stroke-miterlimit="10" stroke-linecap="round"/>
<path d="M567.663 24.4883L508.486 83.6621" stroke="#EEBA05" stroke-width="12" stroke-miterlimit="10" stroke-linecap="round"/>
<path d="M478.124 114.023L447.749 144.397" stroke="#EEBA05" stroke-width="12" stroke-miterlimit="10" stroke-linecap="round"/>
<path d="M215.773 376.359L438.945 153.199" stroke="#EEBA05" stroke-width="12" stroke-miterlimit="10" stroke-linecap="round"/>
<path d="M468.041 194.486L479.835 182.687" stroke="#EEBA05" stroke-width="12" stroke-miterlimit="10" stroke-linecap="round"/>
<path d="M520.412 142.118L494.245 168.283" stroke="#EEBA05" stroke-width="12" stroke-miterlimit="10" stroke-linecap="round"/>
<path d="M655.53 7.00708L569.293 93.233" stroke="#EEBA05" stroke-width="12" stroke-miterlimit="10" stroke-linecap="round"/>
<path d="M248.621 413.894L405.492 257.025" stroke="#EEBA05" stroke-width="12" stroke-miterlimit="10" stroke-linecap="round"/>
<path d="M725.915 7.00708L602.166 130.749" stroke="#EEBA05" stroke-width="12" stroke-miterlimit="10" stroke-linecap="round"/>
<path d="M533.342 199.568L519.712 213.191" stroke="#EEBA05" stroke-width="12" stroke-miterlimit="10" stroke-linecap="round"/>
<path d="M456.783 276.124L281.462 451.429" stroke="#EEBA05" stroke-width="12" stroke-miterlimit="10" stroke-linecap="round"/>
<path d="M477.506 255.396L504.909 228" stroke="#EEBA05" stroke-width="12" stroke-miterlimit="10" stroke-linecap="round"/>
<path d="M314.31 488.963L555.27 248.016" stroke="#EEBA05" stroke-width="12" stroke-miterlimit="10" stroke-linecap="round"/>
<path d="M789.512 13.7936L604.363 198.932" stroke="#EEBA05" stroke-width="12" stroke-miterlimit="10" stroke-linecap="round"/>
<path d="M589.204 284.464L555.438 318.228" stroke="#EEBA05" stroke-width="12" stroke-miterlimit="10" stroke-linecap="round"/>
<path d="M783.612 90.0737L696.557 177.124" stroke="#EEBA05" stroke-width="12" stroke-miterlimit="10" stroke-linecap="round"/>
<path d="M435.748 437.918L478.623 395.039" stroke="#EEBA05" stroke-width="12" stroke-miterlimit="10" stroke-linecap="round"/>
<path d="M659.526 214.146L643.692 229.986" stroke="#EEBA05" stroke-width="12" stroke-miterlimit="10" stroke-linecap="round"/>
<path d="M363.916 509.747L385.306 488.351" stroke="#EEBA05" stroke-width="12" stroke-miterlimit="10" stroke-linecap="round"/>
<path d="M542.015 331.651L515.754 357.917" stroke="#EEBA05" stroke-width="12" stroke-miterlimit="10" stroke-linecap="round"/>
<path d="M413.271 530.775L435.049 508.992" stroke="#EEBA05" stroke-width="12" stroke-miterlimit="10" stroke-linecap="round"/>
<path d="M450.09 564.338L470.294 544.135" stroke="#EEBA05" stroke-width="12" stroke-miterlimit="10" stroke-linecap="round"/>
<path d="M553.459 531.355L448.704 636.098" stroke="#EEBA05" stroke-width="12" stroke-miterlimit="10" stroke-linecap="round"/>
<path d="M482.107 673.084L586.651 568.546" stroke="#EEBA05" stroke-width="12" stroke-miterlimit="10" stroke-linecap="round"/>
<path d="M1009.17 146.051L908.49 246.718" stroke="#EEBA05" stroke-width="12" stroke-miterlimit="10" stroke-linecap="round"/>
<path d="M500.301 725.271L622.383 603.196" stroke="#EEBA05" stroke-width="12" stroke-miterlimit="10" stroke-linecap="round"/>
<path d="M1064.38 161.222L836.239 389.352" stroke="#EEBA05" stroke-width="12" stroke-miterlimit="10" stroke-linecap="round"/>
<path d="M1122.1 173.884L957.028 338.95" stroke="#EEBA05" stroke-width="12" stroke-miterlimit="10" stroke-linecap="round"/>
<path d="M952.589 343.389L942.299 353.678" stroke="#EEBA05" stroke-width="12" stroke-miterlimit="10" stroke-linecap="round"/>
<path d="M952.589 343.389L957.028 338.95" stroke="#EEBA05" stroke-width="12" stroke-miterlimit="10" stroke-linecap="round"/>
<path d="M487.695 808.257L678.101 617.856" stroke="#EEBA05" stroke-width="12" stroke-miterlimit="10" stroke-linecap="round"/>
<path d="M900.155 395.813L789.081 506.888" stroke="#EEBA05" stroke-width="12" stroke-miterlimit="10" stroke-linecap="round"/>
<path d="M481.371 884.962L613.904 752.436" stroke="#EEBA05" stroke-width="12" stroke-miterlimit="10" stroke-linecap="round"/>
<path d="M1246.71 119.667L989.583 376.778" stroke="#EEBA05" stroke-width="12" stroke-miterlimit="10" stroke-linecap="round"/>
<path d="M950.335 416.023L814.374 551.977" stroke="#EEBA05" stroke-width="12" stroke-miterlimit="10" stroke-linecap="round"/>
<path d="M632.179 734.162L672.994 693.35" stroke="#EEBA05" stroke-width="12" stroke-miterlimit="10" stroke-linecap="round"/>
<path d="M1332.87 103.89L1089.5 347.247" stroke="#EEBA05" stroke-width="12" stroke-miterlimit="10" stroke-linecap="round"/>
<path d="M512.438 924.276L522.747 913.968" stroke="#EEBA05" stroke-width="12" stroke-miterlimit="10" stroke-linecap="round"/>
<path d="M1067.07 369.679L1039.25 397.493" stroke="#EEBA05" stroke-width="12" stroke-miterlimit="10" stroke-linecap="round"/>
<path d="M1013.89 422.853L865.578 571.156" stroke="#EEBA05" stroke-width="12" stroke-miterlimit="10" stroke-linecap="round"/>
<path d="M931.91 575.208L1140.79 366.339" stroke="#EEBA05" stroke-width="12" stroke-miterlimit="10" stroke-linecap="round"/>
<path d="M1424.11 83.0376L1162.58 344.55" stroke="#EEBA05" stroke-width="12" stroke-miterlimit="10" stroke-linecap="round"/>
<path d="M1137.69 439.822L1092.2 485.311" stroke="#EEBA05" stroke-width="12" stroke-miterlimit="10" stroke-linecap="round"/>
<path d="M1473.18 104.346L1144.39 433.117" stroke="#EEBA05" stroke-width="12" stroke-miterlimit="10" stroke-linecap="round"/>
<path d="M943.124 634.375L1081.49 496.018" stroke="#EEBA05" stroke-width="12" stroke-miterlimit="10" stroke-linecap="round"/>
<path d="M944.454 703.426L1107.34 540.545" stroke="#EEBA05" stroke-width="12" stroke-miterlimit="10" stroke-linecap="round"/>
<path d="M1533.05 114.866L1194.52 453.37" stroke="#EEBA05" stroke-width="12" stroke-miterlimit="10" stroke-linecap="round"/>
<path d="M1178.75 469.147L1130.45 517.439" stroke="#EEBA05" stroke-width="12" stroke-miterlimit="10" stroke-linecap="round"/>
<path d="M966.681 751.58L1088.57 629.705" stroke="#EEBA05" stroke-width="12" stroke-miterlimit="10" stroke-linecap="round"/>
<path d="M1585.05 133.246L1245.84 472.437" stroke="#EEBA05" stroke-width="12" stroke-miterlimit="10" stroke-linecap="round"/>
<path d="M1662.72 125.967L1272.71 515.959" stroke="#EEBA05" stroke-width="12" stroke-miterlimit="10" stroke-linecap="round"/>
<path d="M1001.43 787.217L1071.33 717.317" stroke="#EEBA05" stroke-width="12" stroke-miterlimit="10" stroke-linecap="round"/>
<path d="M1372.19 486.853L1716.12 142.954" stroke="#EEBA05" stroke-width="12" stroke-miterlimit="10" stroke-linecap="round"/>
<path d="M1542.19 387.248L1626.33 303.113" stroke="#EEBA05" stroke-width="12" stroke-miterlimit="10" stroke-linecap="round"/>
<path d="M1401.78 527.646L1520.58 408.849" stroke="#EEBA05" stroke-width="12" stroke-miterlimit="10" stroke-linecap="round"/>
<path d="M1782.68 146.763L1691.62 237.827" stroke="#EEBA05" stroke-width="12" stroke-miterlimit="10" stroke-linecap="round"/>
<path d="M1647.64 352.185L1649.93 349.9" stroke="#EEBA05" stroke-width="12" stroke-miterlimit="10" stroke-linecap="round"/>
<path d="M1402.36 597.447L1413.04 586.771" stroke="#EEBA05" stroke-width="12" stroke-miterlimit="10" stroke-linecap="round"/>
<path d="M1419.95 579.859L1427.25 572.561" stroke="#EEBA05" stroke-width="12" stroke-miterlimit="10" stroke-linecap="round"/>
<path d="M1630.53 369.281L1577.09 422.729" stroke="#EEBA05" stroke-width="12" stroke-miterlimit="10" stroke-linecap="round"/>
<path d="M1741.66 258.162L1710.8 289.028" stroke="#EEBA05" stroke-width="12" stroke-miterlimit="10" stroke-linecap="round"/>
<path d="M1741.66 258.162L1772.31 227.513" stroke="#EEBA05" stroke-width="12" stroke-miterlimit="10" stroke-linecap="round"/>
<path d="M1772.31 227.514L1843.9 155.934" stroke="#EEBA05" stroke-width="12" stroke-miterlimit="10" stroke-linecap="round"/>
<path d="M1508.05 562.141L1464.08 606.106" stroke="#EEBA05" stroke-width="12" stroke-miterlimit="10" stroke-linecap="round"/>
<path d="M1521.84 618.736L1513.99 626.59" stroke="#EEBA05" stroke-width="12" stroke-miterlimit="10" stroke-linecap="round"/>
<path d="M1538.12 602.454L1536.77 603.808" stroke="#EEBA05" stroke-width="12" stroke-miterlimit="10" stroke-linecap="round"/>
<path d="M1530 610.576L1524.26 616.314" stroke="#EEBA05" stroke-width="12" stroke-miterlimit="10" stroke-linecap="round"/>
<path d="M1494.72 645.857L1497.91 642.667" stroke="#EEBA05" stroke-width="12" stroke-miterlimit="10" stroke-linecap="round"/>
<path d="M1597.1 613.86L1589.14 621.826" stroke="#EEBA05" stroke-width="12" stroke-miterlimit="10" stroke-linecap="round"/>
<path d="M1483.38 727.581L1497.57 713.384" stroke="#EEBA05" stroke-width="12" stroke-miterlimit="10" stroke-linecap="round"/>
<path d="M1657.57 623.774L1636.02 645.332" stroke="#EEBA05" stroke-width="12" stroke-miterlimit="10" stroke-linecap="round"/>
<path d="M1497.87 783.471L1602.2 679.146" stroke="#EEBA05" stroke-width="12" stroke-miterlimit="10" stroke-linecap="round"/>
<path d="M1579.11 772.608L1658.58 693.144" stroke="#EEBA05" stroke-width="12" stroke-miterlimit="10" stroke-linecap="round"/>
<path d="M1688.04 734.062L1619.69 802.413" stroke="#EEBA05" stroke-width="12" stroke-miterlimit="10" stroke-linecap="round"/>
<path d="M1652.48 840.004L1663.21 829.278" stroke="#EEBA05" stroke-width="12" stroke-miterlimit="10" stroke-linecap="round"/>
<path d="M1804.97 793.092L1806.69 791.381" stroke="#EEBA05" stroke-width="12" stroke-miterlimit="10" stroke-linecap="round"/>
<path d="M849.438 305.773L874.775 280.438" stroke="#EEBA05" stroke-width="12" stroke-linecap="round"/>
</svg>
