<svg width="1866" height="922" viewBox="0 0 1866 922" fill="none" xmlns="http://www.w3.org/2000/svg">
<path d="M6.77734 187.249L56.8512 137.177" stroke="#EEBA05" stroke-width="12" stroke-miterlimit="10" stroke-linecap="round"/>
<path d="M115.435 148.971L15.2437 249.163" stroke="#EEBA05" stroke-width="12" stroke-miterlimit="10" stroke-linecap="round"/>
<path d="M257.74 77.0609L242.474 92.3195" stroke="#EEBA05" stroke-width="12" stroke-miterlimit="10" stroke-linecap="round"/>
<path d="M275.072 59.7297L263.902 70.8927" stroke="#EEBA05" stroke-width="12" stroke-miterlimit="10" stroke-linecap="round"/>
<path d="M93.5386 241.253L188.423 146.374" stroke="#EEBA05" stroke-width="12" stroke-miterlimit="10" stroke-linecap="round"/>
<path d="M229.718 105.081L201.959 132.838" stroke="#EEBA05" stroke-width="12" stroke-miterlimit="10" stroke-linecap="round"/>
<path d="M337.621 67.5649L335.154 70.031" stroke="#EEBA05" stroke-width="12" stroke-miterlimit="10" stroke-linecap="round"/>
<path d="M384.167 21.0214L360.01 45.1766" stroke="#EEBA05" stroke-width="12" stroke-miterlimit="10" stroke-linecap="round"/>
<path d="M348.397 56.7889L350.214 54.9658" stroke="#EEBA05" stroke-width="12" stroke-miterlimit="10" stroke-linecap="round"/>
<path d="M318.784 86.4008L322.405 82.7734" stroke="#EEBA05" stroke-width="12" stroke-miterlimit="10" stroke-linecap="round"/>
<path d="M250.859 154.322L284.138 121.045" stroke="#EEBA05" stroke-width="12" stroke-miterlimit="10" stroke-linecap="round"/>
<path d="M311.685 93.4995L307.064 98.1195" stroke="#EEBA05" stroke-width="12" stroke-miterlimit="10" stroke-linecap="round"/>
<path d="M147.097 258.079L237.785 167.395" stroke="#EEBA05" stroke-width="12" stroke-miterlimit="10" stroke-linecap="round"/>
<path d="M184.109 291.443L299.959 175.605" stroke="#EEBA05" stroke-width="12" stroke-miterlimit="10" stroke-linecap="round"/>
<path d="M341.092 134.474L364.037 111.53" stroke="#EEBA05" stroke-width="12" stroke-miterlimit="10" stroke-linecap="round"/>
<path d="M469.573 6L373.771 101.797" stroke="#EEBA05" stroke-width="12" stroke-miterlimit="10" stroke-linecap="round"/>
<path d="M327.443 148.122L324.134 151.431" stroke="#EEBA05" stroke-width="12" stroke-miterlimit="10" stroke-linecap="round"/>
<path d="M433.079 112.872L396.635 149.314" stroke="#EEBA05" stroke-width="12" stroke-miterlimit="10" stroke-linecap="round"/>
<path d="M479.407 66.5472L482.554 63.4006" stroke="#EEBA05" stroke-width="12" stroke-miterlimit="10" stroke-linecap="round"/>
<path d="M213.373 332.567L386.015 159.934" stroke="#EEBA05" stroke-width="12" stroke-miterlimit="10" stroke-linecap="round"/>
<path d="M531.048 14.9092L518.386 27.5706" stroke="#EEBA05" stroke-width="12" stroke-miterlimit="10" stroke-linecap="round"/>
<path d="M217.193 399.127L367.265 249.063" stroke="#EEBA05" stroke-width="12" stroke-miterlimit="10" stroke-linecap="round"/>
<path d="M484.564 131.771L459.446 156.887" stroke="#EEBA05" stroke-width="12" stroke-miterlimit="10" stroke-linecap="round"/>
<path d="M602.194 14.1473L528.444 87.893" stroke="#EEBA05" stroke-width="12" stroke-miterlimit="10" stroke-linecap="round"/>
<path d="M521.576 165.141L481.43 205.285" stroke="#EEBA05" stroke-width="12" stroke-miterlimit="10" stroke-linecap="round"/>
<path d="M453.402 233.311L466.682 220.032" stroke="#EEBA05" stroke-width="12" stroke-miterlimit="10" stroke-linecap="round"/>
<path d="M675.719 11.0071L570.732 115.994" stroke="#EEBA05" stroke-width="12" stroke-miterlimit="10" stroke-linecap="round"/>
<path d="M250.041 436.661L413.718 272.994" stroke="#EEBA05" stroke-width="12" stroke-miterlimit="10" stroke-linecap="round"/>
<path d="M282.889 474.196L510.163 246.934" stroke="#EEBA05" stroke-width="12" stroke-miterlimit="10" stroke-linecap="round"/>
<path d="M746.103 11.0071L588.527 168.575" stroke="#EEBA05" stroke-width="12" stroke-miterlimit="10" stroke-linecap="round"/>
<path d="M321.188 506.28L351.588 475.888" stroke="#EEBA05" stroke-width="12" stroke-miterlimit="10" stroke-linecap="round"/>
<path d="M558.707 268.773L390.772 436.705" stroke="#EEBA05" stroke-width="12" stroke-miterlimit="10" stroke-linecap="round"/>
<path d="M802.745 24.7484L792.849 34.644" stroke="#EEBA05" stroke-width="12" stroke-miterlimit="10" stroke-linecap="round"/>
<path d="M606.858 220.625L757.017 70.4744" stroke="#EEBA05" stroke-width="12" stroke-miterlimit="10" stroke-linecap="round"/>
<path d="M584.556 313.307L570.07 327.791" stroke="#EEBA05" stroke-width="12" stroke-miterlimit="10" stroke-linecap="round"/>
<path d="M374.808 523.043L396.173 501.685" stroke="#EEBA05" stroke-width="12" stroke-miterlimit="10" stroke-linecap="round"/>
<path d="M421.778 546.456L408.067 560.172" stroke="#EEBA05" stroke-width="12" stroke-miterlimit="10" stroke-linecap="round"/>
<path d="M439.186 599.436L504.207 534.412" stroke="#EEBA05" stroke-width="12" stroke-miterlimit="10" stroke-linecap="round"/>
<path d="M450.405 658.591L555.055 553.948" stroke="#EEBA05" stroke-width="12" stroke-miterlimit="10" stroke-linecap="round"/>
<path d="M848.442 330.956L885.748 293.659" stroke="#EEBA05" stroke-width="12" stroke-miterlimit="10" stroke-linecap="round"/>
<path d="M483.809 695.57L588.246 591.145" stroke="#EEBA05" stroke-width="12" stroke-miterlimit="10" stroke-linecap="round"/>
<path d="M1025.51 153.897L926.194 253.209" stroke="#EEBA05" stroke-width="12" stroke-miterlimit="10" stroke-linecap="round"/>
<path d="M1073.24 176.548L896.406 353.382" stroke="#EEBA05" stroke-width="12" stroke-miterlimit="10" stroke-linecap="round"/>
<path d="M875.939 373.848L855.441 394.338" stroke="#EEBA05" stroke-width="12" stroke-miterlimit="10" stroke-linecap="round"/>
<path d="M839.47 410.308L775.854 473.921" stroke="#EEBA05" stroke-width="12" stroke-miterlimit="10" stroke-linecap="round"/>
<path d="M479.001 770.764L635.241 614.526" stroke="#EEBA05" stroke-width="12" stroke-miterlimit="10" stroke-linecap="round"/>
<path d="M466.395 853.75L684.26 635.897" stroke="#EEBA05" stroke-width="12" stroke-miterlimit="10" stroke-linecap="round"/>
<path d="M1155.88 164.298L959.354 360.818" stroke="#EEBA05" stroke-width="12" stroke-miterlimit="10" stroke-linecap="round"/>
<path d="M944.194 375.977L953.035 367.13" stroke="#EEBA05" stroke-width="12" stroke-miterlimit="10" stroke-linecap="round"/>
<path d="M918.54 401.624L780.375 539.782" stroke="#EEBA05" stroke-width="12" stroke-miterlimit="10" stroke-linecap="round"/>
<path d="M1014.42 376.133L1020.29 370.264" stroke="#EEBA05" stroke-width="12" stroke-miterlimit="10" stroke-linecap="round"/>
<path d="M959.448 431.099L818.367 572.178" stroke="#EEBA05" stroke-width="12" stroke-miterlimit="10" stroke-linecap="round"/>
<path d="M1257.57 132.994L1045.98 344.573" stroke="#EEBA05" stroke-width="12" stroke-miterlimit="10" stroke-linecap="round"/>
<path d="M474.812 915.708L501.884 888.643" stroke="#EEBA05" stroke-width="12" stroke-miterlimit="10" stroke-linecap="round"/>
<path d="M890.518 570.405L1026.64 434.295" stroke="#EEBA05" stroke-width="12" stroke-miterlimit="10" stroke-linecap="round"/>
<path d="M1363.49 97.4641L1053.42 407.518" stroke="#EEBA05" stroke-width="12" stroke-miterlimit="10" stroke-linecap="round"/>
<path d="M1134.96 396.361L1064.23 467.085" stroke="#EEBA05" stroke-width="12" stroke-miterlimit="10" stroke-linecap="round"/>
<path d="M1443.91 87.4248L1152.52 378.805" stroke="#EEBA05" stroke-width="12" stroke-miterlimit="10" stroke-linecap="round"/>
<path d="M917.921 613.39L1053.56 477.754" stroke="#EEBA05" stroke-width="12" stroke-miterlimit="10" stroke-linecap="round"/>
<path d="M933.362 668.325L1079.41 522.282" stroke="#EEBA05" stroke-width="12" stroke-miterlimit="10" stroke-linecap="round"/>
<path d="M1135.66 466.048L1090.16 511.537" stroke="#EEBA05" stroke-width="12" stroke-miterlimit="10" stroke-linecap="round"/>
<path d="M1487.45 114.271L1149.5 452.195" stroke="#EEBA05" stroke-width="12" stroke-miterlimit="10" stroke-linecap="round"/>
<path d="M940.567 731.507L1137.21 534.875" stroke="#EEBA05" stroke-width="12" stroke-miterlimit="10" stroke-linecap="round"/>
<path d="M1179.74 492.345L1175.78 496.303" stroke="#EEBA05" stroke-width="12" stroke-miterlimit="10" stroke-linecap="round"/>
<path d="M1544.76 127.351L1209.54 462.546" stroke="#EEBA05" stroke-width="12" stroke-miterlimit="10" stroke-linecap="round"/>
<path d="M962.794 779.661L1078.92 663.536" stroke="#EEBA05" stroke-width="12" stroke-miterlimit="10" stroke-linecap="round"/>
<path d="M1618.93 123.561L1247.87 494.599" stroke="#EEBA05" stroke-width="12" stroke-miterlimit="10" stroke-linecap="round"/>
<path d="M1313.07 499.781L1674.42 138.457" stroke="#EEBA05" stroke-width="12" stroke-miterlimit="10" stroke-linecap="round"/>
<path d="M1267.54 545.313L1293.47 519.385" stroke="#EEBA05" stroke-width="12" stroke-miterlimit="10" stroke-linecap="round"/>
<path d="M1371.98 511.25L1603.58 279.668" stroke="#EEBA05" stroke-width="12" stroke-miterlimit="10" stroke-linecap="round"/>
<path d="M1732.49 150.763L1636.4 246.853" stroke="#EEBA05" stroke-width="12" stroke-miterlimit="10" stroke-linecap="round"/>
<path d="M1371.36 582.248L1379.09 574.525" stroke="#EEBA05" stroke-width="12" stroke-miterlimit="10" stroke-linecap="round"/>
<path d="M1798.45 155.189L1729.6 224.034" stroke="#EEBA05" stroke-width="12" stroke-miterlimit="10" stroke-linecap="round"/>
<path d="M1409.92 543.696L1437.38 516.232" stroke="#EEBA05" stroke-width="12" stroke-miterlimit="10" stroke-linecap="round"/>
<path d="M1553.65 399.982L1546.92 406.7" stroke="#EEBA05" stroke-width="12" stroke-miterlimit="10" stroke-linecap="round"/>
<path d="M1517.32 436.312L1474.68 478.941" stroke="#EEBA05" stroke-width="12" stroke-miterlimit="10" stroke-linecap="round"/>
<path d="M1403.36 620.638L1416.99 607.009" stroke="#EEBA05" stroke-width="12" stroke-miterlimit="10" stroke-linecap="round"/>
<path d="M1837.33 186.699L1859.34 164.685" stroke="#EEBA05" stroke-width="12" stroke-miterlimit="10" stroke-linecap="round"/>
<path d="M1519.34 504.663L1502.32 521.689" stroke="#EEBA05" stroke-width="12" stroke-miterlimit="10" stroke-linecap="round"/>
<path d="M1448.54 645.848L1457.63 636.758" stroke="#EEBA05" stroke-width="12" stroke-miterlimit="10" stroke-linecap="round"/>
<path d="M1491.55 602.839L1472.47 621.918" stroke="#EEBA05" stroke-width="12" stroke-miterlimit="10" stroke-linecap="round"/>
<path d="M1536.46 557.931L1524.78 569.606" stroke="#EEBA05" stroke-width="12" stroke-miterlimit="10" stroke-linecap="round"/>
<path d="M1562.16 602.608L1556.59 608.177" stroke="#EEBA05" stroke-width="12" stroke-miterlimit="10" stroke-linecap="round"/>
<path d="M1620.57 614.576L1600.85 634.299" stroke="#EEBA05" stroke-width="12" stroke-miterlimit="10" stroke-linecap="round"/>
<path d="M1475.62 759.526L1569.19 665.958" stroke="#EEBA05" stroke-width="12" stroke-miterlimit="10" stroke-linecap="round"/>
<path d="M1656.18 649.357L1651.37 654.171" stroke="#EEBA05" stroke-width="12" stroke-miterlimit="10" stroke-linecap="round"/>
<path d="M1629.66 675.873L1519.02 786.503" stroke="#EEBA05" stroke-width="12" stroke-miterlimit="10" stroke-linecap="round"/>
<path d="M1584.75 791.161L1658.05 717.871" stroke="#EEBA05" stroke-width="12" stroke-miterlimit="10" stroke-linecap="round"/>
<path d="M1626.44 819.861L1678.51 767.792" stroke="#EEBA05" stroke-width="12" stroke-miterlimit="10" stroke-linecap="round"/>
<path d="M1810.01 812.245L1794.58 827.678" stroke="#EEBA05" stroke-width="12" stroke-miterlimit="10" stroke-linecap="round"/>
<path d="M1755.46 866.792L1788.98 833.278" stroke="#EEBA05" stroke-width="12" stroke-miterlimit="10" stroke-linecap="round"/>
<path d="M845.839 263.179L831.909 277.108" stroke="#EEBA05" stroke-width="12" stroke-linecap="round"/>
<path d="M808.158 300.858L823.617 285.399" stroke="#EEBA05" stroke-width="12" stroke-linecap="round"/>
</svg>
