<svg width="48" height="48" viewBox="0 0 48 48" fill="none" xmlns="http://www.w3.org/2000/svg">
<path d="M42.4521 40.0259C36.8338 43.87 29.3199 43.4611 24.2818 38.8827C21.5913 36.4376 18.7402 33.7819 16.48 31.5217C14.2853 29.327 11.7639 26.6214 9.43725 24.0593C4.87106 19.0311 4.47527 11.536 8.31069 5.93039L9.32778 4.44388C10.1278 3.27455 11.8566 3.28496 12.6425 4.46384L18.5757 13.3637C19.1045 14.1569 19 15.2131 18.3258 15.8873L16.9318 17.2813C15.8944 18.3187 15.7593 19.9528 16.6472 21.1207C17.9212 22.7965 19.7772 25.1369 21.321 26.6807C22.8266 28.1864 24.9748 29.8738 26.5415 31.045C27.7033 31.9135 29.3146 31.7685 30.3403 30.7428L31.7465 29.3366C32.4271 28.6561 33.4958 28.5568 34.2901 29.1002L43.9428 35.7047C45.1037 36.499 45.1037 38.2117 43.9428 39.0059L42.4521 40.0259Z" fill="black"/>
</svg>
