<svg width="48" height="48" viewBox="0 0 48 48" fill="none" xmlns="http://www.w3.org/2000/svg">
<path d="M23.5153 7.90409C23.8221 7.7552 24.1779 7.7552 24.4847 7.90409L43.3525 17.061C44.2158 17.48 44.2158 18.7387 43.3525 19.1577L24.4847 28.3146C24.1779 28.4635 23.8221 28.4635 23.5153 28.3146L4.64755 19.1577C3.78415 18.7387 3.78415 17.48 4.64755 17.061L23.5153 7.90409Z" fill="#FF00FF"/>
<path d="M35.3224 32.8321C35.3224 36.6761 32.2809 39.7924 28.529 39.7924H19.471C15.7191 39.7924 12.6776 36.6761 12.6776 32.8321V25.3733L23.5157 30.6343C23.8224 30.7831 24.1776 30.7831 24.4843 30.6343L35.3224 25.3733V32.8321Z" fill="#FF00FF"/>
<path d="M13.9403 14.8705C15.1723 13.1035 17.1899 11.9511 19.471 11.9511H19.9586L13.9403 14.8705Z" fill="#FF00FF"/>
<path d="M28.529 11.9511C30.8098 11.9511 32.8266 13.1038 34.0586 14.8705L28.0414 11.9511H28.529Z" fill="#FF00FF"/>
<path d="M8.10794 18.1094H9.24018V34.3501H8.10794V18.1094Z" fill="#FF00FF"/>
<path d="M10.4131 36.0902L8.71469 37.8303L7.01633 36.0902L7.58245 35.5102H9.84694L10.4131 36.0902Z" fill="#FF00FF"/>
</svg>
