<svg width="48" height="48" viewBox="0 0 48 48" fill="none" xmlns="http://www.w3.org/2000/svg">
<path d="M36 42C37.1046 42 38 42.8954 38 44C38 45.1046 37.1046 46 36 46H12C10.8954 46 10 45.1046 10 44C10 42.8954 10.8954 42 12 42H36Z" fill="black"/>
<path d="M24 2C25.1046 2 26 2.89543 26 4V19H36.1318C36.9303 19.0003 37.4066 19.8902 36.9639 20.5547L24.832 38.752C24.4362 39.3456 23.5638 39.3456 23.168 38.752L11.0361 20.5547C10.5934 19.8902 11.0698 19.0003 11.8682 19H22V4C22 2.89543 22.8954 2 24 2Z" fill="black"/>
</svg>
