<svg width="48" height="48" viewBox="0 0 48 48" fill="none" xmlns="http://www.w3.org/2000/svg">
<path d="M32.3484 17.9983C37.1097 17.9983 40.6794 21.096 40.6794 27.7532V40.1809H33.4431V28.5862C33.443 25.6724 32.3951 23.6848 29.7771 23.6848C27.7777 23.685 26.5872 25.0257 26.0642 26.3206C25.8733 26.7826 25.8259 27.4313 25.8259 28.0784V40.1809H18.5896C18.5901 40.0871 18.6836 20.5375 18.5896 18.5071H25.8259V21.5764C26.7876 20.0997 28.5087 17.9984 32.3484 17.9983Z" fill="black"/>
<path d="M14.5837 18.5061V40.1809H7.34644V18.5061H14.5837Z" fill="black"/>
<path d="M11.0144 8.05786C13.4896 8.05786 15.0129 9.67582 15.0603 11.803C15.0603 13.8828 13.4896 15.547 10.9666 15.5471H10.9187C8.48984 15.547 6.91972 13.8828 6.91968 11.803C6.91968 9.67581 8.53733 8.05786 11.0144 8.05786Z" fill="black"/>
</svg>
