<svg width="1032" height="400" viewBox="0 0 1032 400" fill="none" xmlns="http://www.w3.org/2000/svg">
<mask id="path-1-inside-1_655_318" fill="white">
<path d="M30.9752 168.938C29.2355 165.925 30.6458 163.482 34.1252 163.482H889.875C893.355 163.482 897.585 165.925 899.325 168.938L1022.18 381.721C1023.91 384.734 1022.5 387.177 1019.03 387.177H163.275C159.796 387.177 155.565 384.734 153.825 381.721L30.9752 168.938Z"/>
</mask>
<path d="M30.9752 168.938C29.2355 165.925 30.6458 163.482 34.1252 163.482H889.875C893.355 163.482 897.585 165.925 899.325 168.938L1022.18 381.721C1023.91 384.734 1022.5 387.177 1019.03 387.177H163.275C159.796 387.177 155.565 384.734 153.825 381.721L30.9752 168.938Z" fill="black" fill-opacity="0.1"/>
<path d="M34.1252 163.482L34.6502 164.392H890.4L889.875 163.482L889.35 162.573H33.6002L34.1252 163.482ZM899.325 168.938H898.275L1021.13 381.721H1022.18H1023.23L900.375 168.938H899.325ZM1019.03 387.177L1018.5 386.267H162.75L163.275 387.177L163.8 388.086H1019.55L1019.03 387.177ZM153.825 381.721H154.875L32.0252 168.938H30.9752H29.9252L152.775 381.721H153.825ZM163.275 387.177L162.75 386.267C159.851 386.267 156.325 384.232 154.875 381.721H153.825H152.775C154.805 385.236 159.741 388.086 163.8 388.086L163.275 387.177ZM1022.18 381.721H1021.13C1022.57 384.232 1021.4 386.267 1018.5 386.267L1019.03 387.177L1019.55 388.086C1023.61 388.086 1025.25 385.236 1023.23 381.721H1022.18ZM889.875 163.482L890.4 164.392C893.3 164.392 896.825 166.427 898.275 168.938H899.325H900.375C898.346 165.423 893.409 162.573 889.35 162.573L889.875 163.482ZM34.1252 163.482L33.6002 162.573C29.5409 162.573 27.8955 165.423 29.9252 168.938H30.9752H32.0252C30.5754 166.427 31.7507 164.392 34.6502 164.392L34.1252 163.482Z" fill="black" mask="url(#path-1-inside-1_655_318)"/>
<path d="M96.4687 256.916C95.3089 254.907 96.2491 253.278 98.5687 253.278H929.119C931.438 253.278 934.259 254.907 935.419 256.916L941.85 268.055C943.01 270.064 942.069 271.692 939.75 271.692H109.2C106.88 271.692 104.06 270.064 102.9 268.055L96.4687 256.916Z" fill="black" fill-opacity="0.05"/>
<path d="M111.3 282.604C110.14 280.595 111.08 278.967 113.4 278.967H943.95C946.269 278.967 949.09 280.595 950.25 282.604L956.681 293.743C957.841 295.752 956.9 297.381 954.581 297.381H124.031C121.711 297.381 118.891 295.752 117.731 293.743L111.3 282.604Z" fill="black" fill-opacity="0.05"/>
<path d="M140.962 333.981C139.803 331.972 140.743 330.344 143.062 330.344H973.612C975.932 330.344 978.752 331.972 979.912 333.981L986.344 345.12C987.503 347.129 986.563 348.758 984.243 348.758H153.694C151.374 348.758 148.553 347.129 147.394 345.12L140.962 333.981Z" fill="black" fill-opacity="0.05"/>
<path d="M66.8061 205.539C65.6463 203.53 66.5865 201.901 68.9061 201.901H899.456C901.776 201.901 904.596 203.53 905.756 205.539L912.187 216.678C913.347 218.687 912.407 220.315 910.087 220.315H79.5373C77.2177 220.315 74.3971 218.687 73.2373 216.678L66.8061 205.539Z" fill="black" fill-opacity="0.05"/>
<path d="M81.6381 231.227C80.4783 229.218 81.4185 227.59 83.7381 227.59H914.288C916.608 227.59 919.428 229.218 920.588 231.227L927.019 242.366C928.179 244.375 927.239 246.004 924.919 246.004H94.3693C92.0497 246.004 89.2291 244.375 88.0693 242.366L81.6381 231.227Z" fill="black" fill-opacity="0.05"/>
<path d="M126.131 308.293C124.971 306.284 125.912 304.655 128.231 304.655H958.781C961.101 304.655 963.921 306.284 965.081 308.293L971.512 319.432C972.672 321.441 971.732 323.069 969.412 323.069H138.862C136.543 323.069 133.722 321.441 132.562 319.432L126.131 308.293Z" fill="black" fill-opacity="0.05"/>
<path d="M155.794 359.67C154.634 357.661 155.574 356.032 157.894 356.032H988.444C990.763 356.032 993.584 357.661 994.744 359.67L1001.18 370.809C1002.33 372.818 1001.39 374.446 999.075 374.446H168.525C166.205 374.446 163.385 372.818 162.225 370.809L155.794 359.67Z" fill="black" fill-opacity="0.05"/>
<path d="M51.975 179.85C50.8152 177.841 51.7554 176.213 54.075 176.213H72.5812C74.9008 176.213 77.7215 177.841 78.8812 179.85L85.3125 190.989C86.4723 192.998 85.5321 194.627 83.2125 194.627H64.7062C62.3867 194.627 59.566 192.998 58.4062 190.989L51.975 179.85Z" fill="black" fill-opacity="0.2"/>
<path d="M87.2812 179.85C86.1214 177.841 87.0616 176.213 89.3812 176.213H107.887C110.207 176.213 113.028 177.841 114.187 179.85L120.619 190.989C121.778 192.998 120.838 194.627 118.519 194.627H100.012C97.6928 194.627 94.8722 192.998 93.7124 190.989L87.2812 179.85Z" fill="black" fill-opacity="0.2"/>
<path d="M122.587 179.85C121.428 177.841 122.368 176.213 124.687 176.213H143.194C145.513 176.213 148.334 177.841 149.494 179.85L155.925 190.989C157.085 192.998 156.144 194.627 153.825 194.627H135.319C132.999 194.627 130.178 192.998 129.019 190.989L122.587 179.85Z" fill="black" fill-opacity="0.2"/>
<path d="M157.893 179.85C156.734 177.841 157.674 176.213 159.993 176.213H178.5C180.819 176.213 183.64 177.841 184.8 179.85L191.231 190.989C192.391 192.998 191.451 194.627 189.131 194.627H170.625C168.305 194.627 165.485 192.998 164.325 190.989L157.893 179.85Z" fill="black" fill-opacity="0.2"/>
<path d="M193.2 179.85C192.04 177.841 192.98 176.213 195.3 176.213H213.806C216.125 176.213 218.946 177.841 220.106 179.85L226.537 190.989C227.697 192.998 226.757 194.627 224.437 194.627H205.931C203.611 194.627 200.791 192.998 199.631 190.989L193.2 179.85Z" fill="black" fill-opacity="0.2"/>
<path d="M228.506 179.85C227.346 177.841 228.287 176.213 230.606 176.213H249.112C251.432 176.213 254.253 177.841 255.412 179.85L261.844 190.989C263.004 192.998 262.063 194.627 259.744 194.627H241.237C238.918 194.627 236.097 192.998 234.938 190.989L228.506 179.85Z" fill="black" fill-opacity="0.2"/>
<path d="M263.812 179.85C262.653 177.841 263.593 176.213 265.912 176.213H284.419C286.738 176.213 289.559 177.841 290.719 179.85L297.15 190.989C298.31 192.998 297.369 194.627 295.05 194.627H276.544C274.224 194.627 271.403 192.998 270.244 190.989L263.812 179.85Z" fill="black" fill-opacity="0.2"/>
<path d="M299.119 179.85C297.959 177.841 298.899 176.213 301.219 176.213H319.725C322.044 176.213 324.865 177.841 326.025 179.85L332.456 190.989C333.616 192.998 332.676 194.627 330.356 194.627H311.85C309.53 194.627 306.71 192.998 305.55 190.989L299.119 179.85Z" fill="black" fill-opacity="0.2"/>
<path d="M334.425 179.85C333.265 177.841 334.205 176.213 336.525 176.213H355.031C357.351 176.213 360.171 177.841 361.331 179.85L367.762 190.989C368.922 192.998 367.982 194.627 365.662 194.627H347.156C344.836 194.627 342.016 192.998 340.856 190.989L334.425 179.85Z" fill="black" fill-opacity="0.2"/>
<path d="M369.731 179.85C368.571 177.841 369.511 176.213 371.831 176.213H390.337C392.657 176.213 395.477 177.841 396.637 179.85L403.068 190.989C404.228 192.998 403.288 194.627 400.968 194.627H382.462C380.143 194.627 377.322 192.998 376.162 190.989L369.731 179.85Z" fill="black" fill-opacity="0.2"/>
<path d="M405.037 179.85C403.878 177.841 404.818 176.213 407.138 176.213H425.644C427.963 176.213 430.784 177.841 431.944 179.85L438.375 190.989C439.535 192.998 438.595 194.627 436.275 194.627H417.769C415.449 194.627 412.629 192.998 411.469 190.989L405.037 179.85Z" fill="black" fill-opacity="0.2"/>
<path d="M440.344 179.85C439.184 177.841 440.124 176.213 442.444 176.213H460.95C463.269 176.213 466.09 177.841 467.25 179.85L473.681 190.989C474.841 192.998 473.901 194.627 471.581 194.627H453.075C450.755 194.627 447.935 192.998 446.775 190.989L440.344 179.85Z" fill="black" fill-opacity="0.2"/>
<path d="M475.65 179.85C474.49 177.841 475.43 176.213 477.75 176.213H496.256C498.576 176.213 501.396 177.841 502.556 179.85L508.987 190.989C510.147 192.998 509.207 194.627 506.887 194.627H488.381C486.061 194.627 483.241 192.998 482.081 190.989L475.65 179.85Z" fill="black" fill-opacity="0.2"/>
<path d="M510.956 179.85C509.796 177.841 510.736 176.213 513.056 176.213H531.562C533.882 176.213 536.702 177.841 537.862 179.85L544.293 190.989C545.453 192.998 544.513 194.627 542.193 194.627H523.687C521.368 194.627 518.547 192.998 517.387 190.989L510.956 179.85Z" fill="black" fill-opacity="0.2"/>
<path d="M546.262 179.85C545.102 177.841 546.043 176.213 548.362 176.213H566.868C569.188 176.213 572.009 177.841 573.168 179.85L579.6 190.989C580.759 192.998 579.819 194.627 577.5 194.627H558.993C556.674 194.627 553.853 192.998 552.693 190.989L546.262 179.85Z" fill="black" fill-opacity="0.2"/>
<path d="M581.569 179.85C580.409 177.841 581.349 176.213 583.669 176.213H602.175C604.495 176.213 607.315 177.841 608.475 179.85L614.906 190.989C616.066 192.998 615.126 194.627 612.806 194.627H594.3C591.98 194.627 589.16 192.998 588 190.989L581.569 179.85Z" fill="black" fill-opacity="0.2"/>
<path d="M616.875 179.85C615.715 177.841 616.655 176.213 618.975 176.213H637.481C639.801 176.213 642.621 177.841 643.781 179.85L650.212 190.989C651.372 192.998 650.432 194.627 648.112 194.627H629.606C627.287 194.627 624.466 192.998 623.306 190.989L616.875 179.85Z" fill="black" fill-opacity="0.2"/>
<path d="M652.181 179.85C651.021 177.841 651.961 176.213 654.281 176.213H672.787C675.107 176.213 677.928 177.841 679.087 179.85L685.519 190.989C686.678 192.998 685.738 194.627 683.419 194.627H664.912C662.593 194.627 659.772 192.998 658.612 190.989L652.181 179.85Z" fill="black" fill-opacity="0.2"/>
<path d="M687.487 179.85C686.327 177.841 687.268 176.213 689.587 176.213H708.093C710.413 176.213 713.234 177.841 714.393 179.85L720.825 190.989C721.985 192.998 721.044 194.627 718.725 194.627H700.218C697.899 194.627 695.078 192.998 693.918 190.989L687.487 179.85Z" fill="black" fill-opacity="0.2"/>
<path d="M722.794 179.85C721.634 177.841 722.574 176.213 724.894 176.213H743.4C745.72 176.213 748.54 177.841 749.7 179.85L756.131 190.989C757.291 192.998 756.351 194.627 754.031 194.627H735.525C733.206 194.627 730.385 192.998 729.225 190.989L722.794 179.85Z" fill="black" fill-opacity="0.2"/>
<path d="M758.1 179.85C756.94 177.841 757.88 176.213 760.2 176.213H778.706C781.026 176.213 783.846 177.841 785.006 179.85L791.437 190.989C792.597 192.998 791.657 194.627 789.337 194.627H770.831C768.512 194.627 765.691 192.998 764.531 190.989L758.1 179.85Z" fill="black" fill-opacity="0.2"/>
<path d="M793.406 179.85C792.246 177.841 793.187 176.213 795.506 176.213H814.012C816.332 176.213 819.153 177.841 820.312 179.85L826.744 190.989C827.903 192.998 826.963 194.627 824.644 194.627H806.137C803.818 194.627 800.997 192.998 799.837 190.989L793.406 179.85Z" fill="black" fill-opacity="0.2"/>
<path d="M828.713 179.85C827.553 177.841 828.493 176.213 830.813 176.213H849.319C851.639 176.213 854.459 177.841 855.619 179.85L862.05 190.989C863.21 192.998 862.27 194.627 859.95 194.627H841.444C839.124 194.627 836.304 192.998 835.144 190.989L828.713 179.85Z" fill="black" fill-opacity="0.2"/>
<path d="M864.019 179.85C862.859 177.841 863.799 176.213 866.119 176.213H884.625C886.945 176.213 889.765 177.841 890.925 179.85L897.356 190.989C898.516 192.998 897.576 194.627 895.256 194.627H876.75C874.431 194.627 871.61 192.998 870.45 190.989L864.019 179.85Z" fill="black" fill-opacity="0.2"/>
<path d="M364.219 231.227C363.059 229.218 363.999 227.59 366.319 227.59H808.369C810.688 227.59 813.509 229.218 814.669 231.227L821.1 242.366C822.26 244.375 821.319 246.004 819 246.004H376.95C374.63 246.004 371.81 244.375 370.65 242.366L364.219 231.227Z" fill="black" fill-opacity="0.1"/>
<path d="M555.45 256.916C554.29 254.907 555.231 253.278 557.55 253.278H752.588C754.907 253.278 757.728 254.907 758.888 256.916L765.319 268.055C766.479 270.064 765.538 271.692 763.219 271.692H568.181C565.862 271.692 563.041 270.064 561.881 268.055L555.45 256.916Z" fill="black" fill-opacity="0.1"/>
<path d="M746.812 282.604C745.653 280.595 746.593 278.967 748.912 278.967H802.725C805.044 278.967 807.865 280.595 809.025 282.604L815.456 293.743C816.616 295.752 815.676 297.381 813.356 297.381H759.544C757.224 297.381 754.403 295.752 753.244 293.743L746.812 282.604Z" fill="black" fill-opacity="0.1"/>
<path d="M761.644 308.293C760.485 306.284 761.425 304.655 763.744 304.655H817.557C819.877 304.655 822.697 306.284 823.857 308.293L830.288 319.432C831.448 321.441 830.508 323.069 828.188 323.069H774.376C772.056 323.069 769.235 321.441 768.076 319.432L761.644 308.293Z" fill="black" fill-opacity="0.1"/>
<path d="M791.306 359.67C790.146 357.661 791.086 356.032 793.406 356.032H811.912C814.232 356.032 817.053 357.661 818.212 359.67L824.644 370.809C825.803 372.818 824.863 374.446 822.544 374.446H804.037C801.718 374.446 798.897 372.818 797.737 370.809L791.306 359.67Z" fill="black" fill-opacity="0.1"/>
<path d="M137.418 205.539C136.259 203.53 137.199 201.901 139.518 201.901H511.218C513.538 201.901 516.359 203.53 517.518 205.539L523.95 216.678C525.109 218.687 524.169 220.315 521.85 220.315H150.15C147.83 220.315 145.009 218.687 143.85 216.678L137.418 205.539Z" fill="black" fill-opacity="0.1"/>
<path d="M917.701 333.981C916.541 331.972 917.481 330.344 919.801 330.344H938.307C940.626 330.344 943.447 331.972 944.607 333.981L951.038 345.12C952.198 347.129 951.258 348.758 948.938 348.758H930.432C928.112 348.758 925.292 347.129 924.132 345.12L917.701 333.981Z" fill="black" fill-opacity="0.1"/>
<path d="M561.356 205.539C560.197 203.53 561.137 201.902 563.456 201.902H581.968C584.287 201.902 587.108 203.53 588.268 205.539L683.687 370.809C684.846 372.818 683.906 374.447 681.587 374.447H663.075C660.755 374.447 657.935 372.818 656.775 370.809L561.356 205.539Z" fill="black" fill-opacity="0.05"/>
<path d="M685.65 397.18L539.175 143.478" stroke="black" stroke-width="2.1" stroke-linecap="round" stroke-dasharray="4.2 4.2"/>
<path d="M515.016 122.107L538.659 122.107L537.076 139.84L515.016 122.107Z" fill="#EEBA05" stroke="black" stroke-width="1.05"/>
<path d="M671.167 148.933L676.046 140.483L690.683 148.933L685.804 157.384L671.167 148.933Z" fill="black" stroke="black" stroke-width="1.05"/>
<path d="M743.617 148.933L748.496 140.483L763.133 148.933L758.254 157.384L743.617 148.933Z" fill="black" stroke="black" stroke-width="1.05"/>
<path d="M464.317 148.933L469.196 140.483L483.833 148.933L478.954 157.384L464.317 148.933Z" fill="black" stroke="black" stroke-width="1.05"/>
<mask id="path-47-inside-2_655_318" fill="white">
<path d="M67 37.0342C65.6193 34.6428 66.7386 32.7041 69.5 32.7041H366.7C369.461 32.7041 372.819 34.6428 374.2 37.0342L530.6 307.927C531.981 310.318 530.861 312.257 528.1 312.257H230.9C228.139 312.257 224.781 310.318 223.4 307.927L67 37.0342Z"/>
</mask>
<path d="M67 37.0342C65.6193 34.6428 66.7386 32.7041 69.5 32.7041H366.7C369.461 32.7041 372.819 34.6428 374.2 37.0342L530.6 307.927C531.981 310.318 530.861 312.257 528.1 312.257H230.9C228.139 312.257 224.781 310.318 223.4 307.927L67 37.0342Z" fill="#D9D9D9" fill-opacity="0.8"/>
<path d="M69.5 32.7041L72.5 37.9003H369.7L366.7 32.7041L363.7 27.5079H66.5L69.5 32.7041ZM374.2 37.0342H368.2L524.6 307.927H530.6H536.6L380.2 37.0342H374.2ZM528.1 312.257L525.1 307.061H227.9L230.9 312.257L233.9 317.453H531.1L528.1 312.257ZM223.4 307.927H229.4L73 37.0342H67H61L217.4 307.927H223.4ZM230.9 312.257L227.9 307.061C228.452 307.061 229.124 307.449 229.4 307.927H223.4H217.4C220.438 313.188 227.825 317.453 233.9 317.453L230.9 312.257ZM530.6 307.927H524.6C524.324 307.449 524.548 307.061 525.1 307.061L528.1 312.257L531.1 317.453C537.175 317.453 539.638 313.188 536.6 307.927H530.6ZM366.7 32.7041L369.7 37.9003C369.148 37.9003 368.476 37.5125 368.2 37.0342H374.2H380.2C377.162 31.773 369.775 27.5079 363.7 27.5079L366.7 32.7041ZM69.5 32.7041L66.5 27.5079C60.4249 27.5079 57.9624 31.773 61 37.0342H67H73C73.2761 37.5125 73.0523 37.9003 72.5 37.9003L69.5 32.7041Z" fill="black" mask="url(#path-47-inside-2_655_318)"/>
<path d="M111.844 50.4098L112.719 51.925H113.777L113.885 52.112H112.827L115.068 55.9936C115.136 56.112 115.212 56.1993 115.295 56.2554C115.374 56.3053 115.471 56.3303 115.586 56.3303C115.665 56.3303 115.748 56.3116 115.835 56.2741C115.917 56.2305 115.977 56.1588 116.013 56.059L116.24 56.1713C116.218 56.3957 116.121 56.5766 115.948 56.7137C115.779 56.8447 115.507 56.9102 115.133 56.9102C114.895 56.9102 114.663 56.8821 114.436 56.826C114.22 56.7761 114.02 56.6981 113.837 56.5921C113.599 56.455 113.401 56.2866 113.243 56.0871C113.081 55.8813 112.906 55.6163 112.719 55.2921L110.883 52.112H110.062L109.954 51.925H110.775L110.138 50.8213C110.519 50.8213 110.847 50.7901 111.12 50.7278C111.398 50.6592 111.639 50.5532 111.844 50.4098ZM116.745 51.794C117.306 51.794 117.841 51.8782 118.348 52.0466C118.86 52.2087 119.338 52.4768 119.785 52.8509C120.231 53.225 120.636 53.727 121 54.3568C121.363 54.9865 121.538 55.4885 121.524 55.8626C121.509 56.2367 121.34 56.5049 121.016 56.667C120.699 56.8291 120.26 56.9102 119.698 56.9102C119.144 56.9102 118.611 56.8291 118.1 56.667C117.589 56.5049 117.11 56.2367 116.664 55.8626C116.217 55.4885 115.812 54.9865 115.449 54.3568C115.085 53.727 114.91 53.225 114.925 52.8509C114.939 52.4768 115.108 52.2087 115.432 52.0466C115.753 51.8782 116.19 51.794 116.745 51.794ZM116.853 51.9811C116.637 51.9811 116.565 52.1681 116.637 52.5423C116.709 52.9164 116.986 53.5212 117.468 54.3568C117.951 55.1923 118.372 55.7971 118.732 56.1713C119.088 56.5391 119.374 56.7231 119.59 56.7231C119.806 56.7231 119.88 56.5391 119.812 56.1713C119.74 55.7971 119.463 55.1923 118.98 54.3568C118.498 53.5212 118.077 52.9164 117.717 52.5423C117.357 52.1681 117.069 51.9811 116.853 51.9811ZM126.716 49.4651L130.345 55.7504C130.507 56.031 130.671 56.2398 130.837 56.377C131.006 56.508 131.202 56.5734 131.425 56.5734L131.539 56.7699C131.305 56.7512 131.076 56.7418 130.853 56.7418C130.493 56.7418 130.163 56.7512 129.865 56.7699C129.566 56.7886 129.294 56.8229 129.049 56.8727L125.42 50.5875C125.258 50.3069 125.096 50.1011 124.934 49.9702C124.769 49.833 124.571 49.7644 124.34 49.7644L124.227 49.568C124.468 49.5867 124.697 49.596 124.913 49.596C125.273 49.596 125.602 49.5867 125.901 49.568C126.203 49.543 126.475 49.5088 126.716 49.4651ZM124.994 51.794C125.311 51.794 125.597 51.8283 125.852 51.8969C126.104 51.9593 126.355 52.0621 126.603 52.2056L126.544 52.3084C126.41 52.2399 126.277 52.19 126.144 52.1588C126.007 52.1214 125.888 52.1027 125.788 52.1027C125.456 52.1027 125.314 52.2866 125.361 52.6545C125.408 53.0224 125.651 53.5867 126.09 54.3474C126.407 54.8961 126.686 55.3232 126.927 55.6288C127.165 55.9281 127.372 56.137 127.548 56.2554C127.728 56.3677 127.883 56.4238 128.012 56.4238C128.214 56.4238 128.358 56.3614 128.444 56.2367C128.527 56.1058 128.513 55.9437 128.401 55.7504L128.666 56.2087C128.659 56.4456 128.585 56.6233 128.444 56.7418C128.3 56.854 128.07 56.9102 127.753 56.9102C127.343 56.9102 126.918 56.8229 126.479 56.6483C126.043 56.4674 125.618 56.1868 125.204 55.8065C124.79 55.4261 124.407 54.9304 124.054 54.3194C123.727 53.7519 123.554 53.2843 123.536 52.9164C123.521 52.5423 123.64 52.2617 123.892 52.0746C124.144 51.8876 124.511 51.794 124.994 51.794ZM131.953 51.794C132.515 51.794 133.049 51.8782 133.557 52.0466C134.068 52.2087 134.547 52.4768 134.993 52.8509C135.44 53.225 135.845 53.727 136.208 54.3568C136.572 54.9865 136.746 55.4885 136.732 55.8626C136.718 56.2367 136.548 56.5049 136.224 56.667C135.908 56.8291 135.468 56.9102 134.907 56.9102C134.352 56.9102 133.82 56.8291 133.308 56.667C132.797 56.5049 132.318 56.2367 131.872 55.8626C131.426 55.4885 131.021 54.9865 130.657 54.3568C130.293 53.727 130.119 53.225 130.133 52.8509C130.148 52.4768 130.317 52.2087 130.641 52.0466C130.961 51.8782 131.399 51.794 131.953 51.794ZM132.061 51.9811C131.845 51.9811 131.773 52.1681 131.845 52.5423C131.917 52.9164 132.194 53.5212 132.677 54.3568C133.159 55.1923 133.58 55.7971 133.94 56.1713C134.297 56.5391 134.583 56.7231 134.799 56.7231C135.015 56.7231 135.089 56.5391 135.02 56.1713C134.948 55.7971 134.671 55.1923 134.189 54.3568C133.706 53.5212 133.285 52.9164 132.925 52.5423C132.565 52.1681 132.277 51.9811 132.061 51.9811Z" fill="black"/>
<path d="M103.138 70.5273C102.896 70.1088 103.092 69.7695 103.575 69.7695H163.025C163.508 69.7695 164.096 70.1088 164.338 70.5273C164.579 70.9458 164.383 71.2851 163.9 71.2851H104.45C103.967 71.2851 103.379 70.9458 103.138 70.5273Z" fill="black" fill-opacity="0.2"/>
<path d="M165.116 49.4651C165.49 49.4651 165.818 49.5337 166.098 49.6709C166.383 49.8018 166.602 50.0013 166.757 50.2695C166.912 50.5376 166.925 50.7402 166.795 50.8774C166.669 51.0084 166.419 51.0738 166.044 51.0738C165.67 51.0738 165.341 51.0084 165.056 50.8774C164.775 50.7402 164.558 50.5376 164.403 50.2695C164.248 50.0013 164.234 49.8018 164.36 49.6709C164.489 49.5337 164.741 49.4651 165.116 49.4651ZM167.513 51.8221L169.873 55.9094C170.024 56.1713 170.17 56.349 170.31 56.4425C170.458 56.536 170.643 56.5828 170.867 56.5828L170.98 56.7792C170.832 56.773 170.613 56.7667 170.321 56.7605C170.026 56.748 169.727 56.7418 169.425 56.7418C169.122 56.7418 168.82 56.748 168.518 56.7605C168.212 56.7667 167.981 56.773 167.826 56.7792L167.713 56.5828C167.936 56.5828 168.064 56.536 168.096 56.4425C168.136 56.349 168.08 56.1713 167.929 55.9094L166.217 52.9444C166.055 52.6639 165.893 52.4581 165.731 52.3271C165.566 52.19 165.368 52.1214 165.137 52.1214L165.024 51.925C165.265 51.9437 165.494 51.953 165.71 51.953C166.07 51.953 166.399 51.9437 166.698 51.925C167 51.9 167.272 51.8657 167.513 51.8221ZM172.779 51.794C173.11 51.794 173.391 51.8314 173.621 51.9063C173.855 51.9748 174.053 52.0621 174.215 52.1681C174.388 52.2804 174.554 52.43 174.712 52.6171C174.871 52.8042 175.042 53.0567 175.225 53.3747L176.689 55.9094C176.84 56.1713 176.986 56.349 177.126 56.4425C177.274 56.536 177.459 56.5828 177.682 56.5828L177.796 56.7792C177.648 56.773 177.425 56.7667 177.126 56.7605C176.831 56.748 176.543 56.7418 176.262 56.7418C175.96 56.7418 175.668 56.748 175.387 56.7605C175.103 56.7667 174.89 56.773 174.75 56.7792L174.637 56.5828C174.824 56.5828 174.926 56.536 174.944 56.4425C174.962 56.349 174.896 56.1713 174.745 55.9094L172.99 52.8696C172.914 52.7387 172.833 52.6296 172.747 52.5423C172.66 52.455 172.565 52.3895 172.46 52.3459C172.363 52.3022 172.25 52.2804 172.12 52.2804C171.991 52.2804 171.881 52.3084 171.791 52.3646C171.708 52.4207 171.658 52.5017 171.64 52.6077C171.625 52.7075 171.656 52.8229 171.731 52.9538L173.438 55.9094C173.589 56.1713 173.728 56.349 173.854 56.4425C173.987 56.536 174.143 56.5828 174.323 56.5828L174.437 56.7792C174.296 56.773 174.091 56.7667 173.821 56.7605C173.548 56.748 173.27 56.7418 172.99 56.7418C172.687 56.7418 172.385 56.748 172.082 56.7605C171.776 56.7667 171.546 56.773 171.391 56.7792L171.278 56.5828C171.501 56.5828 171.629 56.536 171.661 56.4425C171.701 56.349 171.645 56.1713 171.494 55.9094L169.782 52.9444C169.62 52.6639 169.458 52.4581 169.296 52.3271C169.13 52.19 168.932 52.1214 168.702 52.1214L168.589 51.925C168.83 51.9437 169.058 51.953 169.274 51.953C169.634 51.953 169.964 51.9437 170.263 51.925C170.565 51.9 170.837 51.8657 171.078 51.8221L171.467 52.4955C171.496 52.2461 171.623 52.0684 171.85 51.9624C172.081 51.8501 172.39 51.794 172.779 51.794ZM180.206 51.8314L183.484 57.5087C183.66 57.8143 183.86 58.0169 184.083 58.1167C184.31 58.2227 184.567 58.2757 184.855 58.2757L184.969 58.4721C184.763 58.4659 184.477 58.4565 184.11 58.4441C183.746 58.4378 183.363 58.4347 182.96 58.4347C182.672 58.4347 182.389 58.4378 182.112 58.4441C181.838 58.4565 181.631 58.4659 181.491 58.4721L181.378 58.2757C181.601 58.2757 181.729 58.2289 181.761 58.1354C181.801 58.0419 181.745 57.8642 181.594 57.6023L178.91 52.9538C178.748 52.6732 178.586 52.4674 178.424 52.3365C178.258 52.1993 178.06 52.1307 177.83 52.1307L177.716 51.9343C177.958 51.953 178.186 51.9624 178.402 51.9624C178.762 51.9624 179.092 51.953 179.39 51.9343C179.693 51.9094 179.965 51.8751 180.206 51.8314ZM181.826 51.794C182.186 51.794 182.557 51.8813 182.938 52.0559C183.316 52.2243 183.689 52.483 184.056 52.8322C184.42 53.1752 184.754 53.6116 185.06 54.1416C185.366 54.6716 185.554 55.1144 185.622 55.4698C185.698 55.8252 185.678 56.1089 185.563 56.3209C185.455 56.5329 185.276 56.6857 185.028 56.7792C184.776 56.8665 184.481 56.9102 184.142 56.9102C183.898 56.9102 183.649 56.8852 183.397 56.8353C183.156 56.7917 182.926 56.7044 182.706 56.5734L182.744 56.4519C182.841 56.5204 182.944 56.5672 183.052 56.5921C183.16 56.6171 183.26 56.6296 183.354 56.6296C183.62 56.6296 183.788 56.5454 183.856 56.377C183.925 56.2087 183.898 55.9561 183.775 55.6194C183.66 55.2827 183.457 54.8618 183.165 54.3568C182.845 53.8018 182.566 53.3747 182.328 53.0754C182.09 52.7761 181.885 52.5703 181.712 52.4581C181.536 52.3396 181.379 52.2804 181.243 52.2804C181.041 52.2804 180.897 52.3427 180.811 52.4674C180.724 52.5921 180.739 52.7543 180.854 52.9538L180.589 52.4955C180.618 52.2586 180.74 52.084 180.956 51.9717C181.169 51.8533 181.459 51.794 181.826 51.794ZM188.223 51.794C188.482 51.794 188.712 51.8439 188.914 51.9437C189.112 52.0372 189.283 52.1588 189.427 52.3084C189.567 52.4519 189.679 52.5953 189.762 52.7387C189.924 53.0193 189.96 53.2437 189.87 53.4121C189.783 53.5742 189.592 53.6553 189.297 53.6553C188.98 53.6553 188.703 53.5929 188.466 53.4682C188.235 53.3435 188.062 53.1814 187.947 52.9819C187.825 52.7699 187.774 52.5953 187.796 52.4581C187.825 52.3209 187.891 52.2056 187.996 52.112C187.866 52.112 187.764 52.1338 187.688 52.1775C187.62 52.2087 187.562 52.2523 187.515 52.3084C187.468 52.3646 187.438 52.43 187.423 52.5049C187.405 52.5734 187.404 52.6514 187.418 52.7387C187.44 52.826 187.477 52.9164 187.531 53.0099L189.151 55.8158C189.324 56.1151 189.513 56.3178 189.718 56.4238C189.924 56.5298 190.192 56.5828 190.523 56.5828L190.636 56.7792C190.467 56.773 190.215 56.7667 189.88 56.7605C189.549 56.748 189.211 56.7418 188.865 56.7418C188.541 56.7418 188.217 56.748 187.893 56.7605C187.566 56.7667 187.321 56.773 187.159 56.7792L187.045 56.5828C187.269 56.5828 187.396 56.536 187.429 56.4425C187.468 56.349 187.413 56.1713 187.261 55.9094L185.55 52.9444C185.388 52.6639 185.226 52.4581 185.064 52.3271C184.898 52.19 184.7 52.1214 184.47 52.1214L184.356 51.925C184.597 51.9437 184.826 51.953 185.042 51.953C185.402 51.953 185.731 51.9437 186.03 51.925C186.333 51.9 186.604 51.8657 186.846 51.8221L187.234 52.4955C187.234 52.3334 187.274 52.2024 187.353 52.1027C187.429 51.9967 187.539 51.9187 187.683 51.8688C187.834 51.819 188.014 51.794 188.223 51.794ZM192.258 51.794C192.82 51.794 193.355 51.8782 193.862 52.0466C194.373 52.2087 194.852 52.4768 195.299 52.8509C195.745 53.225 196.15 53.727 196.514 54.3568C196.877 54.9865 197.052 55.4885 197.037 55.8626C197.023 56.2367 196.854 56.5049 196.53 56.667C196.213 56.8291 195.774 56.9102 195.212 56.9102C194.658 56.9102 194.125 56.8291 193.614 56.667C193.103 56.5049 192.624 56.2367 192.177 55.8626C191.731 55.4885 191.326 54.9865 190.962 54.3568C190.599 53.727 190.424 53.225 190.439 52.8509C190.453 52.4768 190.622 52.2087 190.946 52.0466C191.267 51.8782 191.704 51.794 192.258 51.794ZM192.366 51.9811C192.15 51.9811 192.078 52.1681 192.15 52.5423C192.222 52.9164 192.5 53.5212 192.982 54.3568C193.464 55.1923 193.886 55.7971 194.246 56.1713C194.602 56.5391 194.888 56.7231 195.104 56.7231C195.32 56.7231 195.394 56.5391 195.326 56.1713C195.254 55.7971 194.976 55.1923 194.494 54.3568C194.012 53.5212 193.59 52.9164 193.23 52.5423C192.87 52.1681 192.582 51.9811 192.366 51.9811ZM201.651 58.5376C201.161 58.5376 200.717 58.5033 200.317 58.4347C199.928 58.3724 199.601 58.2788 199.334 58.1541C199.071 58.0356 198.89 57.8891 198.789 57.7145C198.688 57.5399 198.693 57.3747 198.805 57.2188C198.92 57.0692 199.172 56.9507 199.561 56.8634L199.755 57.013C199.709 57.1315 199.691 57.2375 199.701 57.331C199.723 57.4308 199.759 57.5243 199.809 57.6116C199.95 57.8548 200.184 58.0419 200.511 58.1728C200.85 58.31 201.249 58.3786 201.71 58.3786C202.034 58.3786 202.281 58.3381 202.45 58.257C202.63 58.1822 202.734 58.0762 202.763 57.939C202.799 57.8018 202.767 57.6459 202.666 57.4713C202.565 57.2967 202.403 57.1471 202.18 57.0224C201.957 56.8977 201.615 56.8353 201.154 56.8353H200.571C200.24 56.8353 199.941 56.7979 199.674 56.7231C199.408 56.6483 199.179 56.5454 198.989 56.4144C198.794 56.2773 198.645 56.1183 198.54 55.9374C198.371 55.6444 198.362 55.3981 198.513 55.1985C198.665 54.999 198.904 54.8213 199.232 54.6654L199.372 54.7402C199.325 54.7839 199.28 54.8369 199.237 54.8992C199.194 54.9616 199.206 55.052 199.275 55.1705C199.39 55.37 199.577 55.4698 199.836 55.4698H200.884C201.352 55.4698 201.784 55.5134 202.18 55.6007C202.583 55.688 202.94 55.8314 203.249 56.031C203.562 56.2243 203.811 56.4799 203.994 56.7979C204.174 57.1097 204.221 57.3965 204.135 57.6584C204.059 57.9265 203.822 58.1385 203.422 58.2944C203.026 58.4565 202.436 58.5376 201.651 58.5376ZM199.637 54.787C199.19 54.787 198.76 54.734 198.346 54.628C197.939 54.522 197.572 54.3599 197.244 54.1416C196.913 53.9172 196.649 53.6335 196.451 53.2905C196.253 52.9476 196.191 52.667 196.267 52.4487C196.339 52.2243 196.517 52.059 196.802 51.953C197.093 51.847 197.462 51.794 197.909 51.794C198.355 51.794 198.782 51.847 199.188 51.953C199.602 52.059 199.975 52.2243 200.306 52.4487C200.634 52.667 200.897 52.9476 201.095 53.2905C201.293 53.6335 201.356 53.9172 201.284 54.1416C201.208 54.3599 201.024 54.522 200.733 54.628C200.448 54.734 200.083 54.787 199.637 54.787ZM199.539 54.6186C199.676 54.6186 199.728 54.522 199.696 54.3287C199.664 54.1354 199.503 53.7893 199.215 53.2905C198.927 52.7917 198.688 52.4456 198.497 52.2523C198.306 52.059 198.143 51.9624 198.006 51.9624C197.869 51.9624 197.817 52.059 197.849 52.2523C197.882 52.4456 198.042 52.7917 198.33 53.2905C198.618 53.7893 198.857 54.1354 199.048 54.3287C199.239 54.522 199.403 54.6186 199.539 54.6186ZM200.144 52.6171L199.88 52.5516C199.844 52.2897 199.899 52.0808 200.047 51.925C200.198 51.7628 200.418 51.6818 200.706 51.6818C200.958 51.6818 201.179 51.741 201.37 51.8595C201.561 51.978 201.707 52.1245 201.807 52.2991C201.912 52.4799 201.935 52.6202 201.878 52.72C201.827 52.8197 201.723 52.8696 201.564 52.8696C201.428 52.8696 201.278 52.8291 201.116 52.748C200.961 52.667 200.83 52.5454 200.722 52.3833C200.614 52.2211 200.564 52.0154 200.571 51.766L200.652 51.8314C200.447 51.9125 200.306 52.0123 200.231 52.1307C200.155 52.2492 200.126 52.4113 200.144 52.6171ZM205.699 51.794C205.958 51.794 206.188 51.8439 206.39 51.9437C206.588 52.0372 206.759 52.1588 206.903 52.3084C207.043 52.4519 207.155 52.5953 207.238 52.7387C207.4 53.0193 207.436 53.2437 207.346 53.4121C207.259 53.5742 207.069 53.6553 206.773 53.6553C206.457 53.6553 206.179 53.5929 205.942 53.4682C205.711 53.3435 205.539 53.1814 205.423 52.9819C205.301 52.7699 205.251 52.5953 205.272 52.4581C205.301 52.3209 205.368 52.2056 205.472 52.112C205.342 52.112 205.24 52.1338 205.164 52.1775C205.096 52.2087 205.038 52.2523 204.991 52.3084C204.945 52.3646 204.914 52.43 204.9 52.5049C204.882 52.5734 204.88 52.6514 204.894 52.7387C204.916 52.826 204.954 52.9164 205.008 53.0099L206.628 55.8158C206.8 56.1151 206.989 56.3178 207.195 56.4238C207.4 56.5298 207.668 56.5828 207.999 56.5828L208.113 56.7792C207.943 56.773 207.691 56.7667 207.357 56.7605C207.025 56.748 206.687 56.7418 206.341 56.7418C206.017 56.7418 205.693 56.748 205.369 56.7605C205.042 56.7667 204.797 56.773 204.635 56.7792L204.522 56.5828C204.745 56.5828 204.873 56.536 204.905 56.4425C204.945 56.349 204.889 56.1713 204.738 55.9094L203.026 52.9444C202.864 52.6639 202.702 52.4581 202.54 52.3271C202.374 52.19 202.176 52.1214 201.946 52.1214L201.832 51.925C202.074 51.9437 202.302 51.953 202.518 51.953C202.878 51.953 203.208 51.9437 203.506 51.925C203.809 51.9 204.081 51.8657 204.322 51.8221L204.711 52.4955C204.711 52.3334 204.75 52.2024 204.829 52.1027C204.905 51.9967 205.015 51.9187 205.159 51.8688C205.31 51.819 205.49 51.794 205.699 51.794ZM209.735 51.794C210.368 51.794 210.959 51.9561 211.506 52.2804C212.057 52.5984 212.55 53.1346 212.985 53.8891H209.605L209.481 53.7114H211.306C211.137 53.4059 210.96 53.1253 210.777 52.8696C210.59 52.6077 210.411 52.3989 210.242 52.243C210.073 52.0871 209.92 52.0091 209.783 52.0091C209.589 52.0091 209.508 52.1432 209.54 52.4113C209.569 52.6732 209.751 53.1253 210.086 53.7675L210.172 53.8423C210.201 53.9047 210.233 53.9671 210.269 54.0294C210.305 54.0918 210.343 54.1572 210.383 54.2258C210.635 54.6623 210.892 55.0021 211.155 55.2453C211.425 55.4885 211.68 55.6568 211.922 55.7504C212.17 55.8439 212.391 55.8907 212.586 55.8907C212.687 55.8907 212.798 55.8782 212.921 55.8533C213.05 55.8283 213.173 55.7722 213.288 55.6849C213.399 55.5914 213.48 55.4511 213.531 55.264L213.747 55.3201C213.804 55.5695 213.808 55.819 213.758 56.0684C213.711 56.3116 213.583 56.5142 213.374 56.6763C213.162 56.8322 212.84 56.9102 212.408 56.9102C211.947 56.9102 211.479 56.8291 211.004 56.667C210.536 56.5049 210.082 56.2367 209.643 55.8626C209.204 55.4885 208.802 54.9865 208.439 54.3568C208.093 53.7582 207.935 53.2718 207.963 52.8977C207.989 52.5173 208.16 52.2399 208.476 52.0653C208.797 51.8844 209.216 51.794 209.735 51.794ZM214.551 51.794C214.867 51.794 215.163 51.8252 215.436 51.8876C215.713 51.9437 215.92 51.9967 216.057 52.0466C216.385 52.1775 216.493 52.0964 216.381 51.8034H216.597C216.687 51.9842 216.804 52.2056 216.948 52.4674C217.089 52.7231 217.281 53.0629 217.526 53.4869H217.31C217.148 53.2562 216.952 53.0286 216.721 52.8042C216.498 52.5797 216.25 52.3926 215.976 52.243C215.71 52.0933 215.429 52.0185 215.134 52.0185C214.954 52.0185 214.83 52.0653 214.761 52.1588C214.693 52.2523 214.705 52.3801 214.799 52.5423C214.907 52.7293 215.069 52.8977 215.285 53.0473C215.497 53.1907 215.744 53.331 216.025 53.4682C216.302 53.5992 216.585 53.7395 216.873 53.8891C217.186 54.045 217.472 54.1978 217.731 54.3474C217.99 54.4971 218.223 54.6623 218.428 54.8431C218.637 55.0177 218.811 55.2266 218.952 55.4698C219.114 55.7504 219.157 55.9998 219.081 56.218C219.013 56.4363 218.849 56.6077 218.59 56.7324C218.334 56.8509 218.005 56.9102 217.602 56.9102C217.35 56.9102 217.116 56.8852 216.9 56.8353C216.687 56.7917 216.505 56.7387 216.354 56.6763C216.21 56.6264 216.088 56.589 215.987 56.5641C215.89 56.5329 215.802 56.5173 215.722 56.5173C215.65 56.5173 215.609 56.5516 215.598 56.6202C215.584 56.6826 215.587 56.7574 215.609 56.8447H215.393C215.292 56.6451 215.163 56.402 215.004 56.1151C214.846 55.8283 214.63 55.448 214.356 54.9741H214.572C214.806 55.3045 215.058 55.5976 215.328 55.8533C215.605 56.1089 215.884 56.3116 216.165 56.4612C216.45 56.6046 216.721 56.6763 216.981 56.6763C217.096 56.6763 217.189 56.6576 217.261 56.6202C217.333 56.5828 217.377 56.5267 217.391 56.4519C217.405 56.377 217.378 56.2804 217.31 56.1619C217.152 55.8875 216.921 55.6568 216.619 55.4698C216.324 55.2827 215.967 55.0769 215.55 54.8525C215.233 54.6779 214.93 54.5095 214.642 54.3474C214.358 54.1791 214.099 53.9982 213.865 53.8049C213.627 53.6054 213.438 53.384 213.298 53.1409C213.136 52.8603 213.091 52.6202 213.163 52.4207C213.242 52.2211 213.406 52.0684 213.654 51.9624C213.899 51.8501 214.198 51.794 214.551 51.794ZM219.645 51.794C219.962 51.794 220.257 51.8252 220.53 51.8876C220.808 51.9437 221.015 51.9967 221.151 52.0466C221.479 52.1775 221.587 52.0964 221.475 51.8034H221.691C221.781 51.9842 221.898 52.2056 222.042 52.4674C222.183 52.7231 222.375 53.0629 222.62 53.4869H222.404C222.242 53.2562 222.046 53.0286 221.816 52.8042C221.592 52.5797 221.344 52.3926 221.07 52.243C220.804 52.0933 220.523 52.0185 220.228 52.0185C220.048 52.0185 219.924 52.0653 219.855 52.1588C219.787 52.2523 219.8 52.3801 219.893 52.5423C220.001 52.7293 220.163 52.8977 220.379 53.0473C220.592 53.1907 220.838 53.331 221.119 53.4682C221.396 53.5992 221.679 53.7395 221.967 53.8891C222.28 54.045 222.566 54.1978 222.825 54.3474C223.085 54.4971 223.317 54.6623 223.522 54.8431C223.731 55.0177 223.905 55.2266 224.046 55.4698C224.208 55.7504 224.251 55.9998 224.175 56.218C224.107 56.4363 223.943 56.6077 223.684 56.7324C223.428 56.8509 223.099 56.9102 222.696 56.9102C222.444 56.9102 222.21 56.8852 221.994 56.8353C221.781 56.7917 221.6 56.7387 221.448 56.6763C221.304 56.6264 221.182 56.589 221.081 56.5641C220.984 56.5329 220.896 56.5173 220.817 56.5173C220.745 56.5173 220.703 56.5516 220.692 56.6202C220.678 56.6826 220.682 56.7574 220.703 56.8447H220.487C220.386 56.6451 220.257 56.402 220.098 56.1151C219.94 55.8283 219.724 55.448 219.45 54.9741H219.666C219.9 55.3045 220.152 55.5976 220.422 55.8533C220.7 56.1089 220.979 56.3116 221.259 56.4612C221.544 56.6046 221.816 56.6763 222.075 56.6763C222.19 56.6763 222.284 56.6576 222.356 56.6202C222.428 56.5828 222.471 56.5267 222.485 56.4519C222.5 56.377 222.473 56.2804 222.404 56.1619C222.246 55.8875 222.015 55.6568 221.713 55.4698C221.418 55.2827 221.061 55.0769 220.644 54.8525C220.327 54.6779 220.025 54.5095 219.737 54.3474C219.452 54.1791 219.193 53.9982 218.959 53.8049C218.721 53.6054 218.532 53.384 218.392 53.1409C218.23 52.8603 218.185 52.6202 218.257 52.4207C218.336 52.2211 218.5 52.0684 218.748 51.9624C218.993 51.8501 219.292 51.794 219.645 51.794Z" fill="black"/>
<path d="M173.938 70.5273C173.696 70.1088 173.892 69.7695 174.375 69.7695H233.825C234.308 69.7695 234.896 70.1088 235.138 70.5273C235.379 70.9458 235.183 71.2851 234.7 71.2851H175.25C174.767 71.2851 174.179 70.9458 173.938 70.5273Z" fill="black" fill-opacity="0.2"/>
<path d="M249.416 49.4651C249.79 49.4651 250.118 49.5337 250.399 49.6709C250.683 49.8018 250.903 50.0013 251.058 50.2695C251.212 50.5376 251.225 50.7402 251.095 50.8774C250.969 51.0084 250.719 51.0738 250.345 51.0738C249.97 51.0738 249.641 51.0084 249.357 50.8774C249.076 50.7402 248.858 50.5376 248.703 50.2695C248.548 50.0013 248.534 49.8018 248.66 49.6709C248.79 49.5337 249.042 49.4651 249.416 49.4651ZM251.814 51.8221L254.173 55.9094C254.325 56.1713 254.47 56.349 254.611 56.4425C254.758 56.536 254.944 56.5828 255.167 56.5828L255.28 56.7792C255.133 56.773 254.913 56.7667 254.622 56.7605C254.326 56.748 254.028 56.7418 253.725 56.7418C253.423 56.7418 253.12 56.748 252.818 56.7605C252.512 56.7667 252.282 56.773 252.127 56.7792L252.013 56.5828C252.237 56.5828 252.364 56.536 252.397 56.4425C252.436 56.349 252.381 56.1713 252.229 55.9094L250.518 52.9444C250.356 52.6639 250.194 52.4581 250.032 52.3271C249.866 52.19 249.668 52.1214 249.438 52.1214L249.324 51.925C249.565 51.9437 249.794 51.953 250.01 51.953C250.37 51.953 250.699 51.9437 250.998 51.925C251.301 51.9 251.572 51.8657 251.814 51.8221ZM257.079 51.794C257.411 51.794 257.691 51.8314 257.922 51.9063C258.156 51.9748 258.354 52.0621 258.516 52.1681C258.689 52.2804 258.854 52.43 259.013 52.6171C259.171 52.8042 259.342 53.0567 259.526 53.3747L260.989 55.9094C261.14 56.1713 261.286 56.349 261.426 56.4425C261.574 56.536 261.759 56.5828 261.983 56.5828L262.096 56.7792C261.948 56.773 261.725 56.7667 261.426 56.7605C261.131 56.748 260.843 56.7418 260.562 56.7418C260.26 56.7418 259.968 56.748 259.688 56.7605C259.403 56.7667 259.191 56.773 259.05 56.7792L258.937 56.5828C259.124 56.5828 259.227 56.536 259.245 56.4425C259.263 56.349 259.196 56.1713 259.045 55.9094L257.29 52.8696C257.214 52.7387 257.133 52.6296 257.047 52.5423C256.961 52.455 256.865 52.3895 256.761 52.3459C256.664 52.3022 256.55 52.2804 256.421 52.2804C256.291 52.2804 256.181 52.3084 256.091 52.3646C256.008 52.4207 255.958 52.5017 255.94 52.6077C255.926 52.7075 255.956 52.8229 256.032 52.9538L257.738 55.9094C257.889 56.1713 258.028 56.349 258.154 56.4425C258.287 56.536 258.444 56.5828 258.624 56.5828L258.737 56.7792C258.597 56.773 258.392 56.7667 258.122 56.7605C257.848 56.748 257.571 56.7418 257.29 56.7418C256.988 56.7418 256.685 56.748 256.383 56.7605C256.077 56.7667 255.846 56.773 255.692 56.7792L255.578 56.5828C255.801 56.5828 255.929 56.536 255.962 56.4425C256.001 56.349 255.945 56.1713 255.794 55.9094L254.082 52.9444C253.92 52.6639 253.758 52.4581 253.596 52.3271C253.431 52.19 253.233 52.1214 253.002 52.1214L252.889 51.925C253.13 51.9437 253.359 51.953 253.575 51.953C253.935 51.953 254.264 51.9437 254.563 51.925C254.865 51.9 255.137 51.8657 255.378 51.8221L255.767 52.4955C255.796 52.2461 255.924 52.0684 256.151 51.9624C256.381 51.8501 256.691 51.794 257.079 51.794ZM263.548 50.4098L264.422 51.925H265.481L265.589 52.112H264.53L266.771 55.9936C266.84 56.112 266.915 56.1993 266.998 56.2554C267.077 56.3053 267.175 56.3303 267.29 56.3303C267.369 56.3303 267.452 56.3116 267.538 56.2741C267.621 56.2305 267.68 56.1588 267.716 56.059L267.943 56.1713C267.922 56.3957 267.824 56.5766 267.652 56.7137C267.482 56.8447 267.211 56.9102 266.836 56.9102C266.599 56.9102 266.366 56.8821 266.14 56.826C265.924 56.7761 265.724 56.6981 265.54 56.5921C265.303 56.455 265.105 56.2866 264.946 56.0871C264.784 55.8813 264.61 55.6163 264.422 55.2921L262.586 52.112H261.766L261.658 51.925H262.478L261.841 50.8213C262.223 50.8213 262.55 50.7901 262.824 50.7278C263.101 50.6592 263.342 50.5532 263.548 50.4098ZM268.448 51.794C269.082 51.794 269.672 51.9561 270.219 52.2804C270.77 52.5984 271.263 53.1346 271.699 53.8891H268.319L268.194 53.7114H270.02C269.85 53.4059 269.674 53.1253 269.49 52.8696C269.303 52.6077 269.125 52.3989 268.956 52.243C268.787 52.0871 268.634 52.0091 268.497 52.0091C268.302 52.0091 268.221 52.1432 268.254 52.4113C268.283 52.6732 268.464 53.1253 268.799 53.7675L268.886 53.8423C268.914 53.9047 268.947 53.9671 268.983 54.0294C269.019 54.0918 269.057 54.1572 269.096 54.2258C269.348 54.6623 269.606 55.0021 269.868 55.2453C270.138 55.4885 270.394 55.6568 270.635 55.7504C270.884 55.8439 271.105 55.8907 271.299 55.8907C271.4 55.8907 271.512 55.8782 271.634 55.8533C271.764 55.8283 271.886 55.7722 272.001 55.6849C272.113 55.5914 272.194 55.4511 272.244 55.264L272.46 55.3201C272.518 55.5695 272.522 55.819 272.471 56.0684C272.424 56.3116 272.297 56.5142 272.088 56.6763C271.875 56.8322 271.553 56.9102 271.121 56.9102C270.66 56.9102 270.192 56.8291 269.717 56.667C269.249 56.5049 268.796 56.2367 268.356 55.8626C267.917 55.4885 267.516 54.9865 267.152 54.3568C266.807 53.7582 266.648 53.2718 266.677 52.8977C266.702 52.5173 266.873 52.2399 267.19 52.0653C267.51 51.8844 267.93 51.794 268.448 51.794ZM273.264 51.794C273.581 51.794 273.876 51.8252 274.15 51.8876C274.427 51.9437 274.634 51.9967 274.771 52.0466C275.098 52.1775 275.206 52.0964 275.095 51.8034H275.311C275.401 51.9842 275.518 52.2056 275.662 52.4674C275.802 52.7231 275.995 53.0629 276.24 53.4869H276.024C275.862 53.2562 275.665 53.0286 275.435 52.8042C275.212 52.5797 274.963 52.3926 274.69 52.243C274.423 52.0933 274.143 52.0185 273.847 52.0185C273.667 52.0185 273.543 52.0653 273.475 52.1588C273.406 52.2523 273.419 52.3801 273.513 52.5423C273.621 52.7293 273.783 52.8977 273.999 53.0473C274.211 53.1907 274.458 53.331 274.738 53.4682C275.016 53.5992 275.298 53.7395 275.586 53.8891C275.899 54.045 276.186 54.1978 276.445 54.3474C276.704 54.4971 276.936 54.6623 277.141 54.8431C277.35 55.0177 277.525 55.2266 277.665 55.4698C277.827 55.7504 277.87 55.9998 277.795 56.218C277.726 56.4363 277.563 56.6077 277.303 56.7324C277.048 56.8509 276.718 56.9102 276.315 56.9102C276.063 56.9102 275.829 56.8852 275.613 56.8353C275.401 56.7917 275.219 56.7387 275.068 56.6763C274.924 56.6264 274.801 56.589 274.701 56.5641C274.603 56.5329 274.515 56.5173 274.436 56.5173C274.364 56.5173 274.323 56.5516 274.312 56.6202C274.297 56.6826 274.301 56.7574 274.323 56.8447H274.107C274.006 56.6451 273.876 56.402 273.718 56.1151C273.559 55.8283 273.343 55.448 273.07 54.9741H273.286C273.52 55.3045 273.772 55.5976 274.042 55.8533C274.319 56.1089 274.598 56.3116 274.879 56.4612C275.163 56.6046 275.435 56.6763 275.694 56.6763C275.809 56.6763 275.903 56.6576 275.975 56.6202C276.047 56.5828 276.09 56.5267 276.105 56.4519C276.119 56.377 276.092 56.2804 276.024 56.1619C275.865 55.8875 275.635 55.6568 275.332 55.4698C275.037 55.2827 274.681 55.0769 274.263 54.8525C273.946 54.6779 273.644 54.5095 273.356 54.3474C273.072 54.1791 272.812 53.9982 272.578 53.8049C272.341 53.6054 272.152 53.384 272.011 53.1409C271.849 52.8603 271.804 52.6202 271.876 52.4207C271.956 52.2211 272.119 52.0684 272.368 51.9624C272.613 51.8501 272.911 51.794 273.264 51.794ZM277.786 50.4098L278.661 51.925H279.719L279.827 52.112H278.769L281.01 55.9936C281.078 56.112 281.154 56.1993 281.236 56.2554C281.316 56.3053 281.413 56.3303 281.528 56.3303C281.607 56.3303 281.69 56.3116 281.776 56.2741C281.859 56.2305 281.919 56.1588 281.955 56.059L282.181 56.1713C282.16 56.3957 282.063 56.5766 281.89 56.7137C281.721 56.8447 281.449 56.9102 281.074 56.9102C280.837 56.9102 280.605 56.8821 280.378 56.826C280.162 56.7761 279.962 56.6981 279.778 56.5921C279.541 56.455 279.343 56.2866 279.184 56.0871C279.022 55.8813 278.848 55.6163 278.661 55.2921L276.825 52.112H276.004L275.896 51.925H276.717L276.079 50.8213C276.461 50.8213 276.789 50.7901 277.062 50.7278C277.339 50.6592 277.581 50.5532 277.786 50.4098Z" fill="black"/>
<path d="M244.738 70.5273C244.496 70.1088 244.692 69.7695 245.175 69.7695H304.625C305.109 69.7695 305.696 70.1088 305.938 70.5273C306.179 70.9458 305.984 71.2851 305.5 71.2851H246.05C245.567 71.2851 244.979 70.9458 244.738 70.5273Z" fill="black" fill-opacity="0.2"/>
<path d="M327.277 49.4651L330.905 55.7504C331.067 56.031 331.231 56.2398 331.397 56.377C331.566 56.508 331.762 56.5734 331.985 56.5734L332.099 56.7699C331.865 56.7512 331.636 56.7418 331.413 56.7418C331.053 56.7418 330.724 56.7512 330.425 56.7699C330.126 56.7886 329.854 56.8229 329.609 56.8727L325.981 50.5875C325.819 50.3069 325.657 50.1011 325.495 49.9702C325.329 49.833 325.131 49.7644 324.901 49.7644L324.787 49.568C325.028 49.5867 325.257 49.596 325.473 49.596C325.833 49.596 326.162 49.5867 326.461 49.568C326.764 49.543 327.035 49.5088 327.277 49.4651ZM325.554 51.794C325.871 51.794 326.157 51.8283 326.413 51.8969C326.665 51.9593 326.915 52.0621 327.163 52.2056L327.104 52.3084C326.971 52.2399 326.837 52.19 326.704 52.1588C326.567 52.1214 326.449 52.1027 326.348 52.1027C326.017 52.1027 325.874 52.2866 325.921 52.6545C325.968 53.0224 326.211 53.5867 326.65 54.3474C326.967 54.8961 327.246 55.3232 327.487 55.6288C327.725 55.9281 327.932 56.137 328.108 56.2554C328.288 56.3677 328.443 56.4238 328.573 56.4238C328.774 56.4238 328.918 56.3614 329.005 56.2367C329.087 56.1058 329.073 55.9437 328.961 55.7504L329.226 56.2087C329.219 56.4456 329.145 56.6233 329.005 56.7418C328.861 56.854 328.63 56.9102 328.313 56.9102C327.903 56.9102 327.478 56.8229 327.039 56.6483C326.603 56.4674 326.179 56.1868 325.765 55.8065C325.351 55.4261 324.967 54.9304 324.614 54.3194C324.287 53.7519 324.114 53.2843 324.096 52.9164C324.082 52.5423 324.2 52.2617 324.452 52.0746C324.704 51.8876 325.072 51.794 325.554 51.794ZM332.513 51.794C333.075 51.794 333.609 51.8782 334.117 52.0466C334.628 52.2087 335.107 52.4768 335.553 52.8509C336 53.225 336.405 53.727 336.768 54.3568C337.132 54.9865 337.307 55.4885 337.292 55.8626C337.278 56.2367 337.109 56.5049 336.785 56.667C336.468 56.8291 336.029 56.9102 335.467 56.9102C334.913 56.9102 334.38 56.8291 333.869 56.667C333.357 56.5049 332.879 56.2367 332.432 55.8626C331.986 55.4885 331.581 54.9865 331.217 54.3568C330.854 53.727 330.679 53.225 330.693 52.8509C330.708 52.4768 330.877 52.2087 331.201 52.0466C331.521 51.8782 331.959 51.794 332.513 51.794ZM332.621 51.9811C332.405 51.9811 332.333 52.1681 332.405 52.5423C332.477 52.9164 332.754 53.5212 333.237 54.3568C333.719 55.1923 334.14 55.7971 334.5 56.1713C334.857 56.5391 335.143 56.7231 335.359 56.7231C335.575 56.7231 335.649 56.5391 335.58 56.1713C335.508 55.7971 335.231 55.1923 334.749 54.3568C334.266 53.5212 333.845 52.9164 333.485 52.5423C333.125 52.1681 332.837 51.9811 332.621 51.9811ZM340.118 51.794C340.449 51.794 340.73 51.8314 340.961 51.9063C341.195 51.9748 341.393 52.0621 341.555 52.1681C341.727 52.2804 341.893 52.43 342.051 52.6171C342.21 52.8042 342.381 53.0567 342.564 53.3747L344.028 55.9094C344.179 56.1713 344.325 56.349 344.465 56.4425C344.613 56.536 344.798 56.5828 345.021 56.5828L345.135 56.7792C344.987 56.773 344.764 56.7667 344.465 56.7605C344.17 56.748 343.882 56.7418 343.601 56.7418C343.299 56.7418 343.007 56.748 342.726 56.7605C342.442 56.7667 342.23 56.773 342.089 56.7792L341.976 56.5828C342.163 56.5828 342.266 56.536 342.284 56.4425C342.302 56.349 342.235 56.1713 342.084 55.9094L340.329 52.8696C340.253 52.7387 340.172 52.6296 340.086 52.5423C339.999 52.455 339.904 52.3895 339.8 52.3459C339.702 52.3022 339.589 52.2804 339.459 52.2804C339.33 52.2804 339.22 52.3084 339.13 52.3646C339.047 52.4207 338.997 52.5017 338.979 52.6077C338.964 52.7075 338.995 52.8229 339.071 52.9538L340.777 55.9094C340.928 56.1713 341.067 56.349 341.193 56.4425C341.326 56.536 341.483 56.5828 341.663 56.5828L341.776 56.7792C341.636 56.773 341.43 56.7667 341.16 56.7605C340.887 56.748 340.61 56.7418 340.329 56.7418C340.026 56.7418 339.724 56.748 339.422 56.7605C339.116 56.7667 338.885 56.773 338.73 56.7792L338.617 56.5828C338.84 56.5828 338.968 56.536 339 56.4425C339.04 56.349 338.984 56.1713 338.833 55.9094L337.121 52.9444C336.959 52.6639 336.797 52.4581 336.635 52.3271C336.47 52.19 336.272 52.1214 336.041 52.1214L335.928 51.925C336.169 51.9437 336.398 51.953 336.614 51.953C336.974 51.953 337.303 51.9437 337.602 51.925C337.904 51.9 338.176 51.8657 338.417 51.8221L338.806 52.4955C338.835 52.2461 338.963 52.0684 339.189 51.9624C339.42 51.8501 339.729 51.794 340.118 51.794ZM345.486 51.794C346.119 51.794 346.71 51.9561 347.257 52.2804C347.808 52.5984 348.301 53.1346 348.737 53.8891H345.356L345.232 53.7114H347.057C346.888 53.4059 346.712 53.1253 346.528 52.8696C346.341 52.6077 346.163 52.3989 345.993 52.243C345.824 52.0871 345.671 52.0091 345.534 52.0091C345.34 52.0091 345.259 52.1432 345.291 52.4113C345.32 52.6732 345.502 53.1253 345.837 53.7675L345.923 53.8423C345.952 53.9047 345.984 53.9671 346.02 54.0294C346.056 54.0918 346.094 54.1572 346.134 54.2258C346.386 54.6623 346.643 55.0021 346.906 55.2453C347.176 55.4885 347.432 55.6568 347.673 55.7504C347.921 55.8439 348.143 55.8907 348.337 55.8907C348.438 55.8907 348.549 55.8782 348.672 55.8533C348.801 55.8283 348.924 55.7722 349.039 55.6849C349.151 55.5914 349.232 55.4511 349.282 55.264L349.498 55.3201C349.556 55.5695 349.559 55.819 349.509 56.0684C349.462 56.3116 349.334 56.5142 349.125 56.6763C348.913 56.8322 348.591 56.9102 348.159 56.9102C347.698 56.9102 347.23 56.8291 346.755 56.667C346.287 56.5049 345.833 56.2367 345.394 55.8626C344.955 55.4885 344.553 54.9865 344.19 54.3568C343.844 53.7582 343.686 53.2718 343.715 52.8977C343.74 52.5173 343.911 52.2399 344.228 52.0653C344.548 51.8844 344.967 51.794 345.486 51.794Z" fill="black"/>
<path d="M315.538 70.5273C315.296 70.1088 315.492 69.7695 315.975 69.7695H375.425C375.908 69.7695 376.496 70.1088 376.738 70.5273C376.979 70.9458 376.783 71.2851 376.3 71.2851H316.85C316.367 71.2851 315.779 70.9458 315.538 70.5273Z" fill="black" fill-opacity="0.2"/>
<path d="M110.775 83.756C109.45 81.4602 110.524 79.5991 113.175 79.5991H164.775C167.426 79.5991 170.65 81.4602 171.975 83.756L293.175 293.681C294.5 295.976 293.426 297.838 290.775 297.838H239.175C236.524 297.838 233.3 295.976 231.975 293.681L110.775 83.756Z" fill="black" fill-opacity="0.05"/>
<path d="M181.575 83.756C180.25 81.4602 181.324 79.5991 183.975 79.5991H235.575C238.226 79.5991 241.45 81.4602 242.775 83.756L363.975 293.681C365.301 295.976 364.226 297.838 361.575 297.838H309.975C307.324 297.838 304.101 295.976 302.775 293.681L181.575 83.756Z" fill="black" fill-opacity="0.05"/>
<path d="M252.375 83.756C251.05 81.4602 252.124 79.5991 254.775 79.5991H306.375C309.026 79.5991 312.25 81.4602 313.575 83.756L434.775 293.681C436.101 295.976 435.026 297.838 432.375 297.838H380.775C378.124 297.838 374.901 295.976 373.575 293.681L252.375 83.756Z" fill="black" fill-opacity="0.05"/>
<path d="M323.175 83.756C321.85 81.4602 322.924 79.5991 325.575 79.5991H377.175C379.826 79.5991 383.05 81.4602 384.375 83.756L505.575 293.681C506.901 295.976 505.826 297.838 503.175 297.838H451.575C448.924 297.838 445.701 295.976 444.375 293.681L323.175 83.756Z" fill="black" fill-opacity="0.05"/>
<path d="M110.775 83.756C109.45 81.4602 110.524 79.5991 113.175 79.5991H164.775C167.426 79.5991 170.65 81.4602 171.975 83.756L181.05 99.4744C182.375 101.77 181.301 103.631 178.65 103.631H127.05C124.399 103.631 121.175 101.77 119.85 99.4744L110.775 83.756Z" fill="black" fill-opacity="0.1"/>
<path d="M148.125 148.448C146.8 146.153 147.874 144.292 150.525 144.292H202.125C204.776 144.292 208 146.153 209.325 148.448L218.4 164.167C219.726 166.463 218.651 168.324 216 168.324H164.4C161.749 168.324 158.526 166.463 157.2 164.167L148.125 148.448Z" fill="black" fill-opacity="0.1"/>
<path d="M166.8 180.794C165.474 178.498 166.549 176.637 169.2 176.637H220.8C223.451 176.637 226.674 178.498 228 180.794L237.075 196.512C238.4 198.808 237.326 200.669 234.675 200.669H183.075C180.424 200.669 177.2 198.808 175.875 196.512L166.8 180.794Z" fill="black" fill-opacity="0.1"/>
<path d="M185.475 213.14C184.15 210.845 185.224 208.983 187.875 208.983H239.475C242.126 208.983 245.35 210.845 246.675 213.14L255.75 228.859C257.076 231.154 256.001 233.016 253.35 233.016H201.75C199.099 233.016 195.876 231.154 194.55 228.859L185.475 213.14Z" fill="black" fill-opacity="0.1"/>
<path d="M204.15 245.487C202.825 243.191 203.899 241.33 206.55 241.33H258.15C260.801 241.33 264.025 243.191 265.35 245.487L274.425 261.205C275.75 263.501 274.676 265.362 272.025 265.362H220.425C217.774 265.362 214.55 263.501 213.225 261.205L204.15 245.487Z" fill="black" fill-opacity="0.1"/>
<path d="M181.575 83.756C180.25 81.4602 181.324 79.5991 183.975 79.5991H235.575C238.226 79.5991 241.45 81.4602 242.775 83.756L251.85 99.4744C253.176 101.77 252.101 103.631 249.45 103.631H197.85C195.199 103.631 191.976 101.77 190.65 99.4744L181.575 83.756Z" fill="black" fill-opacity="0.1"/>
<path d="M252.375 83.756C251.05 81.4602 252.124 79.5991 254.775 79.5991H306.375C309.026 79.5991 312.25 81.4602 313.575 83.756L322.65 99.4744C323.976 101.77 322.901 103.631 320.25 103.631H268.65C265.999 103.631 262.776 101.77 261.45 99.4744L252.375 83.756Z" fill="black" fill-opacity="0.1"/>
<path d="M323.175 83.756C321.85 81.4602 322.924 79.5991 325.575 79.5991H377.175C379.826 79.5991 383.05 81.4602 384.375 83.756L393.45 99.4744C394.776 101.77 393.701 103.631 391.05 103.631H339.45C336.799 103.631 333.576 101.77 332.25 99.4744L323.175 83.756Z" fill="black" fill-opacity="0.1"/>
<path d="M129.45 116.102C128.125 113.806 129.199 111.945 131.85 111.945H183.45C186.101 111.945 189.325 113.806 190.65 116.102L199.725 131.821C201.051 134.116 199.976 135.978 197.325 135.978H145.725C143.074 135.978 139.851 134.116 138.525 131.821L129.45 116.102Z" fill="black" fill-opacity="0.1"/>
<path d="M200.25 116.102C198.925 113.806 199.999 111.945 202.65 111.945H254.25C256.901 111.945 260.125 113.806 261.45 116.102L270.525 131.821C271.851 134.116 270.776 135.978 268.125 135.978H216.525C213.874 135.978 210.651 134.116 209.325 131.821L200.25 116.102Z" fill="black" fill-opacity="0.1"/>
<path d="M341.85 116.102C340.525 113.806 341.599 111.945 344.25 111.945H395.85C398.501 111.945 401.725 113.806 403.05 116.102L412.125 131.821C413.451 134.116 412.376 135.978 409.725 135.978H358.125C355.474 135.978 352.251 134.116 350.925 131.821L341.85 116.102Z" fill="black" fill-opacity="0.1"/>
<path d="M360.525 148.448C359.2 146.153 360.274 144.292 362.925 144.292H414.525C417.176 144.292 420.4 146.153 421.725 148.448L430.8 164.167C432.125 166.463 431.051 168.324 428.4 168.324H376.8C374.149 168.324 370.925 166.463 369.6 164.167L360.525 148.448Z" fill="black" fill-opacity="0.1"/>
</svg>
