<svg width="1000" height="400" viewBox="0 0 1000 400" fill="none" xmlns="http://www.w3.org/2000/svg" xmlns:xlink="http://www.w3.org/1999/xlink">
<rect width="856.445" height="146" rx="5" transform="matrix(1 0 0.5 0.866025 28.5 254.694)" fill="url(#paint0_linear_642_2395)"/>
<rect width="856.445" height="146" rx="5" transform="matrix(1 0 0.5 0.866025 28.5 254.694)" fill="url(#pattern0_642_2395)" fill-opacity="0.3" style="mix-blend-mode:plus-darker"/>
<mask id="path-4-inside-1_642_2395" fill="white">
<path d="M30 143.476C28.3431 140.607 29.6863 138.28 33 138.28H201C204.314 138.28 208.343 140.607 210 143.476L278 261.256C279.657 264.126 278.314 266.452 275 266.452H107C103.686 266.452 99.6569 264.126 98 261.256L30 143.476Z"/>
</mask>
<path d="M30 143.476C28.3431 140.607 29.6863 138.28 33 138.28H201C204.314 138.28 208.343 140.607 210 143.476L278 261.256C279.657 264.126 278.314 266.452 275 266.452H107C103.686 266.452 99.6569 264.126 98 261.256L30 143.476Z" fill="black" fill-opacity="0.1"/>
<path d="M33 138.28L35.5 142.61H203.5L201 138.28L198.5 133.95H30.5L33 138.28ZM210 143.476H205L273 261.256H278H283L215 143.476H210ZM275 266.452L272.5 262.122H104.5L107 266.452L109.5 270.782H277.5L275 266.452ZM98 261.256H103L35 143.476H30H25L93 261.256H98ZM107 266.452L104.5 262.122C103.948 262.122 103.276 261.734 103 261.256H98H93C96.0376 266.517 103.425 270.782 109.5 270.782L107 266.452ZM278 261.256H273C273.276 261.734 273.052 262.122 272.5 262.122L275 266.452L277.5 270.782C283.575 270.782 286.038 266.517 283 261.256H278ZM201 138.28L203.5 142.61C204.052 142.61 204.724 142.998 205 143.476H210H215C211.962 138.215 204.575 133.95 198.5 133.95L201 138.28ZM33 138.28L30.5 133.95C24.4249 133.95 21.9624 138.215 25 143.476H30H35C34.7239 142.998 34.9477 142.61 35.5 142.61L33 138.28Z" fill="black" mask="url(#path-4-inside-1_642_2395)"/>
<path d="M50 153.868C48.8954 151.955 49.7909 150.404 52 150.404H132C134.209 150.404 136.895 151.955 138 153.868L178 223.15C179.105 225.064 178.209 226.615 176 226.615H96C93.7909 226.615 91.1046 225.064 90 223.15L50 153.868Z" fill="black" fill-opacity="0.2"/>
<path d="M146 153.868C144.895 151.955 145.791 150.404 148 150.404H196C198.209 150.404 200.895 151.955 202 153.868L226 195.438C227.105 197.351 226.209 198.902 224 198.902H176C173.791 198.902 171.105 197.351 170 195.438L146 153.868Z" fill="black" fill-opacity="0.2"/>
<path d="M178 209.294C176.895 207.381 177.791 205.83 180 205.83H196C198.209 205.83 200.895 207.381 202 209.294L210 223.151C211.105 225.064 210.209 226.615 208 226.615H192C189.791 226.615 187.105 225.064 186 223.151L178 209.294Z" fill="black" fill-opacity="0.2"/>
<path d="M210 209.294C208.895 207.381 209.791 205.83 212 205.83H228C230.209 205.83 232.895 207.381 234 209.294L258 250.863C259.105 252.777 258.209 254.328 256 254.328H240C237.791 254.328 235.105 252.777 234 250.863L210 209.294Z" fill="black" fill-opacity="0.2"/>
<path d="M98 237.007C96.8954 235.094 97.7909 233.543 100 233.543H180C182.209 233.543 184.895 235.094 186 237.007L194 250.863C195.105 252.777 194.209 254.328 192 254.328H112C109.791 254.328 107.105 252.777 106 250.863L98 237.007Z" fill="black" fill-opacity="0.2"/>
<path d="M194 237.007C192.895 235.094 193.791 233.543 196 233.543H212C214.209 233.543 216.895 235.094 218 237.007L226 250.863C227.105 252.777 226.209 254.328 224 254.328H208C205.791 254.328 203.105 252.777 202 250.863L194 237.007Z" fill="black" fill-opacity="0.2"/>
<path d="M278.348 200.835C277.86 201.681 278.652 203.052 280.116 203.897L303.981 217.676C305.445 218.521 307.028 218.521 307.517 217.676C308.005 216.83 307.213 215.459 305.749 214.614L284.536 202.366L291.607 190.119C292.095 189.273 291.303 187.902 289.839 187.057C288.374 186.211 286.791 186.211 286.303 187.057L278.348 200.835ZM281 202.366L282.25 204.531H367.75L366.5 202.366L365.25 200.201H279.75L281 202.366Z" fill="black"/>
<mask id="path-13-inside-2_642_2395" fill="white">
<path d="M369.5 143.476C367.843 140.607 369.186 138.28 372.5 138.28H540.5C543.814 138.28 547.843 140.607 549.5 143.476L617.5 261.256C619.157 264.126 617.814 266.452 614.5 266.452H446.5C443.186 266.452 439.157 264.126 437.5 261.256L369.5 143.476Z"/>
</mask>
<path d="M369.5 143.476C367.843 140.607 369.186 138.28 372.5 138.28H540.5C543.814 138.28 547.843 140.607 549.5 143.476L617.5 261.256C619.157 264.126 617.814 266.452 614.5 266.452H446.5C443.186 266.452 439.157 264.126 437.5 261.256L369.5 143.476Z" fill="black" fill-opacity="0.1"/>
<path d="M372.5 138.28L375 142.61H543L540.5 138.28L538 133.95H370L372.5 138.28ZM549.5 143.476H544.5L612.5 261.256H617.5H622.5L554.5 143.476H549.5ZM614.5 266.452L612 262.122H444L446.5 266.452L449 270.782H617L614.5 266.452ZM437.5 261.256H442.5L374.5 143.476H369.5H364.5L432.5 261.256H437.5ZM446.5 266.452L444 262.122C443.448 262.122 442.776 261.734 442.5 261.256H437.5H432.5C435.538 266.517 442.925 270.782 449 270.782L446.5 266.452ZM617.5 261.256H612.5C612.776 261.734 612.552 262.122 612 262.122L614.5 266.452L617 270.782C623.075 270.782 625.538 266.517 622.5 261.256H617.5ZM540.5 138.28L543 142.61C543.552 142.61 544.224 142.998 544.5 143.476H549.5H554.5C551.462 138.215 544.075 133.95 538 133.95L540.5 138.28ZM372.5 138.28L370 133.95C363.925 133.95 361.462 138.215 364.5 143.476H369.5H374.5C374.224 142.998 374.448 142.61 375 142.61L372.5 138.28Z" fill="black" mask="url(#path-13-inside-2_642_2395)"/>
<path d="M389.5 153.868C388.395 151.955 389.291 150.404 391.5 150.404H407.5C409.709 150.404 412.395 151.955 413.5 153.868L421.5 167.725C422.605 169.638 421.709 171.189 419.5 171.189H403.5C401.291 171.189 398.605 169.638 397.5 167.725L389.5 153.868Z" fill="black" fill-opacity="0.2"/>
<path d="M421.5 153.868C420.395 151.955 421.291 150.404 423.5 150.404H439.5C441.709 150.404 444.395 151.955 445.5 153.868L453.5 167.725C454.605 169.638 453.709 171.189 451.5 171.189H435.5C433.291 171.189 430.605 169.638 429.5 167.725L421.5 153.868Z" fill="black" fill-opacity="0.2"/>
<path d="M453.5 153.868C452.395 151.955 453.291 150.404 455.5 150.404H471.5C473.709 150.404 476.395 151.955 477.5 153.868L485.5 167.725C486.605 169.638 485.709 171.189 483.5 171.189H467.5C465.291 171.189 462.605 169.638 461.5 167.725L453.5 153.868Z" fill="black" fill-opacity="0.2"/>
<path d="M485.5 153.868C484.395 151.955 485.291 150.404 487.5 150.404H503.5C505.709 150.404 508.395 151.955 509.5 153.868L517.5 167.725C518.605 169.638 517.709 171.189 515.5 171.189H499.5C497.291 171.189 494.605 169.638 493.5 167.725L485.5 153.868Z" fill="black" fill-opacity="0.2"/>
<path d="M517.5 153.868C516.395 151.955 517.291 150.404 519.5 150.404H535.5C537.709 150.404 540.395 151.955 541.5 153.868L549.5 167.725C550.605 169.638 549.709 171.189 547.5 171.189H531.5C529.291 171.189 526.605 169.638 525.5 167.725L517.5 153.868Z" fill="black" fill-opacity="0.2"/>
<path d="M405.5 181.581C404.395 179.668 405.291 178.117 407.5 178.117H423.5C425.709 178.117 428.395 179.668 429.5 181.581L437.5 195.438C438.605 197.351 437.709 198.902 435.5 198.902H419.5C417.291 198.902 414.605 197.351 413.5 195.438L405.5 181.581Z" fill="black" fill-opacity="0.2"/>
<path d="M437.5 181.581C436.395 179.668 437.291 178.117 439.5 178.117H455.5C457.709 178.117 460.395 179.668 461.5 181.581L469.5 195.438C470.605 197.351 469.709 198.902 467.5 198.902H451.5C449.291 198.902 446.605 197.351 445.5 195.438L437.5 181.581Z" fill="black" fill-opacity="0.2"/>
<path d="M469.5 181.581C468.395 179.668 469.291 178.117 471.5 178.117H487.5C489.709 178.117 492.395 179.668 493.5 181.581L501.5 195.438C502.605 197.351 501.709 198.902 499.5 198.902H483.5C481.291 198.902 478.605 197.351 477.5 195.438L469.5 181.581Z" fill="black" fill-opacity="0.2"/>
<path d="M501.5 181.581C500.395 179.668 501.291 178.117 503.5 178.117H519.5C521.709 178.117 524.395 179.668 525.5 181.581L533.5 195.438C534.605 197.351 533.709 198.902 531.5 198.902H515.5C513.291 198.902 510.605 197.351 509.5 195.438L501.5 181.581Z" fill="black" fill-opacity="0.2"/>
<path d="M533.5 181.581C532.395 179.668 533.291 178.117 535.5 178.117H551.5C553.709 178.117 556.395 179.668 557.5 181.581L565.5 195.438C566.605 197.351 565.709 198.902 563.5 198.902H547.5C545.291 198.902 542.605 197.351 541.5 195.438L533.5 181.581Z" fill="black" fill-opacity="0.2"/>
<path d="M421.5 209.294C420.395 207.381 421.291 205.83 423.5 205.83H439.5C441.709 205.83 444.395 207.381 445.5 209.294L453.5 223.151C454.605 225.064 453.709 226.615 451.5 226.615H435.5C433.291 226.615 430.605 225.064 429.5 223.151L421.5 209.294Z" fill="black" fill-opacity="0.2"/>
<path d="M453.5 209.294C452.395 207.381 453.291 205.83 455.5 205.83H471.5C473.709 205.83 476.395 207.381 477.5 209.294L485.5 223.151C486.605 225.064 485.709 226.615 483.5 226.615H467.5C465.291 226.615 462.605 225.064 461.5 223.151L453.5 209.294Z" fill="black" fill-opacity="0.2"/>
<path d="M485.5 209.294C484.395 207.381 485.291 205.83 487.5 205.83H503.5C505.709 205.83 508.395 207.381 509.5 209.294L517.5 223.151C518.605 225.064 517.709 226.615 515.5 226.615H499.5C497.291 226.615 494.605 225.064 493.5 223.151L485.5 209.294Z" fill="black" fill-opacity="0.2"/>
<path d="M517.5 209.294C516.395 207.381 517.291 205.83 519.5 205.83H535.5C537.709 205.83 540.395 207.381 541.5 209.294L549.5 223.151C550.605 225.064 549.709 226.615 547.5 226.615H531.5C529.291 226.615 526.605 225.064 525.5 223.151L517.5 209.294Z" fill="black" fill-opacity="0.2"/>
<path d="M549.5 209.294C548.395 207.381 549.291 205.83 551.5 205.83H567.5C569.709 205.83 572.395 207.381 573.5 209.294L581.5 223.151C582.605 225.064 581.709 226.615 579.5 226.615H563.5C561.291 226.615 558.605 225.064 557.5 223.151L549.5 209.294Z" fill="black" fill-opacity="0.2"/>
<path d="M437.5 237.007C436.395 235.094 437.291 233.543 439.5 233.543H583.5C585.709 233.543 588.395 235.094 589.5 237.007L597.5 250.863C598.605 252.777 597.709 254.328 595.5 254.328H451.5C449.291 254.328 446.605 252.777 445.5 250.863L437.5 237.007Z" fill="black" fill-opacity="0.2"/>
<path d="M708.652 203.897C709.14 203.052 708.348 201.681 706.884 200.835L683.019 187.057C681.555 186.211 679.972 186.211 679.483 187.057C678.995 187.902 679.787 189.273 681.251 190.119L702.464 202.366L695.393 214.614C694.905 215.459 695.697 216.83 697.161 217.676C698.626 218.521 700.209 218.521 700.697 217.676L708.652 203.897ZM620.5 202.366L621.75 204.531H707.25L706 202.366L704.75 200.201H619.25L620.5 202.366Z" fill="black"/>
<mask id="path-32-inside-3_642_2395" fill="white">
<path d="M709 143.476C707.343 140.607 708.686 138.28 712 138.28H880C883.314 138.28 887.343 140.607 889 143.476L957 261.256C958.657 264.126 957.314 266.452 954 266.452H786C782.686 266.452 778.657 264.126 777 261.256L709 143.476Z"/>
</mask>
<path d="M709 143.476C707.343 140.607 708.686 138.28 712 138.28H880C883.314 138.28 887.343 140.607 889 143.476L957 261.256C958.657 264.126 957.314 266.452 954 266.452H786C782.686 266.452 778.657 264.126 777 261.256L709 143.476Z" fill="black" fill-opacity="0.1"/>
<path d="M712 138.28L714.5 142.61H882.5L880 138.28L877.5 133.95H709.5L712 138.28ZM889 143.476H884L952 261.256H957H962L894 143.476H889ZM954 266.452L951.5 262.122H783.5L786 266.452L788.5 270.782H956.5L954 266.452ZM777 261.256H782L714 143.476H709H704L772 261.256H777ZM786 266.452L783.5 262.122C782.948 262.122 782.276 261.734 782 261.256H777H772C775.038 266.517 782.425 270.782 788.5 270.782L786 266.452ZM957 261.256H952C952.276 261.734 952.052 262.122 951.5 262.122L954 266.452L956.5 270.782C962.575 270.782 965.038 266.517 962 261.256H957ZM880 138.28L882.5 142.61C883.052 142.61 883.724 142.998 884 143.476H889H894C890.962 138.215 883.575 133.95 877.5 133.95L880 138.28ZM712 138.28L709.5 133.95C703.425 133.95 700.962 138.215 704 143.476H709H714C713.724 142.998 713.948 142.61 714.5 142.61L712 138.28Z" fill="black" mask="url(#path-32-inside-3_642_2395)"/>
<path d="M729 153.868C727.895 151.955 728.791 150.404 731 150.404H875C877.209 150.404 879.895 151.955 881 153.868L937 250.863C938.105 252.776 937.209 254.327 935 254.327H791C788.791 254.327 786.105 252.776 785 250.863L729 153.868Z" fill="black" fill-opacity="0.2"/>
<mask id="path-35-inside-4_642_2395" fill="white">
<path d="M369 26.1962C367.343 23.3264 368.686 21 372 21H540C543.314 21 547.343 23.3264 549 26.1962L618 145.708C619.657 148.577 618.314 150.904 615 150.904H447C443.686 150.904 439.657 148.577 438 145.708L369 26.1962Z"/>
</mask>
<path d="M369 26.1962C367.343 23.3264 368.686 21 372 21H540C543.314 21 547.343 23.3264 549 26.1962L618 145.708C619.657 148.577 618.314 150.904 615 150.904H447C443.686 150.904 439.657 148.577 438 145.708L369 26.1962Z" fill="#D9D9D9" fill-opacity="0.8"/>
<path d="M372 21L373 22.7321H541L540 21L539 19.2679H371L372 21ZM549 26.1962H547L616 145.708H618H620L551 26.1962H549ZM615 150.904L614 149.172H446L447 150.904L448 152.636H616L615 150.904ZM438 145.708H440L371 26.1962H369H367L436 145.708H438ZM447 150.904L446 149.172C443.791 149.172 441.105 147.621 440 145.708H438H436C438.209 149.534 443.582 152.636 448 152.636L447 150.904ZM618 145.708H616C617.105 147.621 616.209 149.172 614 149.172L615 150.904L616 152.636C620.418 152.636 622.209 149.534 620 145.708H618ZM540 21L541 22.7321C543.209 22.7321 545.895 24.283 547 26.1962H549H551C548.791 22.3698 543.418 19.2679 539 19.2679L540 21ZM372 21L371 19.2679C366.582 19.2679 364.791 22.3698 367 26.1962H369H371C369.895 24.283 370.791 22.7321 373 22.7321L372 21Z" fill="black" mask="url(#path-35-inside-4_642_2395)"/>
<path d="M519.25 61.27C521.459 61.27 524.145 62.821 525.25 64.7341L549.75 107.169C550.854 109.082 549.959 110.633 547.75 110.633H467.75C465.541 110.633 462.855 109.082 461.75 107.169L437.25 64.7341C436.145 62.821 437.041 61.27 439.25 61.27H519.25ZM461.643 100.055C460.538 100.055 460.091 100.831 460.643 101.787L463.732 107.138C464.284 108.095 465.627 108.87 466.732 108.87H503.732C504.837 108.87 505.284 108.095 504.732 107.138L501.643 101.787C501.09 100.831 499.747 100.055 498.643 100.055H461.643ZM504.643 100.055C503.538 100.055 503.091 100.831 503.643 101.787L506.732 107.138C507.284 108.095 508.627 108.87 509.732 108.87H546.732C547.837 108.87 548.284 108.095 547.732 107.138L544.643 101.787C544.09 100.831 542.747 100.055 541.643 100.055H504.643ZM440.268 63.0325C439.163 63.0326 438.716 63.8081 439.268 64.7646L442.357 70.1155C442.909 71.072 444.252 71.8475 445.357 71.8475H451.357C452.462 71.8475 452.909 71.0721 452.357 70.1155L449.268 64.7646C448.715 63.8081 447.372 63.0325 446.268 63.0325H440.268Z" fill="black" fill-opacity="0.2"/>
<defs>
<linearGradient id="paint0_linear_642_2395" x1="428.223" y1="146" x2="428.223" y2="0" gradientUnits="userSpaceOnUse">
<stop stop-color="#EEBA05"/>
<stop offset="0.923077" stop-color="#EEBA05" stop-opacity="0"/>
</linearGradient>
<pattern id="pattern0_642_2395" patternUnits="userSpaceOnUse" patternTransform="matrix(38.5902 0 0 44 410.682 63)" preserveAspectRatio="none" viewBox="0 0 192.951 220" width="1" height="1">
<use xlink:href="#pattern0_642_2395_inner" transform="translate(-192.951 0)"/>
<g id="pattern0_642_2395_inner">
<path d="M48.7793 99.9844C49.185 99.9941 49.5919 100 50 100H48.7705L48.7793 99.9844ZM175.41 100H50C77.6142 100 100 77.6142 100 50C100 41.9118 98.0768 34.2736 94.667 27.5137L112.09 0L175.41 100ZM50 0C69.5261 0 86.4352 11.1941 94.667 27.5137L48.7793 99.9844C21.7291 99.3362 0 77.2062 0 50C0 22.3858 22.3858 2.0619e-06 50 0Z" fill="#DADADA"/>
</g>
<use xlink:href="#pattern0_642_2395_inner" transform="translate(-96.4756 110)"/>
<use xlink:href="#pattern0_642_2395_inner" transform="translate(96.4756 110)"/>
</pattern></defs>
</svg>
